<?xml version="1.0" encoding="iso-8859-1"?>
<!-- Generator: Adobe Illustrator 19.0.0, SVG Export Plug-In . SVG Version: 6.00 Build 0)  -->
<svg version="1.1" id="Capa_1" xmlns="http://www.w3.org/2000/svg" xmlns:xlink="http://www.w3.org/1999/xlink" x="0px" y="0px"
	 viewBox="0 0 512 512" style="enable-background:new 0 0 512 512;" xml:space="preserve">
<path style="fill:#455A64;" d="M14.69,432.262V29.377c0-14.269,10.911-25.18,25.18-25.18h327.344c14.269,0,25.18,10.911,25.18,25.18
	v402.885c0,14.269-10.911,25.18-25.18,25.18H39.87C25.601,457.443,14.69,446.531,14.69,432.262z"/>
<path style="fill:#424242;" d="M367.214,461.639H39.87c-16.468,0-29.377-12.901-29.377-29.377V29.377
	C10.493,12.909,23.402,0,39.87,0h327.344c16.476,0,29.377,12.909,29.377,29.377v402.885
	C396.591,448.739,383.69,461.639,367.214,461.639z M39.87,8.393c-11.961,0-20.984,9.023-20.984,20.984v402.885
	c0,11.961,9.023,20.984,20.984,20.984h327.344c11.961,0,20.984-9.023,20.984-20.984V29.377c0-11.961-9.023-20.984-20.984-20.984
	H39.87z"/>
<path style="fill:#546E7A;" d="M48.263,432.262V29.377c0-14.269,10.911-25.18,25.18-25.18h327.344
	c14.269,0,25.18,10.911,25.18,25.18v402.885c0,14.269-10.911,25.18-25.18,25.18H73.444
	C59.175,457.443,48.263,446.531,48.263,432.262z"/>
<path style="fill:#424242;" d="M400.788,461.639H73.444c-16.468,0-29.377-12.901-29.377-29.377V29.377
	C44.067,12.909,56.976,0,73.444,0h327.344c16.476,0,29.377,12.909,29.377,29.377v402.885
	C430.165,448.739,417.264,461.639,400.788,461.639z M73.444,8.393c-11.961,0-20.984,9.023-20.984,20.984v402.885
	c0,11.961,9.023,20.984,20.984,20.984h327.344c11.961,0,20.984-9.023,20.984-20.984V29.377c0-11.961-9.023-20.984-20.984-20.984
	H73.444z"/>
<path style="fill:#78909C;" d="M68.408,436.459c-2.317,0-4.197-1.88-4.197-4.197V29.377c0-2.317,1.88-4.197,4.197-4.197
	s4.197,1.88,4.197,4.197v402.885C72.604,434.579,70.724,436.459,68.408,436.459z"/>
<path style="fill:#455A64;" d="M404.145,436.459c-2.317,0-4.197-1.88-4.197-4.197V29.377c0-2.317,1.88-4.197,4.197-4.197
	s4.197,1.88,4.197,4.197v402.885C408.342,434.579,406.47,436.459,404.145,436.459z"/>
<path style="fill:#CFD8DC;" d="M489.758,258.518L489.758,258.518c10.072,10.072,10.072,26.02,0,35.252L329.444,454.085
	l-36.092-35.252l160.315-160.315C463.739,248.446,479.686,248.446,489.758,258.518z"/>
<path style="fill:#424242;" d="M329.444,458.282c-1.058,0-2.115-0.403-2.938-1.2l-36.092-35.244
	c-0.806-0.781-1.251-1.855-1.259-2.971s0.436-2.199,1.225-2.988l160.315-160.323c11.331-11.331,30.695-11.331,42.026,0l0,0l0,0
	c5.758,5.758,8.947,13.597,8.78,21.529c-0.168,7.646-3.332,14.672-8.914,19.783l-160.172,160.18
	C331.592,457.871,330.518,458.282,329.444,458.282z M299.32,418.799l30.09,29.377l157.377-157.377c4.012-3.676,6.203-8.57,6.32-13.9
	c0.126-5.741-2.115-11.214-6.32-15.419l0,0c-8.15-8.158-21.991-8.158-30.158,0L299.32,418.799z"/>
<polygon style="fill:#CFD8DC;" points="293.352,418.833 329.444,454.085 293.352,490.177 240.473,507.803 258.099,454.085 "/>
<g>
	<path style="fill:#424242;" d="M240.473,512c-1.091,0-2.157-0.428-2.963-1.225c-1.125-1.125-1.528-2.778-1.032-4.289l17.626-53.718
		c0.201-0.621,0.554-1.192,1.024-1.654l35.252-35.244c1.628-1.628,4.247-1.628,5.901-0.034l36.092,35.244
		c0.806,0.781,1.251,1.855,1.259,2.971c0.008,1.116-0.436,2.199-1.225,2.988l-36.092,36.1c-0.462,0.462-1.024,0.814-1.637,1.016
		l-52.879,17.626C241.363,511.924,240.918,512,240.473,512z M261.776,456.343l-14.714,44.838l44.024-14.672l32.39-32.39
		l-30.09-29.377L261.776,456.343z"/>
	<path style="fill:#424242;" d="M240.473,512c-1.074,0-2.149-0.411-2.971-1.225c-1.637-1.637-1.637-4.297,0-5.934l35.252-35.252
		c1.637-1.637,4.297-1.637,5.934,0s1.637,4.297,0,5.934l-35.252,35.252C242.622,511.589,241.548,512,240.473,512z"/>
</g>
<rect x="362.508" y="282.128" transform="matrix(-0.7071 0.7071 -0.7071 -0.7071 897.3951 213.527)" style="fill:#CFD8DC;" width="83.934" height="20.983"/>
<path style="fill:#424242;" d="M382.222,333.866c-1.074,0-2.149-0.411-2.971-1.225l-14.84-14.84c-1.637-1.637-1.637-4.297,0-5.934
	l59.35-59.35c1.637-1.637,4.297-1.637,5.934,0l14.84,14.84c1.637,1.637,1.637,4.297,0,5.934l-59.35,59.35
	C384.37,333.463,383.296,333.866,382.222,333.866z M373.325,314.838l8.905,8.905l53.416-53.416l-8.905-8.905L373.325,314.838z"/>
<path style="fill:#FFA726;" d="M311.817,183.816c0-42.807-35.252-76.38-78.059-75.541c-41.128,0.839-74.702,36.931-73.023,77.22
	c0.839,23.502,12.59,44.485,30.216,57.915c10.072,7.554,15.948,20.144,15.948,32.734v32.734h58.754v-31.056
	c0-13.43,5.875-26.02,15.948-34.413C300.067,229.98,311.817,208.157,311.817,183.816z"/>
<path style="fill:#424242;" d="M265.653,313.075h-58.754c-2.317,0-4.197-1.88-4.197-4.197v-32.734
	c0-11.524-5.464-22.78-14.269-29.377c-19.414-14.798-31.039-37.065-31.895-61.121c-0.848-20.346,7.009-40.918,21.571-56.404
	c14.638-15.57,34.883-24.744,55.565-25.172c22.083-0.394,42.974,7.764,58.595,23.082c15.31,15.016,23.745,35.135,23.745,56.656
	c0,24.895-11.944,48.439-31.954,62.984c-8.947,7.47-14.21,18.835-14.21,31.014v31.056
	C269.85,311.195,267.978,313.075,265.653,313.075z M211.096,304.682h50.361v-26.859c0-14.672,6.362-28.395,17.45-37.636
	c18.063-13.144,28.714-34.153,28.714-56.37c0-19.246-7.537-37.242-21.227-50.663c-13.992-13.723-32.743-21.042-52.551-20.681
	c-18.432,0.378-36.52,8.586-49.614,22.52c-13.018,13.849-20.052,32.197-19.297,50.327c0.772,21.563,11.188,41.506,28.571,54.75
	c10.844,8.133,17.601,21.966,17.601,36.075v28.538H211.096z"/>
<path style="fill:#FFCC80;" d="M182.558,189.692c-2.266,0-4.13-1.796-4.197-4.079c-0.428-15.117,5.489-30.359,16.25-41.808
	c10.928-11.65,25.39-18.306,40.708-18.743h1.796c2.317,0,4.197,1.88,4.197,4.197s-1.88,4.197-4.197,4.197h-1.679
	c-12.758,0.361-25.457,6.236-34.707,16.09s-14.344,22.906-13.975,35.832c0.067,2.317-1.754,4.247-4.079,4.314
	C182.634,189.692,182.592,189.692,182.558,189.692z"/>
<path style="fill:#CFD8DC;" d="M251.385,350.846h-29.377c-14.269,0-25.18-10.911-25.18-25.18v-46.164h79.738v46.164
	C276.565,339.095,265.653,350.846,251.385,350.846z"/>
<path style="fill:#424242;" d="M251.385,355.043h-29.377c-16.468,0-29.377-12.901-29.377-29.377v-46.164
	c0-2.317,1.88-4.197,4.197-4.197h79.738c2.317,0,4.197,1.88,4.197,4.197v46.164C280.762,341.857,267.584,355.043,251.385,355.043z
	 M201.024,283.698v41.967c0,11.961,9.023,20.984,20.984,20.984h29.377c11.575,0,20.984-9.409,20.984-20.984v-41.967H201.024z"/>
<path style="fill:#CFD8DC;" d="M244.67,371.829h-16.787c-5.036,0-8.393-3.357-8.393-8.393v-12.59h33.574v12.59
	C253.063,367.633,249.706,371.829,244.67,371.829z"/>
<g>
	<path style="fill:#424242;" d="M244.67,376.026h-16.787c-7.411,0-12.59-5.179-12.59-12.59v-12.59c0-2.317,1.88-4.197,4.197-4.197
		h33.574c2.317,0,4.197,1.88,4.197,4.197v12.59C257.26,370.377,251.611,376.026,244.67,376.026z M223.686,355.043v8.393
		c0,2.703,1.494,4.197,4.197,4.197h16.787c2.594,0,4.197-2.182,4.197-4.197v-8.393H223.686z"/>
	<path style="fill:#424242;" d="M227.883,283.698c-2.317,0-4.197-1.88-4.197-4.197V242.78l-19.649-36.847
		c-1.091-2.048-0.319-4.583,1.729-5.682c2.065-1.091,4.583-0.311,5.682,1.729l20.144,37.77c0.327,0.604,0.495,1.284,0.495,1.972
		v37.77C232.08,281.818,230.2,283.698,227.883,283.698z"/>
	<path style="fill:#424242;" d="M244.67,283.698c-2.317,0-4.197-1.88-4.197-4.197v-37.77c0-0.739,0.193-1.46,0.562-2.098
		l21.831-37.77c1.167-2.014,3.727-2.686,5.733-1.536c2.006,1.158,2.694,3.727,1.536,5.733l-21.261,36.797v36.646
		C248.867,281.818,246.986,283.698,244.67,283.698z"/>
</g>
<path style="fill:#FFA726;" d="M315.175,123.384L315.175,123.384c-4.197-4.197-4.197-10.911,0-15.108l15.108-15.108
	c4.197-4.197,10.911-4.197,15.108,0l0,0c4.197,4.197,4.197,10.911,0,15.108l-15.108,15.108
	C326.086,126.741,319.372,126.741,315.175,123.384z"/>
<path style="fill:#424242;" d="M322.595,130.048c-3.651,0-7.227-1.141-10.039-3.383c-0.126-0.101-0.235-0.201-0.344-0.311
	c-5.8-5.8-5.8-15.242,0-21.042l15.108-15.108c5.8-5.8,15.242-5.8,21.051,0c5.8,5.8,5.8,15.242,0,21.042l-15.117,15.108
	C330.174,128.831,326.355,130.048,322.595,130.048z M317.978,120.253c2.686,1.989,7.059,1.947,9.678-0.143l14.772-14.798
	c2.577-2.577,2.577-6.597,0-9.174s-6.606-2.577-9.182,0l-15.108,15.108C315.628,113.756,315.569,117.676,317.978,120.253z"/>
<path style="fill:#FFA726;" d="M158.217,123.384L158.217,123.384c4.197-4.197,4.197-10.911,0-15.108l-15.108-15.108
	c-4.197-4.197-10.911-4.197-15.108,0l0,0c-4.197,4.197-4.197,10.911,0,15.108l15.108,15.108
	C147.306,126.741,154.021,126.741,158.217,123.384z"/>
<path style="fill:#424242;" d="M150.663,130.09c-3.668,0-7.327-1.141-10.181-3.425l-15.452-15.419c-5.8-5.8-5.8-15.242,0-21.042
	c5.8-5.8,15.234-5.8,21.042,0l15.108,15.108c5.8,5.8,5.8,15.242,0,21.042c-0.109,0.109-0.227,0.21-0.344,0.311
	C157.982,128.948,154.323,130.09,150.663,130.09z M158.217,123.384h0.084H158.217z M135.555,94.208
	c-1.654,0-3.299,0.638-4.583,1.922c-2.568,2.577-2.568,6.597,0,9.174l15.108,15.108c2.275,1.788,6.648,1.838,9.342-0.168
	c2.409-2.577,2.35-6.488-0.168-9.006L140.146,96.13C138.854,94.846,137.209,94.208,135.555,94.208z"/>
<path style="fill:#FFA726;" d="M158.217,244.249L158.217,244.249c4.197,4.197,4.197,10.911,0,15.108l-15.108,15.108
	c-4.197,4.197-10.911,4.197-15.108,0l0,0c-4.197-4.197-4.197-10.911,0-15.108l15.108-15.108
	C147.306,240.052,154.021,240.052,158.217,244.249z"/>
<path style="fill:#424242;" d="M135.555,281.785c-3.811,0-7.621-1.452-10.517-4.356c-5.8-5.8-5.8-15.234,0-21.042l15.108-15.108
	c5.808-5.8,15.251-5.791,21.042,0c5.8,5.8,5.8,15.242,0,21.042l-15.108,15.108C143.176,280.333,139.366,281.785,135.555,281.785z
	 M150.663,245.29c-1.645,0-3.299,0.646-4.583,1.93l-15.108,15.108c-2.568,2.568-2.568,6.597,0,9.174
	c2.577,2.577,6.597,2.577,9.174,0l15.108-15.108c2.568-2.577,2.568-6.597,0-9.174C153.962,245.928,152.317,245.29,150.663,245.29z"
	/>
<path style="fill:#FFA726;" d="M315.175,244.249L315.175,244.249c-4.197,4.197-4.197,10.911,0,15.108l15.108,15.108
	c4.197,4.197,10.911,4.197,15.108,0l0,0c4.197-4.197,4.197-10.911,0-15.108l-15.108-15.108
	C326.086,240.052,319.372,240.052,315.175,244.249z"/>
<g>
	<path style="fill:#424242;" d="M337.837,281.785c-3.811,0-7.621-1.452-10.525-4.356l-15.108-15.117c-5.8-5.791-5.8-15.234,0-21.034
		c5.791-5.8,15.226-5.808,21.042,0l15.117,15.108c5.8,5.808,5.8,15.242,0,21.042C345.458,280.333,341.648,281.785,337.837,281.785z
		 M322.721,245.29c-1.645,0-3.299,0.638-4.583,1.922c-2.577,2.577-2.577,6.597,0,9.174l15.108,15.108
		c2.577,2.577,6.606,2.577,9.182,0s2.577-6.606,0-9.182l-15.117-15.1C326.027,245.928,324.382,245.29,322.721,245.29z"/>
	<path style="fill:#424242;" d="M276.565,329.862h-79.738c-2.317,0-4.197-1.88-4.197-4.197c0-2.317,1.88-4.197,4.197-4.197h79.738
		c2.317,0,4.197,1.88,4.197,4.197C280.762,327.982,278.89,329.862,276.565,329.862z"/>
</g>
<g>
</g>
<g>
</g>
<g>
</g>
<g>
</g>
<g>
</g>
<g>
</g>
<g>
</g>
<g>
</g>
<g>
</g>
<g>
</g>
<g>
</g>
<g>
</g>
<g>
</g>
<g>
</g>
<g>
</g>
</svg>
