<svg xmlns="http://www.w3.org/2000/svg" xmlns:xlink="http://www.w3.org/1999/xlink" viewBox="0 0 200.4 200"><defs><style>.cls-1{fill:none;}.cls-2{fill:#231f20;}.cls-3{clip-path:url(#clip-path);}.cls-4{fill:#fff;}.cls-5{clip-path:url(#clip-path-2);}.cls-6{clip-path:url(#clip-path-3);}</style><clipPath id="clip-path"><path class="cls-1" d="M16.69,82.39c0-2.71,1.75-4.91,3.92-4.91H66.33c2.16,0,3.92,2.2,3.92,4.91v39.26c0,2.71-1.76,4.91-3.92,4.91H20.61c-2.17,0-3.92-2.2-3.92-4.91Z"/></clipPath><clipPath id="clip-path-2"><path class="cls-1" d="M77.48,82.37c0-2.74,1.77-5,4-5h46.24c2.19,0,4,2.23,4,5v39.7c0,2.74-1.77,5-4,5H81.44c-2.19,0-4-2.23-4-5Z"/></clipPath><clipPath id="clip-path-3"><path class="cls-1" d="M138.64,82.47c0-2.72,1.75-4.92,3.92-4.92h45.72c2.16,0,3.92,2.2,3.92,4.92v39.25c0,2.72-1.76,4.92-3.92,4.92H142.56c-2.17,0-3.92-2.2-3.92-4.92Z"/></clipPath></defs><title>logo4</title><g id="Layer_2" data-name="Layer 2"><g id="option_a" data-name="option a"><rect class="cls-1" x="0.4" width="200" height="200"/><path class="cls-2" d="M64.64,27.09c6.62,0,11.81,3.28,14.14,9l-6.67,4c-1.66-3.67-4.28-5.48-8-5.48A9.07,9.07,0,0,0,54.88,44c0,4.9,3.14,8.09,8,8.09,3.29,0,6-1.52,8.43-4.76l5.76,4.53A17.5,17.5,0,0,1,62.3,59.66c-9,.14-15.95-6.53-15.8-15.24C46.31,34.94,54.78,26.9,64.64,27.09Z"/><path class="cls-2" d="M90,27.66H98.2L92.68,59.08H84.49Z"/><path class="cls-2" d="M137.1,27.66l-5.61,32h-2.62L114.82,42.52l-2.9,16.56h-8.19l5.61-32H112l14.1,16.81,2.85-16.24Z"/><path class="cls-2" d="M153.62,35H144.2l1.28-7.38h27.05L171.24,35h-9.43l-4.23,24h-8.19Z"/><path class="cls-2" d="M190.72,56.47H179.67l-1.62,2.61h-9.24l19.95-32h2.62l8.62,32h-8.57Zm-3.1-13.57-3.9,7H189Z"/><path class="cls-2" d="M3.77,37.53H9.35L6.46,53.93h8.87l-.88,5H0Z"/><path class="cls-2" d="M33.51,57.18H26L24.87,59h-6.3L32.18,37.14H34L39.84,59H34ZM31.4,47.92,28.74,52.7h3.6Z"/><path class="cls-2" d="M38.2,144.29c6.62,0,11.81,3.28,14.15,9.05l-6.67,3.95c-1.67-3.67-4.29-5.48-8-5.48a9.07,9.07,0,0,0-9.29,9.43c0,4.9,3.15,8.09,8.05,8.09,3.29,0,6-1.52,8.43-4.76l5.76,4.53a17.51,17.51,0,0,1-14.81,7.76c-9,.14-15.95-6.53-15.81-15.24C19.87,152.15,28.35,144.1,38.2,144.29Z"/><path class="cls-2" d="M77.1,144.29c8.91-.14,15.81,6.62,15.67,15.24.19,9.52-8.33,17.47-18,17.33-8.9.14-15.8-6.62-15.66-15.24C58.87,152.1,67.39,144.15,77.1,144.29Zm-.57,7.52a9.05,9.05,0,0,0-9.09,9.43c0,4.9,3.24,8.09,7.86,8.09a9,9,0,0,0,9.09-9.42C84.39,155,81.15,151.81,76.53,151.81Z"/><path class="cls-2" d="M127.34,176.29h-8.86l-5.86-9.76h-3.19l-1.71,9.76H99.53l5.52-31.43h11c7.15,0,11.81,4,11.81,10,0,4.43-2.66,8.19-7,10.14Zm-16.67-16.91h4.62c2.52,0,4.14-1.47,4.14-3.81a3.24,3.24,0,0,0-3.52-3.57H112Z"/><path class="cls-2" d="M145.14,152.24h-9.43l1.29-7.38h27l-1.28,7.38h-9.43l-4.24,24H140.9Z"/><path class="cls-2" d="M182.23,173.67h-11l-1.62,2.62h-9.24l19.95-32h2.62l8.62,32H183Zm-3.09-13.57-3.91,7h5.29Z"/><path d="M164.64,69h.86V65.57H43.41V69h.86a1.07,1.07,0,0,1,.93,1.16v3.65a1.07,1.07,0,0,1-.93,1.16h-.86v2.63H66.28c2.16,0,3.91,2.2,3.91,4.92v39.25c0,2.72-1.75,4.92-3.91,4.92H43.41v2.63h.86a1.07,1.07,0,0,1,.93,1.16v3.65a1.07,1.07,0,0,1-.93,1.16h-.86v3.39H165.5v-3.39h-.86a1.06,1.06,0,0,1-.93-1.16v-3.65a1.06,1.06,0,0,1,.93-1.16h.86v-2.63H142.64c-2.16,0-3.92-2.2-3.92-4.92V82.48c0-2.72,1.76-4.92,3.92-4.92H165.5V74.93h-.86a1.06,1.06,0,0,1-.93-1.16V70.12A1.06,1.06,0,0,1,164.64,69ZM52.83,73.77a1.06,1.06,0,0,1-.93,1.16H50.17a1.07,1.07,0,0,1-.93-1.16V70.12A1.07,1.07,0,0,1,50.17,69H51.9a1.06,1.06,0,0,1,.93,1.16Zm7.63,0a1.06,1.06,0,0,1-.92,1.16H57.8a1.07,1.07,0,0,1-.93-1.16V70.12A1.07,1.07,0,0,1,57.8,69h1.74a1.06,1.06,0,0,1,.92,1.16Zm7.63,0a1.06,1.06,0,0,1-.92,1.16H65.43a1.07,1.07,0,0,1-.93-1.16V70.12A1.07,1.07,0,0,1,65.43,69h1.74a1.06,1.06,0,0,1,.92,1.16ZM52.83,134.09a1.06,1.06,0,0,1-.93,1.16H50.17a1.07,1.07,0,0,1-.93-1.16v-3.65a1.07,1.07,0,0,1,.93-1.16H51.9a1.06,1.06,0,0,1,.93,1.16Zm7.63,0a1.06,1.06,0,0,1-.92,1.16H57.8a1.07,1.07,0,0,1-.93-1.16v-3.65a1.07,1.07,0,0,1,.93-1.16h1.74a1.06,1.06,0,0,1,.92,1.16Zm7.63,0a1.06,1.06,0,0,1-.92,1.16H65.43a1.07,1.07,0,0,1-.93-1.16v-3.65a1.07,1.07,0,0,1,.93-1.16h1.74a1.06,1.06,0,0,1,.92,1.16Zm88-3.65a1.06,1.06,0,0,1,.92-1.16h1.74a1.07,1.07,0,0,1,.93,1.16v3.65a1.07,1.07,0,0,1-.93,1.16H157a1.06,1.06,0,0,1-.92-1.16Zm-7.63,0a1.06,1.06,0,0,1,.92-1.16h1.74a1.07,1.07,0,0,1,.93,1.16v3.65a1.07,1.07,0,0,1-.93,1.16h-1.74a1.06,1.06,0,0,1-.92-1.16Zm-7.64,0a1.07,1.07,0,0,1,.93-1.16h1.74a1.07,1.07,0,0,1,.93,1.16v3.65a1.07,1.07,0,0,1-.93,1.16h-1.74a1.07,1.07,0,0,1-.93-1.16ZM125.55,70.12a1.07,1.07,0,0,1,.93-1.16h1.74a1.06,1.06,0,0,1,.92,1.16v3.65a1.06,1.06,0,0,1-.92,1.16h-1.74a1.07,1.07,0,0,1-.93-1.16Zm-7.63,0a1.07,1.07,0,0,1,.93-1.16h1.73a1.06,1.06,0,0,1,.93,1.16v3.65a1.06,1.06,0,0,1-.93,1.16h-1.73a1.07,1.07,0,0,1-.93-1.16Zm-7.63,0a1.06,1.06,0,0,1,.93-1.16H113a1.06,1.06,0,0,1,.93,1.16v3.65a1.06,1.06,0,0,1-.93,1.16h-1.73a1.06,1.06,0,0,1-.93-1.16Zm-7.63,0a1.06,1.06,0,0,1,.93-1.16h1.73a1.07,1.07,0,0,1,.93,1.16v3.65a1.07,1.07,0,0,1-.93,1.16h-1.73a1.06,1.06,0,0,1-.93-1.16Zm-7.63,0A1.06,1.06,0,0,1,96,69h1.74a1.07,1.07,0,0,1,.93,1.16v3.65a1.07,1.07,0,0,1-.93,1.16H96A1.06,1.06,0,0,1,95,73.77Zm-7.63,0A1.06,1.06,0,0,1,88.32,69h1.74A1.07,1.07,0,0,1,91,70.12v3.65a1.07,1.07,0,0,1-.93,1.16H88.32a1.06,1.06,0,0,1-.92-1.16Zm-7.64,0A1.07,1.07,0,0,1,80.69,69h1.74a1.07,1.07,0,0,1,.93,1.16v3.65a1.07,1.07,0,0,1-.93,1.16H80.69a1.07,1.07,0,0,1-.93-1.16Zm-4,64a1.07,1.07,0,0,1-.93,1.16H73.06a1.07,1.07,0,0,1-.93-1.16v-3.65a1.07,1.07,0,0,1,.93-1.16H74.8a1.07,1.07,0,0,1,.93,1.16Zm0-60.32a1.07,1.07,0,0,1-.93,1.16H73.06a1.07,1.07,0,0,1-.93-1.16V70.12A1.07,1.07,0,0,1,73.06,69H74.8a1.07,1.07,0,0,1,.93,1.16Zm7.63,60.32a1.07,1.07,0,0,1-.93,1.16H80.69a1.07,1.07,0,0,1-.93-1.16v-3.65a1.07,1.07,0,0,1,.93-1.16h1.74a1.07,1.07,0,0,1,.93,1.16Zm7.63,0a1.07,1.07,0,0,1-.93,1.16H88.32a1.06,1.06,0,0,1-.92-1.16v-3.65a1.06,1.06,0,0,1,.92-1.16h1.74a1.07,1.07,0,0,1,.93,1.16Zm7.63,0a1.07,1.07,0,0,1-.93,1.16H96a1.06,1.06,0,0,1-.92-1.16v-3.65a1.06,1.06,0,0,1,.92-1.16h1.74a1.07,1.07,0,0,1,.93,1.16Zm7.63,0a1.07,1.07,0,0,1-.93,1.16h-1.73a1.06,1.06,0,0,1-.93-1.16v-3.65a1.06,1.06,0,0,1,.93-1.16h1.73a1.07,1.07,0,0,1,.93,1.16Zm7.63,0a1.06,1.06,0,0,1-.93,1.16h-1.73a1.06,1.06,0,0,1-.93-1.16v-3.65a1.06,1.06,0,0,1,.93-1.16H113a1.06,1.06,0,0,1,.93,1.16Zm7.63,0a1.06,1.06,0,0,1-.93,1.16h-1.73a1.07,1.07,0,0,1-.93-1.16v-3.65a1.07,1.07,0,0,1,.93-1.16h1.73a1.06,1.06,0,0,1,.93,1.16Zm7.63,0a1.06,1.06,0,0,1-.92,1.16h-1.74a1.07,1.07,0,0,1-.93-1.16v-3.65a1.07,1.07,0,0,1,.93-1.16h1.74a1.06,1.06,0,0,1,.92,1.16Zm2.1-12.36c0,2.72-1.76,4.92-3.92,4.92H81.6c-2.17,0-3.92-2.2-3.92-4.92V82.48c0-2.72,1.75-4.92,3.92-4.92h45.72c2.16,0,3.92,2.2,3.92,4.92Zm5.53,12.36a1.06,1.06,0,0,1-.92,1.16h-1.74a1.07,1.07,0,0,1-.93-1.16v-3.65a1.07,1.07,0,0,1,.93-1.16h1.74a1.06,1.06,0,0,1,.92,1.16Zm0-60.32a1.06,1.06,0,0,1-.92,1.16h-1.74a1.07,1.07,0,0,1-.93-1.16V70.12a1.07,1.07,0,0,1,.93-1.16h1.74a1.06,1.06,0,0,1,.92,1.16Zm7.64,0a1.07,1.07,0,0,1-.93,1.16h-1.74a1.07,1.07,0,0,1-.93-1.16V70.12a1.07,1.07,0,0,1,.93-1.16h1.74a1.07,1.07,0,0,1,.93,1.16Zm7.63,0a1.07,1.07,0,0,1-.93,1.16h-1.74a1.06,1.06,0,0,1-.92-1.16V70.12a1.06,1.06,0,0,1,.92-1.16h1.74a1.07,1.07,0,0,1,.93,1.16Zm7.63,0a1.07,1.07,0,0,1-.93,1.16H157a1.06,1.06,0,0,1-.92-1.16V70.12A1.06,1.06,0,0,1,157,69h1.74a1.07,1.07,0,0,1,.93,1.16Z"/><g class="cls-3"><path class="cls-1" d="M55.38,116.87q4.42,13.88,8.86,27.74c-2.31-5.44-4.62-10.87-7-16.28-2.09-4.78-4-9.81-6.66-14.32a.34.34,0,0,0-.13-.09c0-.48,0-1,0-1.45h0l3.49,0C54.43,113.92,54.9,115.4,55.38,116.87Z"/><path class="cls-1" d="M62.58,106.58c0,.91,0,1.81.05,2.72l-1.17-.08c0-.88,0-1.77,0-2.66Z"/><path class="cls-1" d="M42.08,112c-.15-.16-.11-.8-.11-1.17l14.11-.17c0,.73.07,1.19-.78,1.25-.34,0-.69,0-1,0a.3.3,0,0,0-.21,0c-.34,0-.69,0-1,0-1.42,0-2.84,0-4.26,0l-1.85,0a.31.31,0,0,0-.32,0l-2.26,0C43.94,112,42.35,112.26,42.08,112Z"/><path class="cls-1" d="M57.13,108.14c-.62.07-1.25.12-1.88.17-2.7.21-5.4.25-8.11.23-1.39,0-2.78,0-4.18-.07l-2,0c-.57,0-.73.15-.81-.4A18.27,18.27,0,0,1,40,103.6c3.23,0,6.46,0,9.69,0,1.6,0,3.21,0,4.81,0a28.49,28.49,0,0,1,2.82,4.55Z"/><path class="cls-1" d="M58.09,103.78l1,1.25,0,0c0,.23,0,.46,0,.69s0,.22,0,.35l-1.76-2.52h.71A.15.15,0,0,0,58.09,103.78Z"/><path class="cls-1" d="M58.43,103.57h0l.79,0,0,1Z"/><path class="cls-1" d="M49.94,112.49q-.13,5.12-.21,10.23c-.13,7.46-.19,14.92-.26,22.38q-.55-8.53-1.15-17.06c-.37-5.18-.62-10.39-1.25-15.54l2.88,0S49.94,112.48,49.94,112.49Z"/><path class="cls-1" d="M46.68,114s0,0,0,0c-.92,3.12-1.93,6.21-3,9.3-2.53,7.59-5.19,15.14-7.9,22.66l0-.11,7.8-33.29s0,0,0,0l2.94,0C46.59,113,46.64,113.5,46.68,114Z"/><path class="cls-1" d="M31.31,98.86c.41,0,.88.09,1.26.11.09,2.22.11,4.44.18,6.65-.44,0-.9.06-1.34,0Q31.22,102.27,31.31,98.86Z"/><path class="cls-1" d="M30.48,104.87c0-.5,0-1.06,0-1.57,0-1.13,0-2.26,0-3.4,0-.57-.14-.85.4-1q-.09,3.36.1,6.72C30.45,105.53,30.54,105.6,30.48,104.87Z"/><path class="cls-1" d="M34.18,108.12h0c0-3.65-.09-7.31-.13-11l.87,0c.71-.06,1.43-.11,2.15-.15,0,.61.06,1.21.1,1.73l-1.62,0a.23.23,0,0,0-.22.16.27.27,0,0,0-.44.21c0,1.45,0,2.9.07,4.35a.24.24,0,0,0,.33.23s.05,0,.08,0c.56,0,1.12,0,1.68,0a.23.23,0,0,0-.11.21c0,1.46,0,2.93,0,4.39l-2.38-.08Z"/><path class="cls-1" d="M22,109c-.1-1.45-.16-2.9-.22-4.36a.27.27,0,0,0-.53,0c.05,1.54.12,3.08.22,4.62l-.87.45c-.14-5.26-.31-10.55-.82-15.79l.88.49s0,0,0,0q.28,4.13.56,8.27c0,.34.56.32.54,0l-.54-8L30,99.59c0,1.77,0,3.55,0,5.32a.17.17,0,0,0-.1,0Z"/><path class="cls-1" d="M33.33,106.82c-.08-1.55-.1-3.1-.12-4.65,0-.86,0-1.72-.07-2.58,0-.51-.33-1.82,0-2.2a.86.86,0,0,1,.55-.19c0,3.61.09,7.22.13,10.83C33.43,107.89,33.37,107.59,33.33,106.82Z"/><path class="cls-1" d="M49.4,88.72a6.6,6.6,0,0,0,2.22,4.73,6.32,6.32,0,0,0,1.35.8c-2.89,0-5.78,0-8.65-.07l-.62,0a10,10,0,0,0,1.94-.72A7.27,7.27,0,0,0,49.4,88.72Z"/><path class="cls-1" d="M37.91,94.9c.53-.63,2.59-.26,3.29-.25l12,.24c2.09,0,4.19,0,6.28.13.45,0,.91.07,1.36.12.19,0,.4,0,.59.06a24.86,24.86,0,0,1-.28,4.3s0,0,0,0c-.44-.05-.87-.08-1.31-.1a17.65,17.65,0,0,1,.15-2.72.2.2,0,0,0-.2-.25c-6.64-.18-13.29-.35-19.94-.25a.2.2,0,0,0-.19.2l0,2.38-2-.06c0-.71-.06-1.43,0-2.14C37.69,96.15,37.6,95.27,37.91,94.9Z"/><path class="cls-1" d="M39.75,107.72c0,.26,0,.84.24,1s.75.07,1,.08l2,0a102.3,102.3,0,0,0,14.54-.41s0,0,0,.05c.09.19.32.08.34-.1.47-.06.94-.09,1.41-.16a.21.21,0,0,0,.19-.21l.12-4.54a11.94,11.94,0,0,0,1.34-.15c0,1,0,1.9,0,2.84a.49.49,0,0,0,0,.17v1.41c0,.33.08,1,0,1.52a.27.27,0,0,0,0,.25.82.82,0,0,1-.16.39c-.38.36-1.77.14-2.27.14l-9,.11-9.3.12c-.52,0-2,.31-2.39,0s-.27-1.56-.28-2.08c0-1.47,0-3-.05-4.42a.22.22,0,0,0-.1-.2l2.24,0A20.27,20.27,0,0,0,39.75,107.72Z"/><path class="cls-1" d="M42.88,100.94l0,0,0,0a.25.25,0,0,1-.06.49C42.53,101.43,42.59,101,42.88,100.94Z"/><path class="cls-1" d="M38.78,100.53a.27.27,0,0,0,.23,0,.69.69,0,0,1,.59,1.24C38.8,102.14,38.27,101.09,38.78,100.53Z"/><path class="cls-1" d="M40.13,96.62c.19-.16,1.27,0,1.51,0h3.17q3.4,0,6.82.08,4,.07,8,.18a16.7,16.7,0,0,0-.14,2.55c-1.12,0-2.24,0-3.33,0l-7.06-.24c-3-.11-6-.23-9-.32,0-.42,0-.84,0-1.26A3.62,3.62,0,0,1,40.13,96.62Z"/><path class="cls-1" d="M35.43,99.15l.06,4c4.45-.15,8.91-.08,13.36-.06,2.29,0,4.58,0,6.87,0s5.15.24,7.28-.86q.06-.89.09-1.77s-.05,0-.08,0c-2.25-.68-4.79-.47-7.13-.54l-7.12-.25c-4.4-.16-8.79-.36-13.19-.44A.22.22,0,0,1,35.43,99.15Zm6.67,2.13a.83.83,0,0,1,.62-.86c.06,0,.1,0,.15,0a.24.24,0,0,1,.19,0,.83.83,0,0,1,.6.85.78.78,0,0,1-1.56,0ZM38.6,100a.22.22,0,0,1,.32.05,1.24,1.24,0,0,1,1.45.47,1.28,1.28,0,0,1-.48,1.73,1.31,1.31,0,0,1-1.71-.47A1.38,1.38,0,0,1,38.6,100Z"/><path class="cls-1" d="M39.23,87.8s.05,0,.09,0a.37.37,0,0,1,.07.74c-.44.07-.55-.51-.21-.71C39.21,87.85,39.21,87.82,39.23,87.8Z"/><path class="cls-1" d="M59,106.6a.19.19,0,0,0,.16.08A1.75,1.75,0,0,1,59,107.9a2.55,2.55,0,0,1-1.18.21A29.57,29.57,0,0,0,55,103.58h.77s0,0,0,.06a38,38,0,0,1,2.79,4.18c.13.23.47,0,.34-.21a36.13,36.13,0,0,0-2.68-4H57a.17.17,0,0,0,0,.15Z"/><path class="cls-1" d="M39.43,85.89c-.46,0-.43-.58,0-.66h0a.39.39,0,0,1,.33.37A.3.3,0,0,1,39.43,85.89Z"/><path class="cls-1" d="M53.88,87.6a.31.31,0,0,0,.09-.14.19.19,0,0,0,.12.09.35.35,0,1,1-.21,0Z"/><path class="cls-1" d="M57.63,88.09s0,0,0,0h0c.5-.06.7.67.15.76S57.26,88.28,57.63,88.09Z"/><path class="cls-1" d="M56.27,86.2h0a.32.32,0,0,1,.29.32.26.26,0,0,1-.28.24C55.9,86.78,56,86.27,56.27,86.2Z"/><path class="cls-1" d="M55.7,89.66h0l0,0a.34.34,0,0,1-.08.67C55.21,90.31,55.32,89.73,55.7,89.66Z"/><path class="cls-1" d="M53.75,91a3.92,3.92,0,0,0,4.55,0,3.3,3.3,0,0,0,.12-5.12,3.51,3.51,0,0,0-5.34.46A3.73,3.73,0,0,0,53.75,91Zm3.16-2.21a1,1,0,0,1,.44-1.16.3.3,0,0,1,.16,0,.32.32,0,0,1,.14-.08,1,1,0,0,1,1,.83.9.9,0,0,1-.73,1A.89.89,0,0,1,56.91,88.8Zm-.56-1.5a.78.78,0,0,1-.87-.69.87.87,0,0,1,.63-.92s0,0,.07,0,0,0,.08,0a.87.87,0,0,1,.84.8A.78.78,0,0,1,56.35,87.3Zm-1.52,2.82a.93.93,0,0,1,.72-1,.34.34,0,0,1,.2,0,.15.15,0,0,1,.13,0,.92.92,0,0,1,.68,1,.87.87,0,0,1-1.73,0Zm-1.59-1.89a1,1,0,0,1,.36-1.09.23.23,0,0,1,.32.06.26.26,0,0,1,.3-.17.93.93,0,0,1,.73.88.86.86,0,0,1-.75.86A.85.85,0,0,1,53.24,88.23Z"/><path class="cls-1" d="M67.53,99.3l.34-.2a21.4,21.4,0,0,1,.17,4.16c-.14-.07-.26-.15-.39-.23l-.12-3.72Z"/><path class="cls-1" d="M65.18,102.55c-.19.11-.46,0-.67,0l-1-.09c.06-1,.12-1.95.13-2.92l1.63-.06c0,.84,0,1.68.06,2.53C65.34,102.31,65.41,102.41,65.18,102.55Z"/><path class="cls-1" d="M38.05,84.06a4.6,4.6,0,0,0,.45,6.12,5.2,5.2,0,0,0,5.77.11,4.1,4.1,0,0,0,.45-6.49A4.5,4.5,0,0,0,38.05,84.06Zm.85,3.35a.26.26,0,0,1,.21,0,.25.25,0,0,1,.2-.09,1,1,0,0,1,.94.85.9.9,0,0,1-.72.95.89.89,0,0,1-1.05-.57A1,1,0,0,1,38.9,87.41Zm1.38-1.86a.87.87,0,0,1-1.73.17.92.92,0,0,1,.67-1l.09,0s0,0,.09,0A.94.94,0,0,1,40.28,85.55Zm2,2.84s0,0,0,0h0a.9.9,0,0,1,.58,1,.81.81,0,0,1-.94.64.82.82,0,0,1-.72-.93A.9.9,0,0,1,42.25,88.39Zm.35-4a.92.92,0,0,1-1.12.82.91.91,0,0,1-.62-1.16.84.84,0,0,1,.56-.5.21.21,0,0,1,.21-.15A1,1,0,0,1,42.6,84.4Zm.68,3a.94.94,0,0,1,1.16-.59.26.26,0,0,1,.19.33.79.79,0,0,1,.29.74.87.87,0,0,1-1.07.63A.9.9,0,0,1,43.28,87.39Zm.59-2.89a.29.29,0,0,1,.1,0,1,1,0,0,1,.78,1,.88.88,0,0,1-1.76,0,.93.93,0,0,1,.88-.91Z"/><path class="cls-1" d="M42.15,88.91s0,0,0,0a.31.31,0,0,1-.13.6c-.16,0-.32-.14-.3-.3a.36.36,0,0,1,.38-.31Z"/><path class="cls-1" d="M41.81,84.05s.06,0,.1,0a.38.38,0,0,1,.16.33.4.4,0,0,1-.46.32C41.15,84.57,41.38,83.87,41.81,84.05Z"/><path class="cls-1" d="M43.91,85c.35.11.43.67,0,.68s-.42-.66,0-.67Z"/><path class="cls-1" d="M44,87.35a.29.29,0,0,0,.18.1.28.28,0,0,1,.2.39.32.32,0,0,1-.42.12.37.37,0,0,1-.13-.46A.35.35,0,0,1,44,87.35Z"/><path class="cls-1" d="M66.11,100.3a9.61,9.61,0,0,1,1-.78c0,1.09.07,2.18.1,3.27-.45-.26-.91-.51-1.35-.8l0-.53c0-.37,0-.75,0-1.13A.25.25,0,0,0,66.11,100.3Z"/><path class="cls-1" d="M34.2,150.43q3.88-16.65,7.79-33.29c.36-1.53.71-3,1.07-4.57l-1.22,0a.28.28,0,0,1-.28-.26c0-.5-.07-1-.12-1.51l-4.15.05a.27.27,0,0,1-.28-.26c0-.61,0-1.22,0-1.83l-3.82-.14a.27.27,0,0,1-.28-.25c0-.75-.08-1.49-.11-2.24a8.77,8.77,0,0,0-1.54,0h0l-1,0a.27.27,0,0,1-.27-.26c0-.15,0-.3,0-.45l-9.46,4.91a.27.27,0,0,1-.41-.22c-.14-5.56-.3-11.16-.87-16.7a.27.27,0,0,1,.4-.24L29.94,99v-.36a.25.25,0,0,1,.26-.27l2.34.1c0-.48,0-1-.07-1.42a.27.27,0,0,1,.26-.27c1.45-.08,2.89-.22,4.35-.3h0a4.63,4.63,0,0,1,.28-1.62,1.32,1.32,0,0,1,1.29-.74A7.49,7.49,0,0,1,36.1,92.8c-5.34-4.69-1.44-14.22,5.69-13.74a8.64,8.64,0,0,1,7.63,6.3,7.53,7.53,0,0,1,.19,1.31,6.19,6.19,0,0,1,6.32-5,7.4,7.4,0,0,1,6.6,5,6.21,6.21,0,0,1-2.81,7.22,7.81,7.81,0,0,1-1.22.54c1.1.07,2.21.13,3.3.25A.28.28,0,0,1,62,95c-.1,1.51-.19,3-.28,4.54a.45.45,0,0,1-.06.12,10.1,10.1,0,0,1,1.43.3c0-.21,0-.41,0-.62a.28.28,0,0,1,.26-.28l2.08-.07a.25.25,0,0,1,.26.23.27.27,0,0,1,.1.19c0,.17,0,.33,0,.49a10.79,10.79,0,0,1,2.11-1.41.27.27,0,0,1,.4.15,23.14,23.14,0,0,1,.22,5.13.28.28,0,0,1-.4.24c-.79-.44-1.57-.89-2.33-1.38a.52.52,0,0,1,0,.18.64.64,0,0,1-.54.38,9.19,9.19,0,0,1-2-.17h0a.23.23,0,0,1-.23-.19,8.1,8.1,0,0,1-1.51.5c0,.92,0,1.84,0,2.76l1.36,0a.28.28,0,0,1,.28.26c0,1.09,0,2.18.06,3.26a.27.27,0,0,1-.26.28l-1.45-.09v.54a.27.27,0,0,1-.26.27l-4.59.06c0,.51-.07,1-.1,1.52a.28.28,0,0,1-.26.28c-.58,0-1.15,0-1.73,0Q59.79,128.91,65,145.37c.5,1.55,1,3.1,1.49,4.66.11.33-.38.47-.51.15-4.12-9.82-8.27-19.64-12.69-29.33-.92-2-1.83-4-2.9-6-.28,11.22-.38,22.45-.47,33.68l0,3.46a.27.27,0,0,1-.53,0c-.7-10.91-1.41-21.82-2.26-32.72-.11-1.34-.21-2.69-.32-4-3.26,10.8-7.12,21.44-10.94,32.05l-1.16,3.21C34.6,150.87,34.12,150.77,34.2,150.43Z"/><path d="M67.24,102.79c0,.1,0,.2,0,.3a.2.2,0,0,0,.4,0v0c.13.08.25.16.39.23a21.4,21.4,0,0,0-.17-4.16l-.34.2a.2.2,0,0,0-.4,0v.2a9.61,9.61,0,0,0-1,.78.25.25,0,0,1-.27,0c0-.16,0-.32,0-.48a10.79,10.79,0,0,1,2.11-1.41.27.27,0,0,1,.4.15,23.14,23.14,0,0,1,.22,5.13.28.28,0,0,1-.4.24c-.79-.44-1.57-.89-2.33-1.38a1.65,1.65,0,0,0,.06-.59C66.33,102.28,66.79,102.53,67.24,102.79Z"/><path d="M63.5,102.69c0-.07,0-.15,0-.23l1,.09c.21,0,.48.11.67,0s.16-.24.16-.54c0-.85,0-1.69-.06-2.53h.2a.25.25,0,0,0,.24-.3.27.27,0,0,1,.1.19c0,.17,0,.33,0,.49s0,.32,0,.48c0,.38,0,.76,0,1.13l0,.53a1.65,1.65,0,0,1-.06.59.52.52,0,0,1,0,.18.64.64,0,0,1-.54.38,9.19,9.19,0,0,1-2-.17h0A.29.29,0,0,0,63.5,102.69Z"/><path d="M63.29,102.65c.31-.15,0-.61-.28-.45h0q.06-.89.09-1.77a.26.26,0,0,0,0-.51h0c0-.21,0-.41,0-.62a.28.28,0,0,1,.26-.28l2.08-.07a.25.25,0,0,1,.26.23.25.25,0,0,1-.24.3h-.2l-1.63.06c0,1-.07,1.95-.13,2.92,0,.08,0,.16,0,.23a.29.29,0,0,1-.28.27.23.23,0,0,1-.23-.19C63.09,102.72,63.19,102.71,63.29,102.65Z"/><path d="M63.09,100.43s-.05,0-.08,0c-2.25-.68-4.79-.47-7.13-.54l-7.12-.25c-4.4-.16-8.79-.36-13.19-.44a.22.22,0,0,1-.14-.06V99a.21.21,0,0,0-.1-.19.23.23,0,0,1,.22-.16l1.62,0s0,.11,0,.16c0,.34.56.32.54,0,0,0,0-.08,0-.12l2,.06v.27a.2.2,0,0,0,.4,0c0-.09,0-.17,0-.25,3,.09,6,.21,9,.32l7.06.24c1.09,0,2.21,0,3.33,0v0a.2.2,0,0,0,.4,0v0c.44,0,.87,0,1.31.1,0,.24.33.26.46.07a10.1,10.1,0,0,1,1.43.3h0A.26.26,0,0,1,63.09,100.43Z"/><path d="M60.94,103.2v.15a11.94,11.94,0,0,1-1.34.15v-.1c0-.26-.39-.24-.4,0v.1l-.79,0a.22.22,0,0,0-.3,0H57.4l0-.06a.21.21,0,0,0-.37.06h-.76s-.07-.11-.11-.15a.2.2,0,0,0-.36.15H55c-.06-.08-.11-.16-.16-.24s-.5,0-.35.22l0,0c-1.6,0-3.21,0-4.81,0-3.23,0-6.46,0-9.69,0v0c0-.25-.36-.35-.39-.09a.66.66,0,0,0,0,.14l-2.24,0a.29.29,0,0,0-.32,0c-.56,0-1.12,0-1.68,0,0,0,0,0-.08,0a.24.24,0,0,0,.2-.24v-.27c4.45-.15,8.91-.08,13.36-.06,2.29,0,4.58,0,6.87,0s5.15.24,7.28-.86h0c.3-.16.59.3.28.45-.1.06-.2.07-.3.12a8.1,8.1,0,0,1-1.51.5v-.09C61.48,102.83,60.94,102.85,60.94,103.2Z"/><path d="M35,103.4c0-1.45-.05-2.9-.07-4.35a.27.27,0,0,1,.44-.21.21.21,0,0,1,.1.19v.12l.06,4v.27a.27.27,0,0,1-.53,0Z"/><path d="M34.92,97.14l-.87,0v-.09a.2.2,0,0,0-.4,0v.12a.86.86,0,0,0-.55.19c-.29.38,0,1.69,0,2.2,0,.86,0,1.72.07,2.58,0,1.55,0,3.1.12,4.65,0,.77.1,1.07.45,1.21v.1a.2.2,0,0,0,.4,0l.42,0,2.38.08c0,.18,0,.36,0,.54l-3.82-.14a.27.27,0,0,1-.28-.25c0-.75-.08-1.49-.11-2.24h.08c.34,0,.47-.48.13-.53h-.24c-.07-2.21-.09-4.43-.18-6.65h.06c.34,0,.32-.52,0-.53h-.07c0-.48,0-1-.07-1.42a.27.27,0,0,1,.26-.27c1.45-.08,2.89-.22,4.35-.3h0a4.87,4.87,0,0,0,0,.54C36.35,97,35.63,97.08,34.92,97.14Z"/><path d="M60.93,106.19c0-.94,0-1.89,0-2.84v-.15c0-.35.54-.37.54,0v.09c0,.92,0,1.84,0,2.76h-.31A.22.22,0,0,0,60.93,106.19Z"/><path d="M60.93,106.36a.26.26,0,0,0,.24.2h.3c0,.89,0,1.78,0,2.66h-.29a.22.22,0,0,0-.2.08c0-.52,0-1.19,0-1.52Z"/><path d="M56.08,110.46v.18L42,110.81v-.17c0-.34-.57-.32-.54,0,0,0,0,.11,0,.16l-4.15.05a.27.27,0,0,1-.28-.26c0-.61,0-1.22,0-1.83,0-.18,0-.36,0-.54,0-1.46,0-2.93,0-4.39a.23.23,0,0,1,.11-.21.29.29,0,0,1,.32,0,.22.22,0,0,1,.1.2c0,1.47,0,3,.05,4.42,0,.52-.22,1.75.28,2.08s1.87,0,2.39,0l9.3-.12,9-.11c.5,0,1.89.22,2.27-.14a.82.82,0,0,0,.16-.39.26.26,0,0,0,.24.2l.27,0v.54a.27.27,0,0,1-.26.27l-4.59.06a1.09,1.09,0,0,1,0-.18C56.64,110.1,56.1,110.12,56.08,110.46Z"/><path d="M61.21,99.54s0,0,0,0a24.86,24.86,0,0,0,.28-4.3c-.19,0-.4,0-.59-.06-.45,0-.91-.1-1.36-.12-2.09-.11-4.19-.08-6.28-.13l-12-.24c-.7,0-2.76-.38-3.29.25-.31.37-.22,1.25-.24,1.7,0,.71,0,1.43,0,2.14,0,0,0,.08,0,.12,0,.34-.52.36-.54,0,0,0,0-.11,0-.16,0-.52-.09-1.12-.1-1.73a4.87,4.87,0,0,1,0-.54,4.63,4.63,0,0,1,.28-1.62,1.32,1.32,0,0,1,1.29-.74,9.51,9.51,0,0,0,5.05.07l.62,0c2.87.06,5.76,0,8.65.07a7.5,7.5,0,0,0,5.53.2c1.1.07,2.21.13,3.3.25A.28.28,0,0,1,62,95c-.1,1.51-.19,3-.28,4.54a.45.45,0,0,1-.06.12C61.54,99.8,61.23,99.78,61.21,99.54Z"/><path d="M31.42,105.94a2.44,2.44,0,0,1,0-.27c.44,0,.9-.06,1.34,0H33c.34.05.21.57-.13.53h-.08a8.77,8.77,0,0,0-1.54,0A.18.18,0,0,0,31.42,105.94Z"/><path d="M32.63,99h-.06c-.38,0-.85-.11-1.26-.11,0-.06,0-.13,0-.2,0-.26-.4-.25-.41,0v.24c-.54.14-.41.42-.4,1,0,1.14,0,2.27,0,3.4,0,.51-.07,1.07,0,1.57.06.73,0,.66.53.76,0,.11,0,.22,0,.32a.19.19,0,0,0,.2.19l-1,0a.27.27,0,0,1-.27-.26c0-.15,0-.3,0-.45l.19-.11c.27-.14.08-.48-.18-.46.05-1.77.06-3.55,0-5.32l.08,0a.27.27,0,0,0,.26-.47L29.94,99v-.36a.25.25,0,0,1,.26-.27l2.34.1h.07C33,98.45,33,99,32.63,99Z"/><path d="M30,99.63l-.08,0-8.77-4.86,0-.28a.26.26,0,0,0-.52,0l-.88-.49c.51,5.24.68,10.53.82,15.79l.87-.45a.76.76,0,0,1,0,.15c0,.34.56.33.54,0,0-.13,0-.27,0-.41l7.85-4.08a.17.17,0,0,1,.1,0c.26,0,.45.32.18.46l-.19.11-9.46,4.91a.27.27,0,0,1-.41-.22c-.14-5.56-.3-11.16-.87-16.7a.27.27,0,0,1,.4-.24L29.94,99l.35.19A.27.27,0,0,1,30,99.63Z"/><path d="M21.18,102.74q-.27-4.14-.56-8.27s0,0,0,0a.26.26,0,0,1,.52,0l0,.28.54,8C21.74,103.06,21.21,103.08,21.18,102.74Z"/><path d="M21.76,104.64c.06,1.46.12,2.91.22,4.36,0,.14,0,.28,0,.41,0,.35-.51.36-.54,0a.76.76,0,0,0,0-.15c-.1-1.54-.17-3.08-.22-4.62A.27.27,0,0,1,21.76,104.64Z"/><path d="M58.5,94.45a7.81,7.81,0,0,0,1.22-.54,6.21,6.21,0,0,0,2.81-7.22,7.4,7.4,0,0,0-6.6-5,6.19,6.19,0,0,0-6.32,5,7,7,0,0,1-.21,2,6.6,6.6,0,0,0,2.22,4.73,6.32,6.32,0,0,0,1.35.8A7.5,7.5,0,0,0,58.5,94.45Zm-6.7-1.19c-3.09-2.59-3.19-8.7,1.43-10.77s10.29,2.37,9.19,7.34S54.9,95.84,51.8,93.26Z"/><path d="M59.79,89.19c.65-2.91-2.67-5.51-5.38-4.3a3.83,3.83,0,0,0-.84,6.31C55.39,92.72,59.15,92.11,59.79,89.19Zm-6,1.82a3.73,3.73,0,0,1-.67-4.65,3.51,3.51,0,0,1,5.34-.46A3.3,3.3,0,0,1,58.3,91,3.92,3.92,0,0,1,53.75,91Z"/><path d="M56.35,87.3a.78.78,0,0,0,.75-.83.87.87,0,0,0-.84-.8s0,0-.08,0,0,0-.07,0a.87.87,0,0,0-.63.92A.78.78,0,0,0,56.35,87.3Zm-.08-1.1h0a.32.32,0,0,1,.29.32.26.26,0,0,1-.28.24C55.9,86.78,56,86.27,56.27,86.2Z"/><path d="M56.91,88.8a.89.89,0,0,0,1.05.56.9.9,0,0,0,.73-1,1,1,0,0,0-1-.83.32.32,0,0,0-.14.08.3.3,0,0,0-.16,0A1,1,0,0,0,56.91,88.8Zm.72-.71s0,0,0,0h0c.5-.06.7.67.15.76S57.26,88.28,57.63,88.09Z"/><path d="M54.83,90.12a.87.87,0,0,0,1.73,0,.92.92,0,0,0-.68-1,.15.15,0,0,0-.13,0,.34.34,0,0,0-.2,0A.93.93,0,0,0,54.83,90.12Zm.87-.46h0l0,0a.34.34,0,0,1-.08.67C55.21,90.31,55.32,89.73,55.7,89.66Z"/><path d="M53.24,88.23a.85.85,0,0,0,1,.54.86.86,0,0,0,.75-.86.93.93,0,0,0-.73-.88.26.26,0,0,0-.3.17.23.23,0,0,0-.32-.06A1,1,0,0,0,53.24,88.23Zm.64-.63a.31.31,0,0,0,.09-.14.19.19,0,0,0,.12.09.35.35,0,1,1-.21,0Z"/><path d="M49.4,88.72a7,7,0,0,0,.21-2,7.53,7.53,0,0,0-.19-1.31,8.64,8.64,0,0,0-7.63-6.3c-7.13-.48-11,9-5.69,13.74a7.49,7.49,0,0,0,2.55,1.29,9.51,9.51,0,0,0,5.05.07,10,10,0,0,0,1.94-.72A7.27,7.27,0,0,0,49.4,88.72Zm-.2-.16c-1.3,5.85-9.27,7.08-12.91,4S33,82.36,38.39,79.92,50.5,82.71,49.2,88.56Z"/><path d="M39.62,82.53a4.8,4.8,0,0,0-1.31,7.84c2.26,1.89,7.19,1.12,8-2.5S43,81,39.62,82.53Zm5.1,1.27a4.1,4.1,0,0,1-.45,6.49,5.2,5.2,0,0,1-5.77-.11,4.6,4.6,0,0,1-.45-6.12A4.5,4.5,0,0,1,44.72,83.8Z"/><path d="M62.42,89.83c1.1-5-4.56-9.41-9.19-7.34s-4.52,8.18-1.43,10.77S61.32,94.81,62.42,89.83Zm-3.14,3.22c-.21.16-.42-.18-.21-.34a4,4,0,0,0,1.35-1.78c.09-.24.48-.15.39.09A4.4,4.4,0,0,1,59.28,93.05Zm1.53-3.36.08-.17c.11-.23.46,0,.35.19l-.08.18C61.06,90.12,60.7,89.93,60.81,89.69ZM53.57,91.2a3.83,3.83,0,0,1,.84-6.31c2.71-1.21,6,1.39,5.38,4.3S55.39,92.72,53.57,91.2Z"/><path d="M49.2,88.56c1.3-5.85-5.37-11.07-10.81-8.64s-5.74,9.64-2.1,12.68S47.9,94.41,49.2,88.56Zm-9.58-6C43,81,47.11,84.25,46.31,87.87s-5.74,4.39-8,2.5A4.8,4.8,0,0,1,39.62,82.53Zm7.53,7.53a4.67,4.67,0,0,1-3.27,2.63c-.25,0-.37-.33-.12-.39a4.29,4.29,0,0,0,3-2.43C46.91,89.63,47.26,89.83,47.15,90.06Zm.56-1.2-.07.18c-.09.24-.45,0-.35-.19l.07-.18C47.46,88.43,47.81,88.63,47.71,88.86Z"/><path d="M42.6,84.4a1,1,0,0,0-1-1,.21.21,0,0,0-.21.15.84.84,0,0,0-.56.5.91.91,0,0,0,.62,1.16A.92.92,0,0,0,42.6,84.4Zm-.79-.35s.06,0,.1,0a.38.38,0,0,1,.16.33.4.4,0,0,1-.46.32C41.15,84.57,41.38,83.87,41.81,84.05Z"/><path d="M40.28,85.55a.94.94,0,0,0-.88-.86s-.06,0-.09,0l-.09,0a.92.92,0,0,0-.67,1,.87.87,0,0,0,1.73-.17Zm-.54,0a.3.3,0,0,1-.31.29c-.46,0-.43-.58,0-.66h0A.39.39,0,0,1,39.74,85.6Z"/><path d="M38.9,87.41a1,1,0,0,0-.42,1.12.89.89,0,0,0,1.05.57.9.9,0,0,0,.72-.95,1,1,0,0,0-.94-.85.25.25,0,0,0-.2.09A.26.26,0,0,0,38.9,87.41Zm.28.46s0-.05,0-.07.05,0,.09,0a.37.37,0,0,1,.07.74C39,88.65,38.84,88.07,39.18,87.87Z"/><path d="M41.22,89.12a.82.82,0,0,0,.72.93.81.81,0,0,0,.94-.64.9.9,0,0,0-.58-1h0s0,0,0,0A.9.9,0,0,0,41.22,89.12Zm.9-.2h0s0,0,0,0a.31.31,0,0,1-.13.6c-.16,0-.32-.14-.3-.3A.36.36,0,0,1,42.12,88.92Z"/><path d="M43.28,87.39a.9.9,0,0,0,.57,1.11.87.87,0,0,0,1.07-.63.79.79,0,0,0-.29-.74.26.26,0,0,0-.19-.33A.94.94,0,0,0,43.28,87.39Zm.53.11a.35.35,0,0,1,.17-.15.29.29,0,0,0,.18.1.28.28,0,0,1,.2.39.32.32,0,0,1-.42.12A.37.37,0,0,1,43.81,87.5Z"/><path d="M44,84.47a.29.29,0,0,0-.1,0h0a.93.93,0,0,0-.88.91.88.88,0,0,0,1.76,0A1,1,0,0,0,44,84.47Zm-.09.57h0c.35.11.43.67,0,.68S43.46,85.05,43.88,85Z"/><path class="cls-4" d="M43.88,92.69c-.25,0-.37-.33-.12-.39a4.29,4.29,0,0,0,3-2.43c.11-.24.46,0,.35.19A4.67,4.67,0,0,1,43.88,92.69Z"/><path class="cls-4" d="M59.07,92.71a4,4,0,0,0,1.35-1.78c.09-.24.48-.15.39.09a4.4,4.4,0,0,1-1.53,2C59.07,93.21,58.86,92.87,59.07,92.71Z"/><path class="cls-4" d="M60.89,89.52c.11-.23.46,0,.35.19l-.08.18c-.1.23-.46,0-.35-.2Z"/><path class="cls-4" d="M47.64,89c-.09.24-.45,0-.35-.19l.07-.18c.1-.24.45,0,.35.19Z"/><path d="M38.18,101.74a1.31,1.31,0,0,0,1.71.47,1.28,1.28,0,0,0,.48-1.73,1.24,1.24,0,0,0-1.45-.47.22.22,0,0,0-.32-.05A1.38,1.38,0,0,0,38.18,101.74Zm.6-1.21a.27.27,0,0,0,.23,0,.69.69,0,0,1,.59,1.24C38.8,102.14,38.27,101.09,38.78,100.53Z"/><path d="M42.1,101.28a.78.78,0,0,0,1.56,0,.83.83,0,0,0-.6-.85.24.24,0,0,0-.19,0s-.09,0-.15,0A.83.83,0,0,0,42.1,101.28Zm.78-.34,0,0,0,0a.25.25,0,0,1-.06.49C42.53,101.43,42.59,101,42.88,100.94Z"/><path d="M39.91,96.22c6.65-.1,13.3.07,19.94.25a.2.2,0,0,1,.2.25,17.65,17.65,0,0,0-.15,2.72v0a.2.2,0,0,1-.4,0v0a16.7,16.7,0,0,1,.14-2.55q-4-.11-8-.18-3.42-.06-6.82-.08H41.64c-.24,0-1.32-.14-1.51,0a3.62,3.62,0,0,0,0,.93c0,.42,0,.84,0,1.26,0,.08,0,.16,0,.25a.2.2,0,0,1-.4,0V98.8l0-2.38A.2.2,0,0,1,39.91,96.22Z"/><path d="M59.29,108.25c-.47.07-.94.1-1.41.16a.14.14,0,0,0,0-.11l-.11-.19A2.55,2.55,0,0,0,59,107.9a1.75,1.75,0,0,0,.23-1.22c.15,0,.29-.14.18-.29l-.2-.3c0-.13,0-.26,0-.35s0-.46,0-.69c.17.12.44,0,.29-.24l-.28-.34,0-1v-.1c0-.26.41-.28.4,0v.1L59.48,108A.21.21,0,0,1,59.29,108.25Z"/><path d="M41,108.43l2,0c1.4,0,2.79.06,4.18.07,2.71,0,5.41,0,8.11-.23.63,0,1.26-.1,1.88-.17h.19c.06.11.13.21.19.33a102.3,102.3,0,0,1-14.54.41l-2,0c-.27,0-.79.12-1-.08s-.21-.77-.24-1a20.27,20.27,0,0,1-.14-4.12.66.66,0,0,1,0-.14c0-.26.42-.16.39.09v0a18.27,18.27,0,0,0,.19,4.43C40.27,108.58,40.43,108.41,41,108.43Z"/><path d="M54.26,111.9c.35,0,.7,0,1,0,.85-.06.75-.52.78-1.25v-.18c0-.34.56-.36.54,0a1.09,1.09,0,0,0,0,.18c0,.51-.07,1-.1,1.52a.28.28,0,0,1-.26.28c-.58,0-1.15,0-1.73,0l-.12-.38A.28.28,0,0,0,54.26,111.9Z"/><path d="M53,111.89c.34,0,.69,0,1,0a.25.25,0,0,0-.16.32l.07.22-3.49,0c0-.32-.48-.3-.52,0l-2.88,0,0-.34a.27.27,0,0,0-.13-.19l1.85,0C50.18,111.91,51.6,111.89,53,111.89Z"/><path d="M42,110.64v.17c0,.37,0,1,.11,1.17s1.86,0,2.25,0l2.26,0a.22.22,0,0,0-.09.21c0,.11,0,.22,0,.33l-2.94,0a.26.26,0,0,0-.51-.1l0,.11-1.22,0a.28.28,0,0,1-.28-.26c0-.5-.07-1-.12-1.51,0,0,0-.11,0-.16C41.4,110.32,41.93,110.3,42,110.64Z"/><path d="M46.68,114c0-.49-.09-1-.14-1.48,0-.11,0-.22,0-.33a.22.22,0,0,1,.09-.21.31.31,0,0,1,.32,0,.27.27,0,0,1,.13.19l0,.34c.63,5.15.88,10.36,1.25,15.54q.6,8.52,1.15,17.06c.07-7.46.13-14.92.26-22.38q.08-5.11.21-10.23s0,0,0,0c0-.3.51-.32.52,0h0c0,.48,0,1,0,1.45a.27.27,0,0,0-.33.38c.11.19.2.4.31.59-.28,11.22-.38,22.45-.47,33.68l0,3.46a.27.27,0,0,1-.53,0c-.7-10.91-1.41-21.82-2.26-32.72-.11-1.34-.21-2.69-.32-4,.11-.38.24-.76.35-1.14S46.82,113.73,46.68,114Z"/><path d="M50.45,113.92a.34.34,0,0,1,.13.09c2.64,4.51,4.57,9.54,6.66,14.32,2.38,5.41,4.69,10.84,7,16.28q-4.44-13.86-8.86-27.74c-.48-1.47-1-3-1.42-4.43l-.07-.22a.25.25,0,0,1,.16-.32.3.3,0,0,1,.21,0,.28.28,0,0,1,.14.16l.12.38Q59.79,128.91,65,145.37c.5,1.55,1,3.1,1.49,4.66.11.33-.38.47-.51.15-4.12-9.82-8.27-19.64-12.69-29.33-.92-2-1.83-4-2.9-6-.11-.19-.2-.4-.31-.59A.27.27,0,0,1,50.45,113.92Z"/><path d="M42,117.14c.36-1.53.71-3,1.07-4.57l0-.11a.26.26,0,0,1,.51.1s0,0,0,0l-7.8,33.29,0,.11c2.71-7.52,5.37-15.07,7.9-22.66,1-3.09,2-6.18,3-9.3,0,0,0,0,0,0,.14-.26.59-.14.49.17s-.24.76-.35,1.14c-3.26,10.8-7.12,21.44-10.94,32.05l-1.16,3.21c-.12.31-.6.21-.52-.13Q38.08,133.78,42,117.14Z"/><path d="M34.18,108.12a.2.2,0,0,1-.4,0V108c0-3.61-.09-7.22-.13-10.83v-.12a.2.2,0,0,1,.4,0v.09c0,3.65.09,7.31.13,11Z"/><path d="M31,106c0-.1,0-.21,0-.32q-.2-3.36-.1-6.72v-.24c0-.26.41-.27.41,0,0,.07,0,.14,0,.2q-.09,3.4.1,6.81a2.44,2.44,0,0,0,0,.27.18.18,0,0,1-.18.2h0A.19.19,0,0,1,31,106Z"/><path d="M59.17,104.47l.28.34c.15.19-.12.36-.29.24l0,0-1-1.25a.15.15,0,0,1,0-.22.22.22,0,0,1,.3,0h0Z"/><path d="M59.36,106.39c.11.15,0,.29-.18.29a.19.19,0,0,1-.16-.08l-2-2.88a.17.17,0,0,1,0-.15.21.21,0,0,1,.37-.06l0,.06,1.76,2.52Z"/><path d="M58.57,107.82a38,38,0,0,0-2.79-4.18s0,0,0-.06a.2.2,0,0,1,.36-.15s.07.1.11.15a36.13,36.13,0,0,1,2.68,4C59,107.83,58.7,108.05,58.57,107.82Z"/><path d="M57.88,108.3a.14.14,0,0,1,0,.11c0,.18-.25.29-.34.1,0,0,0,0,0-.05s-.13-.22-.19-.33a28.49,28.49,0,0,0-2.82-4.55l0,0c-.15-.21.19-.42.35-.22s.1.16.16.24a29.57,29.57,0,0,1,2.78,4.53Z"/><path d="M67.13,99.32a.2.2,0,0,1,.4,0h0l.12,3.72v0a.2.2,0,0,1-.4,0c0-.1,0-.2,0-.3,0-1.09-.07-2.18-.1-3.27Z"/><path d="M61,109.54a.27.27,0,0,1,0-.25.22.22,0,0,1,.2-.08h.29l1.17.08c0-.91,0-1.81-.05-2.72l-1.11,0h-.3a.26.26,0,0,1-.24-.2.49.49,0,0,1,0-.17.22.22,0,0,1,.23-.17h.31l1.36,0a.28.28,0,0,1,.28.26c0,1.09,0,2.18.06,3.26a.27.27,0,0,1-.26.28l-1.45-.09-.27,0A.26.26,0,0,1,61,109.54Z"/></g><g class="cls-5"><path class="cls-1" d="M96.09,115.54l-.19.13Z"/><path class="cls-1" d="M102.91,115.05a2.69,2.69,0,0,0-.16-.29A2.69,2.69,0,0,1,102.91,115.05Z"/><path class="cls-1" d="M127.11,105.78l-.3-.14v0Z"/><path class="cls-1" d="M126.65,107c0,.33-.1.67-.12,1C126.55,107.64,126.61,107.31,126.65,107Z"/><path class="cls-1" d="M95.62,85l-.12,0c0,.24-.1.46-.15.69C95.46,85.41,95.56,85.17,95.62,85Z"/><path class="cls-1" d="M105.53,84.21c-.14.1-.3.17-.45.26a3.25,3.25,0,0,0,.45-.25Z"/><path class="cls-1" d="M128.33,106.34s0,0,0-.07l-.47-.17.45.19S128.33,106.32,128.33,106.34Z"/><path class="cls-1" d="M117.54,109.93c-6.46-.3-12.94-.33-19.41-.26C104.6,109.6,111.08,109.63,117.54,109.93Z"/><path class="cls-1" d="M83.74,104.32l.39-.38v0Z"/><path class="cls-1" d="M81.08,107.63a5.69,5.69,0,0,1,.07-.71A5.88,5.88,0,0,0,81.08,107.63Z"/><path class="cls-1" d="M95.26,119.17h0a1.48,1.48,0,0,0,0-.21,2.14,2.14,0,0,0,.13.19h0c0-.06-.12-.13-.17-.2v.24Z"/><path class="cls-1" d="M99.8,114.53a2.27,2.27,0,0,0-.18.25A2.27,2.27,0,0,1,99.8,114.53Z"/><path class="cls-1" d="M99.51,115a1.25,1.25,0,0,0-.1.27A1.25,1.25,0,0,1,99.51,115Z"/><path class="cls-1" d="M98.31,118.89C99,117.7,98.43,116,97,116a1.67,1.67,0,0,0-.9,3s0,.08,0,.12c.46,0,.91,0,1.26-.07Z"/><path class="cls-1" d="M89.61,117.23a3.24,3.24,0,0,0-.18-.73A3.89,3.89,0,0,1,89.61,117.23Z"/><path class="cls-1" d="M81.08,108.13a0,0,0,0,1,0,0Z"/><path class="cls-1" d="M97.89,115.54a1.89,1.89,0,0,0-.21-.09A1.89,1.89,0,0,1,97.89,115.54Z"/><path class="cls-1" d="M99.54,116.69a1,1,0,0,0,.11.21A1.39,1.39,0,0,1,99.54,116.69Z"/><path class="cls-1" d="M95.07,116.69a1.3,1.3,0,0,0-.08.17A1.3,1.3,0,0,1,95.07,116.69Z"/><path class="cls-1" d="M102.33,117.13c.49-1,.17-2.49-1.09-2.58a1.27,1.27,0,0,0-.76,2.3.29.29,0,0,1,.11.36l1,0C101.83,117.14,102.08,117.13,102.33,117.13Z"/><path class="cls-1" d="M99.37,116.16c0,.08,0,.16,0,.23S99.39,116.24,99.37,116.16Z"/><path class="cls-1" d="M108.18,116.94a2,2,0,0,1-.12-.34A2,2,0,0,0,108.18,116.94Z"/><path class="cls-1" d="M101.61,113.93a2,2,0,0,0-.65-.05A2,2,0,0,1,101.61,113.93Z"/><path class="cls-1" d="M102.16,114.16a2.32,2.32,0,0,0-.36-.16A2.32,2.32,0,0,1,102.16,114.16Z"/><path class="cls-1" d="M83,111.27c-.12-.23-.24-.46-.37-.69C82.71,110.81,82.83,111,83,111.27Z"/><path class="cls-1" d="M84.15,113.89c-.09-.23-.19-.46-.29-.68C84,113.43,84.06,113.66,84.15,113.89Z"/><path class="cls-1" d="M85,116.51s0,0,0-.06S85,116.49,85,116.51Z"/><path class="cls-1" d="M88.63,119.28c.55-1.27.6-3.54-1.13-3.72-.93-.1-1.52.68-1.46,1.65a5.07,5.07,0,0,0,.88,2.16C87.49,119.31,88.06,119.3,88.63,119.28Z"/><path class="cls-1" d="M85.7,118.34l.2.48Z"/><path class="cls-1" d="M101,113.88a1.65,1.65,0,0,0-.56.15A1.72,1.72,0,0,1,101,113.88Z"/><path class="cls-1" d="M107.53,115.94c0,.07.11.13.15.2S107.58,116,107.53,115.94Z"/><path class="cls-1" d="M100,114.35a1.19,1.19,0,0,1,.29-.21A1.19,1.19,0,0,0,100,114.35Z"/><path class="cls-1" d="M94.9,87.44a31.33,31.33,0,0,1-5.21,9.73,73.66,73.66,0,0,1-5,6.09s0,.06,0,.11a33.2,33.2,0,0,1-.13,5.47c-.12.56-.28.47.06.59a2.24,2.24,0,0,0,.63-.05c1.13-.08,2.27-.13,3.4-.18,6.61-.25,13.24-.29,19.86-.2a124.51,124.51,0,0,1,17.26,1,25.09,25.09,0,0,1,.37-4.57s0,0,0,0a25.35,25.35,0,0,1-13.5-18.27s0,0-.09.05A113,113,0,0,1,94.9,87.44Zm20,15.93a173.56,173.56,0,0,0-20,1.61c-.3,0-.42-.45-.12-.49a175.84,175.84,0,0,1,20.1-1.63C115.21,102.85,115.2,103.36,114.9,103.37Z"/><path class="cls-1" d="M102.34,114.31a1.9,1.9,0,0,1,.25.24A1.9,1.9,0,0,0,102.34,114.31Z"/><path class="cls-1" d="M103.66,117.57s-.08,0-.11-.06l.13.12a2.43,2.43,0,0,1,0-.27A1.49,1.49,0,0,0,103.66,117.57Z"/><path class="cls-1" d="M103,117.19a.05.05,0,0,1,0,0l.1,0-.08,0Z"/><path class="cls-1" d="M99.88,117.32l.13,0-.15-.13s.06.09.11.12Z"/><path class="cls-1" d="M103.15,115.92c0,.11,0,.21,0,.32C103.16,116.13,103.16,116,103.15,115.92Z"/><path class="cls-1" d="M94.65,117.46a1.1,1.1,0,0,1,.21.22s0,0,0-.06h0A1.12,1.12,0,0,0,94.65,117.46Z"/><path class="cls-1" d="M99.21,117.52v.1l.14-.08-.12,0S99.21,117.54,99.21,117.52Z"/><path class="cls-1" d="M94.45,117.13c0,.07,0,.15,0,.22a0,0,0,0,1,0,0,1.86,1.86,0,0,1,.25.1,1.08,1.08,0,0,0-.24-.12C94.43,117.27,94.43,117.2,94.45,117.13Z"/><path class="cls-1" d="M98.39,115.88a1,1,0,0,1,.15.14A.66.66,0,0,0,98.39,115.88Z"/><path class="cls-1" d="M95.34,116.2l.15-.19Z"/><path class="cls-1" d="M108.56,117.52a1.82,1.82,0,0,1-.29-.38A1.82,1.82,0,0,0,108.56,117.52Z"/><path class="cls-1" d="M106.07,115.82c-1.56-.2-2.39,1.86-1.28,3a.29.29,0,0,1,0,.35h.08c.57,0,1.33-.12,2-.1C108,118,107.6,116,106.07,115.82Z"/><path class="cls-1" d="M108,116.73s0,.09,0,.14S108,116.78,108,116.73Z"/><path class="cls-1" d="M108.15,117.72a.43.43,0,0,1,0,0l.2-.07a.59.59,0,0,0-.19,0Z"/><path class="cls-1" d="M103.1,115.62a2.81,2.81,0,0,0-.08-.31C103.05,115.41,103.08,115.52,103.1,115.62Z"/><path class="cls-1" d="M92.1,114.38a1.65,1.65,0,0,0-.86,2.93s0,0,0,.06l.91,0a16.13,16.13,0,0,1,1.62-.09s0,0,0-.07C94.19,115.87,93.49,114.3,92.1,114.38Z"/><path class="cls-1" d="M103.91,116.48a2.38,2.38,0,0,1,.25-.44A2.38,2.38,0,0,0,103.91,116.48Z"/><path class="cls-1" d="M104.26,115.91a2.12,2.12,0,0,1,.44-.41A2.12,2.12,0,0,0,104.26,115.91Z"/><path class="cls-1" d="M103.7,117.17a2.91,2.91,0,0,1,.15-.58A2.91,2.91,0,0,0,103.7,117.17Z"/><path class="cls-1" d="M106.9,115.41l.2.14Z"/><path class="cls-1" d="M104.76,115.47a1.75,1.75,0,0,1,.5-.23A1.75,1.75,0,0,0,104.76,115.47Z"/><path class="cls-1" d="M105.42,115.2a1.79,1.79,0,0,1,.66,0A1.79,1.79,0,0,0,105.42,115.2Z"/><path class="cls-1" d="M99.34,115.84a2.42,2.42,0,0,1,0-.25A2.42,2.42,0,0,0,99.34,115.84Z"/><path class="cls-1" d="M85.62,119.49l0-.15a.86.86,0,0,1,0,.16l.63-.07-.13-.23.12.23Z"/><path class="cls-1" d="M89.62,117.5a2.81,2.81,0,0,1,0,.29l0,0a0,0,0,0,0,0,0C89.64,117.69,89.63,117.6,89.62,117.5Z"/><path class="cls-1" d="M85.53,116.23a2.78,2.78,0,0,0-.11.9,2.78,2.78,0,0,1,.11-.9,2,2,0,0,1,.75-1A2,2,0,0,0,85.53,116.23Z"/><path class="cls-1" d="M90.5,117.47l0,0,.06,0,0,0S90.5,117.46,90.5,117.47Z"/><path class="cls-1" d="M90.33,117.17c0-.09-.1-.17-.14-.26C90.23,117,90.28,117.08,90.33,117.17Z"/><path class="cls-1" d="M90.1,116.6a2.33,2.33,0,0,1,0-.28A2.33,2.33,0,0,0,90.1,116.6Z"/><path class="cls-1" d="M84.7,85.27a5.69,5.69,0,0,1-2.26-.3,1.75,1.75,0,0,1-1.16.6,22.3,22.3,0,0,1-3,.19q-.27,10.18-.32,20.37h0A92.82,92.82,0,0,0,84.7,85.27Z"/><path class="cls-1" d="M90,85.4a7.17,7.17,0,0,1-3-.73.38.38,0,0,1-.15,0,6.44,6.44,0,0,1-1.72.53,93.36,93.36,0,0,1-6.28,20A54.2,54.2,0,0,0,90,85.4Z"/><path class="cls-1" d="M89,97.06c2.76-3.65,5-7.53,5.92-12.21a8.62,8.62,0,0,1-1-.27.32.32,0,0,1-.38,0,7.41,7.41,0,0,1-3,.81,54.76,54.76,0,0,1-11.73,20.67l2-.11C84,103.62,86.56,100.26,89,97.06Z"/><path class="cls-1" d="M81.23,106.5h0a25.83,25.83,0,0,0,2-1.75A25.7,25.7,0,0,1,81.23,106.5Z"/><path class="cls-1" d="M78,106.93v1l2.45-.08a6.09,6.09,0,0,1,.11-1.2l-2.41.13-.08.1S78,106.91,78,106.93Z"/><path class="cls-1" d="M93.28,114a2.07,2.07,0,0,1,.25.15A2.07,2.07,0,0,0,93.28,114Z"/><path class="cls-1" d="M94.52,116.44a1.09,1.09,0,0,1,0,.18A1.09,1.09,0,0,0,94.52,116.44Z"/><path class="cls-1" d="M90,116c0-.1,0-.2,0-.3C90,115.82,90,115.92,90,116Z"/><path class="cls-1" d="M93.81,114.49c.06.06.12.11.17.17S93.87,114.55,93.81,114.49Z"/><path class="cls-1" d="M94.44,115.73c0,.06,0,.12,0,.18S94.45,115.79,94.44,115.73Z"/><path class="cls-1" d="M94.2,115.07c0,.06.07.11.1.18S94.23,115.13,94.2,115.07Z"/><path class="cls-1" d="M92.54,113.75a2.28,2.28,0,0,1,.45.11A2.28,2.28,0,0,0,92.54,113.75Z"/><path class="cls-1" d="M91.66,113.77a2.1,2.1,0,0,1,.7-.06A2.1,2.1,0,0,0,91.66,113.77Z"/><path class="cls-1" d="M90.09,115.44a2.81,2.81,0,0,1,.1-.31A2.81,2.81,0,0,0,90.09,115.44Z"/><path class="cls-1" d="M90.29,114.88a1.81,1.81,0,0,1,.19-.29A1.81,1.81,0,0,0,90.29,114.88Z"/><path class="cls-1" d="M91.08,114a2,2,0,0,1,.58-.24A2,2,0,0,0,91.08,114Z"/><path class="cls-1" d="M90.62,114.4a1.87,1.87,0,0,1,.3-.26A1.87,1.87,0,0,0,90.62,114.4Z"/><path class="cls-1" d="M85.47,117.43a2.63,2.63,0,0,0,.1.56A3.45,3.45,0,0,1,85.47,117.43Z"/><path class="cls-1" d="M103.09,116.87a2.84,2.84,0,0,0,.06-.31A2.84,2.84,0,0,1,103.09,116.87Z"/><path class="cls-1" d="M124.8,114.49c-.1.25-.19.51-.28.76C124.61,115,124.7,114.74,124.8,114.49Z"/><path class="cls-1" d="M127.09,110c-.15.24-.29.49-.43.74C126.8,110.47,126.94,110.22,127.09,110Z"/><path class="cls-1" d="M112.26,119.26h.09l-.11-.13Zm0,0v-.08l.07.07Z"/><path class="cls-1" d="M104.05,119.25l.24,0c-.06-.07-.1-.14-.15-.21A2.34,2.34,0,0,1,104.05,119.25Zm0,0a1.21,1.21,0,0,0,0-.18l.14.16Z"/><path class="cls-1" d="M125.85,112.2c-.13.25-.24.5-.36.75C125.61,112.7,125.72,112.45,125.85,112.2Z"/><path class="cls-1" d="M108.64,117.61l-.06,0h.06Z"/><path class="cls-1" d="M129.29,106.56l-.34.1v.71a.26.26,0,0,1,.18.09l1.8-.06c0-.39,0-.78,0-1.17a6,6,0,0,0-1.51.29A.33.33,0,0,1,129.29,106.56Z"/><path class="cls-1" d="M122.53,116.53a1.84,1.84,0,0,1,.41,0A1.89,1.89,0,0,0,122.53,116.53Z"/><path class="cls-1" d="M129.22,105.88a6.7,6.7,0,0,1,1.16-.26c-6.36-5.2-11-12.81-13.81-20.82a4,4,0,0,1-3.56,0C114.05,94.7,120.4,103,129.22,105.88Z"/><path class="cls-1" d="M122.76,84.46A70.76,70.76,0,0,0,131,102.08q.12-9,.26-18a8.28,8.28,0,0,1-6.87-.16.32.32,0,0,1-.48-.09s0,.09-.11.11a7.09,7.09,0,0,1-1.3.38A.22.22,0,0,1,122.76,84.46Z"/><path class="cls-1" d="M122,117.38a1.52,1.52,0,0,0-.47,1.72,8.31,8.31,0,0,1,1.86.13c.11-.49.24-1,.37-1.47A1.3,1.3,0,0,0,122,117.38Z"/><path class="cls-1" d="M123.23,116.64a1.91,1.91,0,0,1,.32.16A1.91,1.91,0,0,0,123.23,116.64Z"/><path class="cls-1" d="M123.83,117a.27.27,0,0,1,.07.08l.06-.21-.06.18Z"/><path class="cls-1" d="M128.38,108l-.35.54.36-.54a.45.45,0,0,1-.07-.18A.43.43,0,0,0,128.38,108Z"/><path class="cls-1" d="M131,105.47c0-.83,0-1.66,0-2.49a71.47,71.47,0,0,1-8.68-18.39.2.2,0,0,1,.12-.27,7,7,0,0,1-4.29-.59.33.33,0,0,1-.24.08s0,0,0,0a5.11,5.11,0,0,1-.92.72s0,0,.05.06C119.78,92.67,124.51,100.35,131,105.47Z"/><path class="cls-1" d="M108,116.36a2.07,2.07,0,0,1,0-.35A2.07,2.07,0,0,0,108,116.36Z"/><path class="cls-1" d="M109.72,114.64a1.44,1.44,0,0,0-.37,2.68.29.29,0,0,1,.19.24,12,12,0,0,0,1.7,0,.3.3,0,0,1,0-.18C111.86,116.13,111.14,114.43,109.72,114.64Z"/><path class="cls-1" d="M112.12,116.42a.18.18,0,0,1-.05.07.22.22,0,0,0,0-.08s0,.1,0,.15Z"/><path class="cls-1" d="M115.81,116.59l.1.21Z"/><path class="cls-1" d="M113.87,116.06A1.65,1.65,0,0,0,113,119a.23.23,0,0,1,.1.21c.42,0,.85,0,1.26,0h.78a2.34,2.34,0,0,0,.27-.49,1.15,1.15,0,0,1,.14-.6A1.75,1.75,0,0,0,113.87,116.06Z"/><path class="cls-1" d="M115.34,116l.17.19Z"/><path class="cls-1" d="M108.43,114.69a1.72,1.72,0,0,1,.27-.27A1.72,1.72,0,0,0,108.43,114.69Z"/><path class="cls-1" d="M114.69,115.54a1.43,1.43,0,0,1,.21.12A1.43,1.43,0,0,0,114.69,115.54Z"/><path class="cls-1" d="M108.14,115.2a2.48,2.48,0,0,1,.17-.32A2.48,2.48,0,0,0,108.14,115.2Z"/><path class="cls-1" d="M121.64,116.79a1.79,1.79,0,0,1,.65-.25A1.79,1.79,0,0,0,121.64,116.79Z"/><path class="cls-1" d="M112.3,116.18a2.29,2.29,0,0,1,.21-.23A2.29,2.29,0,0,0,112.3,116.18Z"/><path class="cls-1" d="M113.25,115.49a1.81,1.81,0,0,1,.63-.11A1.81,1.81,0,0,0,113.25,115.49Z"/><path class="cls-1" d="M110.26,114a1.8,1.8,0,0,1,.4.1A1.8,1.8,0,0,0,110.26,114Z"/><path class="cls-1" d="M111.32,114.51a2.25,2.25,0,0,1,.35.45A2.25,2.25,0,0,0,111.32,114.51Z"/><path class="cls-1" d="M109.42,114a2.1,2.1,0,0,1,.65-.06A2.1,2.1,0,0,0,109.42,114Z"/><path class="cls-1" d="M110.84,114.17a2.54,2.54,0,0,1,.34.23A2.54,2.54,0,0,0,110.84,114.17Z"/><path class="cls-1" d="M111.77,115.15l.15.35Z"/><path class="cls-1" d="M112.72,115.77a2.59,2.59,0,0,1,.33-.19A2.59,2.59,0,0,0,112.72,115.77Z"/><path class="cls-1" d="M108,115.77a1.86,1.86,0,0,1,.06-.34A1.86,1.86,0,0,0,108,115.77Z"/><path class="cls-1" d="M112,115.78l.06.33Z"/><path class="cls-1" d="M116.9,115.41a1.71,1.71,0,0,1,.14-.27A1.71,1.71,0,0,0,116.9,115.41Z"/><path class="cls-1" d="M120,114.71a2.83,2.83,0,0,1,.24.25A2.83,2.83,0,0,0,120,114.71Z"/><path class="cls-1" d="M120.39,115.18a2,2,0,0,1,.15.29A2,2,0,0,0,120.39,115.18Z"/><path class="cls-1" d="M120.74,116.36a1.43,1.43,0,0,1,0,.29A1.43,1.43,0,0,0,120.74,116.36Z"/><path class="cls-1" d="M117.18,114.93l.23-.24A2.61,2.61,0,0,0,117.18,114.93Z"/><path class="cls-1" d="M105.87,77.84l.21,5.88a5.94,5.94,0,0,0,5.63,0,.32.32,0,0,1,.13-.3,25.11,25.11,0,0,1-.19-5.34c0-.43.66-.43.62,0a24.45,24.45,0,0,0,.18,5.2.34.34,0,0,1-.06.27,3.52,3.52,0,0,0,5-.24.27.27,0,0,1,.16-.06l-.12-4.68a.31.31,0,1,1,.62,0l.12,4.45h0a6.35,6.35,0,0,0,5.37.2.23.23,0,0,1,.2,0,28.65,28.65,0,0,1,.17-4.9c0-.43.68-.43.62,0a30.1,30.1,0,0,0-.17,4.84,7.69,7.69,0,0,0,6.9.11v0l-.12-5.69a.31.31,0,1,1,.62,0c0,1.91.09,3.81.13,5.71a.32.32,0,0,1-.1.25c-.23,14.5-.38,29-.62,43.51a.31.31,0,1,1-.62,0q.15-9.5.27-19a46.34,46.34,0,0,0-1.78,19c0,.32-.43.31-.47,0a46.75,46.75,0,0,1,1.53-18.17,28.89,28.89,0,0,0-3.42,17.91c0,.32-.41.45-.45.13a29.46,29.46,0,0,1,3.76-18.84l-1,0a28.11,28.11,0,0,0-5.65,18.55c0,.43-.6.42-.62,0a27.6,27.6,0,0,1,.44-6.79c-1.22-.23-2.82-.25-3.33,1.24a6.68,6.68,0,0,0,0,1.84c0,1.23,0,2.45,0,3.68a.32.32,0,1,1-.63,0c0-1.1,0-2.2,0-3.3a9.48,9.48,0,0,1,.07-3,1.63,1.63,0,0,1,1-1l-.15-1.07c-.61-.09-1.23-.17-1.84-.21-.36,0-.71,0-1.07,0a1.82,1.82,0,0,0-.52,0c-.47,0-.7.32-.7,1a.32.32,0,0,1,.08.27,1.85,1.85,0,0,1,1.64,1.62,35.61,35.61,0,0,1,.3,5.57.32.32,0,1,1-.63,0c0-1.16-.13-2.31-.19-3.47a3.79,3.79,0,0,0-.51-2.32c-.53-.82-.59-.74-1.41-.78-.35,0-.71,0-1.07,0a6,6,0,0,0-1.34,0,2.88,2.88,0,0,0-1.78,1.22,6.92,6.92,0,0,0-.16,2.24c0,1.1,0,2.2,0,3.3a.32.32,0,1,1-.63,0c0-1.86-.33-4.13.19-5.93a1.92,1.92,0,0,1,1-1.27c0-.42-.09-.84-.13-1.27-1.21.16-3.18-.44-3.71.85l0,.07s0,0,0,.08a1.73,1.73,0,0,1,1.37,1.13,8.71,8.71,0,0,1,.12,2.84c0,1,0,2.11,0,3.16a.31.31,0,1,1-.62,0c0-1.34,0-2.69,0-4s-.42-2.43-1.69-2.43c-.67,0-1.34,0-2,0s-.74,0-1.47.56-.71.82-.76,1.76c0,.67,0,1.33-.07,2l-.12,2.47a.31.31,0,1,1-.62,0c.09-1.76,0-3.61.23-5.35a2,2,0,0,1,1.31-1.89.28.28,0,0,1,0-.29c.48-.82-.19-1.13-.88-1.23a.31.31,0,0,1-.31,0c-.27,0-.52,0-.67,0l-1,.1c-.12,0-1.65.11-1.13.75a.35.35,0,0,1,.07.23,1.41,1.41,0,0,1,1.11,1.38,48,48,0,0,1,.06,6.12.32.32,0,1,1-.63,0c0-1.32,0-2.64,0-4a7.93,7.93,0,0,0,0-2.34c-.26-.59-.88-.6-1.46-.54h0l-.62.08a12.89,12.89,0,0,0-2.24.23c-1.55.44-1.43,1.63-1.34,2.85s.24,2.26.29,3.41c0,.43-.61.42-.63,0,0-1-.15-2-.25-3a7.49,7.49,0,0,1,0-2.71,1.55,1.55,0,0,1,.94-1s0,0,0-.05c.09-1.49-.81-1.38-1.83-1.33-.36,0-3.34-.13-2.92,1.05a.28.28,0,0,1,0,.22h0a2.14,2.14,0,0,1,1.67.71c.62.79.47,2,.51,2.94s.17,2.19.19,3.29a.31.31,0,1,1-.62,0c0-1.52-.1-3.1-.23-4.62-.11-1.24-1.17-1.63-2.41-1.69h0a20,20,0,0,0-3.25.28,23.5,23.5,0,0,1-.15,6c-.07.43-.67.23-.6-.19,1-6.48-.79-12.24-4.33-17.44l-1,0a37.57,37.57,0,0,1,3.89,17.93.23.23,0,1,1-.46,0,37.22,37.22,0,0,0-3.89-17.81s0-.07,0-.11h-.23a47.79,47.79,0,0,1,1.16,17.55c0,.32-.51.32-.47,0a47.31,47.31,0,0,0-1.17-17.54H78q0,9.22.06,18.46a.31.31,0,1,1-.62,0c-.14-13.76-.12-27.53.25-41.3l-.54,0a.33.33,0,0,1-.31-.34A68.22,68.22,0,0,1,77.4,78c0-.43.68-.43.62,0a70.25,70.25,0,0,0-.54,7.09H78a.24.24,0,0,1,.12,0c1.34,0,3.36,0,3.92-.74a48.92,48.92,0,0,0-.15-5.68c0-.43.59-.42.62,0A46,46,0,0,1,82.63,84a.31.31,0,0,1,.13.34.11.11,0,0,1,0,.06,5.16,5.16,0,0,0,3.89-.3s.07,0,.11,0c.11-1.87.23-3.74.34-5.61a.32.32,0,1,1,.63,0c-.12,1.88-.23,3.75-.35,5.63a6.5,6.5,0,0,0,6-.12c0-2-.11-4-.16-6a.31.31,0,1,1,.62,0q.09,3,.16,5.9h0a8.52,8.52,0,0,0,5.93.1c0-1.83,0-3.67,0-5.5a.31.31,0,1,1,.62,0c0,1.9,0,3.81,0,5.71,0,0,0,0,0,0a5,5,0,0,0,4.89-.76s0,0,0,0l-.21-5.66A.32.32,0,1,1,105.87,77.84Z"/><path class="cls-1" d="M119.48,114.36a2,2,0,0,1,.35.19A2.37,2.37,0,0,0,119.48,114.36Z"/><path class="cls-1" d="M120.64,115.75a2.46,2.46,0,0,1,.07.29A2.46,2.46,0,0,0,120.64,115.75Z"/><path class="cls-1" d="M120.82,118a.77.77,0,0,0,0-.15l0,.16c0-.1.08-.19.11-.29C120.91,117.84,120.85,117.92,120.82,118Z"/><path class="cls-1" d="M120.5,117.58s0,0,0,0h0A0,0,0,0,1,120.5,117.58Z"/><path class="cls-1" d="M121.11,117.34a2,2,0,0,1,.53-.55A2,2,0,0,0,121.11,117.34Z"/><path class="cls-1" d="M119.3,114.28a1.91,1.91,0,0,0-.64-.11,2.28,2.28,0,0,0-.59.11,2.28,2.28,0,0,1,.59-.11A1.91,1.91,0,0,1,119.3,114.28Z"/><path class="cls-1" d="M120.7,117a2.76,2.76,0,0,1-.08.27A2.76,2.76,0,0,0,120.7,117Z"/><path class="cls-1" d="M118.88,114.87a1.34,1.34,0,0,0-1.1,2.31.29.29,0,0,1,.09.16H118c.58,0,1.16.12,1.74.19A1.66,1.66,0,0,0,118.88,114.87Z"/><path class="cls-1" d="M117.57,114.54a2.11,2.11,0,0,1,.33-.18A2.11,2.11,0,0,0,117.57,114.54Z"/><path class="cls-1" d="M117.05,117.32a2.52,2.52,0,0,0-.48.05,2.63,2.63,0,0,1,.49-.05l0,0Z"/><path class="cls-1" d="M116.92,117c0-.09-.09-.18-.12-.27A1.59,1.59,0,0,0,116.92,117Z"/><path class="cls-1" d="M116.76,115.94a1.5,1.5,0,0,1,.06-.29A1.5,1.5,0,0,0,116.76,115.94Z"/><path class="cls-1" d="M116.76,116.49a1.33,1.33,0,0,1,0-.28A1.41,1.41,0,0,0,116.76,116.49Z"/><path class="cls-1" d="M116.07,117.39l0,.13a1.29,1.29,0,0,1,.21-.07,1.17,1.17,0,0,0-.2.06Z"/><path class="cls-1" d="M108.85,114.29a1.77,1.77,0,0,1,.57-.27A1.77,1.77,0,0,0,108.85,114.29Z"/><path d="M82.74,84.36a.11.11,0,0,0,0-.06.31.31,0,0,0-.13-.34v.37Z"/><path d="M78,85.12h-.48A70.25,70.25,0,0,1,78,78c.06-.43-.57-.43-.62,0a68.22,68.22,0,0,0-.56,7.43.33.33,0,0,0,.31.34l.54,0c0-.11,0-.23,0-.35A.3.3,0,0,1,78,85.12Z"/><path d="M78.33,85.43c0,.11,0,.22,0,.33a22.3,22.3,0,0,0,3-.19,1.75,1.75,0,0,0,1.16-.6l-.21,0a.36.36,0,0,1-.23-.33,1.47,1.47,0,0,0,0-.21c-.56.79-2.58.77-3.92.74A.3.3,0,0,1,78.33,85.43Z"/><path d="M82.23,84.92l.21,0a5.69,5.69,0,0,0,2.26.3c0-.15.07-.3.1-.45.06-.32.51-.18.45.14a1.89,1.89,0,0,0,0,.23,6.44,6.44,0,0,0,1.72-.53.28.28,0,0,1-.2-.3c0-.1,0-.2,0-.3s-.07,0-.11,0a5.16,5.16,0,0,1-3.89.3l-.11,0V84a46,46,0,0,0-.16-5.25c0-.43-.66-.44-.62,0A48.92,48.92,0,0,1,82,84.38a1.47,1.47,0,0,1,0,.21A.36.36,0,0,0,82.23,84.92Z"/><path d="M86.92,84.66a.38.38,0,0,0,.15,0l-.13,0c-.37-.18,0-.76.32-.58l.1,0c.12-1.88.23-3.75.35-5.63a.32.32,0,1,0-.63,0c-.11,1.87-.23,3.74-.34,5.61,0,.1,0,.2,0,.3A.28.28,0,0,0,86.92,84.66Z"/><path d="M86.94,84.62l.13,0a7.17,7.17,0,0,0,3,.73,2.09,2.09,0,0,0,.08-.23.24.24,0,1,1,.45.14.49.49,0,0,1,0,.11,7.41,7.41,0,0,0,3-.81.31.31,0,0,1-.16-.27V84a6.5,6.5,0,0,1-6,.12l-.1,0C86.9,83.86,86.57,84.44,86.94,84.62Z"/><path d="M93.55,84.61a.32.32,0,0,0,.38,0l-.09,0c-.38-.14-.21-.78.16-.65Q93.93,81,93.84,78a.31.31,0,1,0-.62,0c0,2,.11,4,.16,6v.38A.31.31,0,0,0,93.55,84.61Z"/><path d="M93.84,84.55l.09,0a8.62,8.62,0,0,0,1,.27,2.47,2.47,0,0,0,.06-.29c.08-.42.68-.23.6.19,0,.09,0,.18,0,.26l.12,0,0-.13a22,22,0,0,0,4.2-.31.41.41,0,0,1,.08-.36,0,0,0,0,1,0,0V84A8.52,8.52,0,0,1,94,83.9h0C93.63,83.77,93.46,84.41,93.84,84.55Z"/><path d="M100,84.23a.24.24,0,0,1,.28-.07,3,3,0,0,0,.32.1s0,0,0,0c0-1.9,0-3.81,0-5.71a.31.31,0,1,0-.62,0c0,1.83,0,3.67,0,5.5v.21A0,0,0,0,0,100,84.23Z"/><path d="M100.23,84.16a.24.24,0,0,0-.28.07.41.41,0,0,0-.08.36,2,2,0,0,0,.27-.1,6.22,6.22,0,0,0,4.94,0c.15-.09.31-.16.45-.26h0a.31.31,0,0,1-.05-.49,1.48,1.48,0,0,1,0-.21s0,0,0,0a5,5,0,0,1-4.89.76A3,3,0,0,1,100.23,84.16Z"/><path d="M105.53,84.22h0Z"/><path d="M105.46,83.7a.27.27,0,0,1,.37-.09,2.72,2.72,0,0,0,.25.11l-.21-5.88a.32.32,0,1,0-.63,0l.21,5.66A1.48,1.48,0,0,0,105.46,83.7Z"/><path d="M105.83,83.61a.27.27,0,0,0-.37.09.31.31,0,0,0,.05.49h0c.08,0,.16-.08.23-.13,1,1.18,5.18.4,6.36.15-.12-.1-.24-.18-.35-.29a.27.27,0,0,1-.08-.18,5.94,5.94,0,0,1-5.63,0A2.72,2.72,0,0,1,105.83,83.61Z"/><path d="M112.23,83.47l.16.13a.34.34,0,0,0,.06-.27,24.45,24.45,0,0,1-.18-5.2c0-.44-.59-.44-.62,0a25.11,25.11,0,0,0,.19,5.34A.29.29,0,0,1,112.23,83.47Z"/><path d="M112.14,84.23l.26-.06a.33.33,0,0,1,.56.22c0,.13,0,.26.05.4a4,4,0,0,0,3.56,0s0,0,0,0a.23.23,0,0,1,.41-.19,5.11,5.11,0,0,0,.92-.72s0,0,0,0a.33.33,0,0,1-.3-.32V83.3a.27.27,0,0,0-.16.06,3.52,3.52,0,0,1-5,.24l-.16-.13a.29.29,0,0,0-.39,0,.32.32,0,0,0-.13.3.27.27,0,0,0,.08.18C111.9,84.05,112,84.13,112.14,84.23Z"/><path d="M117.9,83.81a.33.33,0,0,0,.24-.08l-.2-.08c-.34-.18-.06-.69.28-.58l-.12-4.45a.31.31,0,1,0-.62,0l.12,4.68v.19A.33.33,0,0,0,117.9,83.81Z"/><path d="M117.94,83.65l.2.08a7,7,0,0,0,4.29.59l.07,0a7.09,7.09,0,0,0,1.3-.38c.06,0,.08-.07.11-.11a.41.41,0,0,1-.07-.15v-.08a.31.31,0,0,1,0-.28v0a.23.23,0,0,0-.2,0,6.35,6.35,0,0,1-5.37-.2h0C117.88,83,117.6,83.47,117.94,83.65Z"/><path d="M124.39,83.9c-.15-.07-.3-.1-.44-.18s-.08-.09-.11-.14v.08a.41.41,0,0,0,.07.15A.32.32,0,0,0,124.39,83.9Z"/><path d="M124.27,83.14l.19.08a30.1,30.1,0,0,1,.17-4.84c.06-.43-.57-.43-.62,0a28.65,28.65,0,0,0-.17,4.9v0A.31.31,0,0,1,124.27,83.14Z"/><path d="M123.84,83.3a.31.31,0,0,0,0,.28s0,.11.11.14.29.11.44.18a8.28,8.28,0,0,0,6.87.16c0-.18,0-.35,0-.52a.29.29,0,0,1,.09-.21,7.69,7.69,0,0,1-6.9-.11l-.19-.08A.31.31,0,0,0,123.84,83.3Z"/><path d="M131.89,83.55v0a.32.32,0,0,0,.1-.25c0-1.9-.08-3.8-.13-5.71a.31.31,0,1,0-.62,0l.12,5.69A.31.31,0,0,1,131.89,83.55Z"/><path d="M78,108h0v-1a.23.23,0,0,1-.32-.19.35.35,0,0,1,.19-.6H78q.06-10.18.32-20.37c0-.11,0-.22,0-.33a.3.3,0,0,0-.25-.31.24.24,0,0,0-.12,0,.3.3,0,0,0-.26.3c0,.12,0,.24,0,.35-.37,13.77-.39,27.54-.25,41.3a.31.31,0,1,0,.62,0Q78,117.86,78,108.62h-.06C77.54,108.63,77.55,108,78,108Z"/><path d="M81.08,108.13h0a4,4,0,0,1,0-.49,5.88,5.88,0,0,1,.07-.71c0-.13,0-.27.07-.41h0l-.13.1c-.33.25-.64-.34-.31-.58l0,0-2,.11c-.22.24-.42.48-.64.71l2.41-.13a6.09,6.09,0,0,0-.11,1.2L78,108h0c-.4,0-.41.68,0,.67h.47a.36.36,0,0,0,0-.1.24.24,0,1,1,.46-.13,2.07,2.07,0,0,0,0,.22h.23c0-.23.29-.39.41-.14l.06.13,1,0,0-.08C80.31,108.13,80.84,107.81,81.08,108.13Z"/><path d="M77.74,106.54c.07-.08.14-.17.22-.25s0,0,0,0l.06-.15h-.15a.35.35,0,0,0-.19.6A.22.22,0,0,1,77.74,106.54Z"/><path d="M83.74,104.32l.39-.43c0-.17,0-.35,0-.52a.3.3,0,0,1,.58-.11,73.66,73.66,0,0,0,5-6.09,31.33,31.33,0,0,0,5.21-9.73h0c-.4,0-.39-.7,0-.68H95c.1-.34.25-.73.38-1.07s.1-.45.15-.69c0-.08,0-.17,0-.26.08-.42-.52-.61-.6-.19a2.47,2.47,0,0,1-.06.29C94,89.53,91.73,93.41,89,97.06c-2.41,3.2-5,6.56-8.13,8.92l0,0c-.33.24,0,.83.31.58l.13-.1a25.7,25.7,0,0,0,2-1.74Z"/><path d="M85.43,119.51h.17a.86.86,0,0,0,0-.16,22.84,22.84,0,0,0-.56-2.83s0,0,0-.06a23.32,23.32,0,0,0-.86-2.56c-.09-.23-.19-.46-.29-.68-.27-.66-.58-1.3-.91-1.94-.12-.23-.24-.46-.37-.69-.45-.83-1-1.64-1.49-2.44a0,0,0,0,0,0,0c-.24-.32-.77,0-.53.34l0,.08c3.54,5.2,5.34,11,4.33,17.44-.07.42.53.62.6.19a23.5,23.5,0,0,0,.15-6l-.25,0C85,120.23,85,119.55,85.43,119.51Z"/><path d="M129.43,106.52l-.14,0A.33.33,0,0,0,129.43,106.52Z"/><path d="M113.22,86.7l-.3,0a.38.38,0,0,1-.19.38,25.35,25.35,0,0,0,13.5,18.27c.1-.39.67-.21.59.21a.13.13,0,0,0,0,.06l.3.14.78.32.47.17a.28.28,0,0,1,.36-.22s0,0,0,0l.47-.13C120.4,103,114.05,94.7,113,84.79c0-.14,0-.27-.05-.4a.33.33,0,0,0-.56-.22h.07Z"/><path d="M131.26,84.06q-.15,9-.26,18c.16.25.3.51.47.75a.24.24,0,0,1-.41.26L131,103c0,.83,0,1.66,0,2.49l.06,0,0,0,.16,0c.4,0,.39.67,0,.68l-.24,0c0,.39,0,.78,0,1.17h0c.4,0,.39.66,0,.67h0v.05q-.13,9.48-.27,19a.31.31,0,1,0,.62,0c.24-14.5.39-29,.62-43.51v0a.31.31,0,0,0-.53-.24v0a.29.29,0,0,0-.09.21C131.26,83.71,131.26,83.88,131.26,84.06Z"/><path d="M130.77,106l-.39-.34a6.7,6.7,0,0,0-1.16.26l-.47.13s0,0,0,0a.29.29,0,0,1,.23.3v.31l.34-.1.14,0a6,6,0,0,1,1.51-.29l.24,0c.4,0,.41-.69,0-.68l-.16,0C131.23,105.75,131,106.15,130.77,106Z"/><path d="M130.54,107.76a.23.23,0,0,1,.43.16.83.83,0,0,1,0,.15h0c.4,0,.41-.69,0-.67h0l-1.8.06a.39.39,0,0,1,.05.51l-.12.17,1,0c.06-.08.1-.18.15-.26A.21.21,0,0,1,130.54,107.76Z"/><path d="M129,106.35a.29.29,0,0,0-.23-.3.28.28,0,0,0-.36.22s0,0,0,.07c0,.5,0,1,0,1.48a.45.45,0,0,0,.07.18c.12-.17.23-.35.35-.51a.26.26,0,0,1,.21-.12v-1Z"/><path d="M129.13,107.46a.24.24,0,0,0-.39,0c-.12.16-.23.34-.35.51l-.36.54c-.33.48-.65.95-.94,1.44-.15.24-.29.49-.43.74-.28.49-.56,1-.81,1.48-.13.25-.24.5-.36.75-.24.51-.48,1-.69,1.54-.1.25-.19.51-.28.76-.2.53-.39,1.06-.56,1.6l-.06.21a2,2,0,0,1,.38.39c.24.36-.31.69-.54.34l0,0c-.13.49-.26,1-.37,1.47l.27,0c.39.09.22.74-.18.65l-.2,0a27.6,27.6,0,0,0-.44,6.79c0,.43.65.44.62,0a28.11,28.11,0,0,1,5.65-18.55l.12-.17A.39.39,0,0,0,129.13,107.46Z"/><path d="M94.86,87.44h0a113,113,0,0,0,17.74-.29s.06,0,.09-.05a.38.38,0,0,0,.19-.38c-1.9.13-13.07.84-18.06.38l.11-.33h-.1C94.47,86.74,94.46,87.41,94.86,87.44Z"/><path d="M125.85,110a124.51,124.51,0,0,0-17.26-1c-6.62-.09-13.25,0-19.86.2-1.13,0-2.27.1-3.4.18a2.24,2.24,0,0,1-.63.05c-.34-.12-.18,0-.06-.59a33.2,33.2,0,0,0,.13-5.47c0-.05,0-.07,0-.11a.3.3,0,0,0-.58.11c0,.17,0,.35,0,.52v0h0q-.06,2.93-.14,5.86c0,.17.14.36.31.34,4.58-.46,9.23-.42,13.83-.47,6.47-.07,13,0,19.41.26a76.08,76.08,0,0,1,8.53.73.32.32,0,0,0,.4-.32c0-.8,0-1.58.06-2.36,0-.34.08-.68.12-1s.07-.87.15-1.32h0v0a.13.13,0,0,1,0-.06c.08-.42-.49-.6-.59-.21,0,0,0,0,0,0A25.09,25.09,0,0,0,125.85,110Z"/><path d="M88.59,119.37a.36.36,0,0,1,0-.09c-.57,0-1.14,0-1.71.09h0a.32.32,0,1,1-.54.33c0-.08-.1-.18-.15-.27l-.63.07h-.17c-.4,0-.41.72,0,.68l.25,0a20,20,0,0,1,3.25-.28A.35.35,0,0,1,88.59,119.37Z"/><path d="M89.3,119.29c-.06.14-.11.29-.17.43a.26.26,0,0,1-.19.16c1.24.06,2.3.45,2.41,1.69.13,1.52.19,3.1.23,4.62a.31.31,0,1,0,.62,0c0-1.1-.14-2.19-.19-3.29s.11-2.15-.51-2.94a2.14,2.14,0,0,0-1.67-.71h0A.3.3,0,0,1,89.3,119.29Z"/><path d="M99,119.15,99,119a2.49,2.49,0,0,1-.2.4.34.34,0,0,1-.21.13c.58-.06,1.2,0,1.46.54a7.93,7.93,0,0,1,0,2.34c0,1.33,0,2.65,0,4a.32.32,0,1,0,.63,0,48,48,0,0,0-.06-6.12,1.41,1.41,0,0,0-1.11-1.38C99.54,119.18,99.23,119.41,99,119.15Z"/><path d="M98.21,119.07s.06-.12.1-.18l-.92.11c-.35,0-.8,0-1.26.07a.31.31,0,0,1-.5.35,1.61,1.61,0,0,1-.24-.28h-.07l-.06,0h0v.15a.31.31,0,0,1-.61,0,1.55,1.55,0,0,0-.94,1,7.49,7.49,0,0,0,0,2.71c.1,1,.21,2,.25,3,0,.43.65.44.63,0,0-1.15-.19-2.27-.29-3.41s-.21-2.41,1.34-2.85a12.89,12.89,0,0,1,2.24-.23l.62-.08A.31.31,0,0,1,98.21,119.07Z"/><path d="M107.55,119.38a3.25,3.25,0,0,1-.23.29c-.3.29-.74-.19-.43-.48,0,0,0-.08.08-.11-.72,0-1.48.08-2,.1h-.08c-.09.19-.31.31-.49.12a.24.24,0,0,1-.06-.08l-.24,0a1.67,1.67,0,0,1-.08.2.3.3,0,0,1-.55-.06,2,2,0,0,0-1.31,1.89c-.23,1.74-.14,3.59-.23,5.35a.31.31,0,1,0,.62,0l.12-2.47c0-.67,0-1.33.07-2,0-.94,0-1.16.76-1.76s.69-.53,1.47-.56,1.34,0,2,0c1.27,0,1.71,1.24,1.69,2.43s0,2.69,0,4a.31.31,0,1,0,.62,0c0-1,0-2.11,0-3.16a8.71,8.71,0,0,0-.12-2.84,1.73,1.73,0,0,0-1.37-1.13h0A.28.28,0,0,1,107.55,119.38Z"/><path d="M115.65,119.53h0c-.06.09-.1.19-.17.28-.27.33-.7-.16-.44-.48a.47.47,0,0,0,.06-.09h-.78c-.41,0-.84,0-1.26,0a.34.34,0,0,1-.55.26c-.06-.06-.1-.14-.16-.2h-.09l0,.32c0,.43-.58.41-.62,0l0-.13a1.92,1.92,0,0,0-1,1.27c-.52,1.8-.23,4.07-.19,5.93a.32.32,0,1,0,.63,0c0-1.1-.08-2.2,0-3.3a6.92,6.92,0,0,1,.16-2.24,2.88,2.88,0,0,1,1.78-1.22,6,6,0,0,1,1.34,0c.36,0,.72,0,1.07,0,.82,0,.88,0,1.41.78a3.79,3.79,0,0,1,.51,2.32c.06,1.16.17,2.31.19,3.47a.32.32,0,1,0,.63,0,35.61,35.61,0,0,0-.3-5.57,1.85,1.85,0,0,0-1.64-1.62C116.14,119.56,115.86,119.75,115.65,119.53Z"/><path d="M123.61,119.28l-.27,0a8.31,8.31,0,0,0-1.86-.13,1.29,1.29,0,0,0,.06.21c.19.38-.35.72-.54.33a1.29,1.29,0,0,1-.07-.21c-.14.21-.5.24-.54-.09h0a1.63,1.63,0,0,0-1,1,9.48,9.48,0,0,0-.07,3c0,1.1,0,2.2,0,3.3a.32.32,0,1,0,.63,0c0-1.23,0-2.45,0-3.68a6.68,6.68,0,0,1,0-1.84c.51-1.49,2.11-1.47,3.33-1.24l.2,0C123.83,120,124,119.37,123.61,119.28Z"/><path d="M89.3,119.29s-.06,0-.07-.08a1.07,1.07,0,0,1,.39-1.42,2.81,2.81,0,0,0,0-.29,2.44,2.44,0,0,0,0-.27,3.89,3.89,0,0,0-.18-.73,2.34,2.34,0,0,0-2-1.63,1.89,1.89,0,0,0-1.17.33,2,2,0,0,0-.75,1,2.78,2.78,0,0,0-.11.9,1.57,1.57,0,0,0,0,.3,3.45,3.45,0,0,0,.1.56c0,.12.09.24.13.35l.2.48c.06.13.13.25.2.38l.13.23c0,.09.1.19.15.27a.32.32,0,1,0,.54-.33h0a5.07,5.07,0,0,1-.88-2.16c-.06-1,.53-1.75,1.46-1.65,1.73.18,1.68,2.45,1.13,3.72a.4.4,0,0,0,.29.6h0a.26.26,0,0,0,.19-.16C89.19,119.58,89.24,119.43,89.3,119.29Z"/><path d="M99,119a1.06,1.06,0,0,1,.14-1.32s.09,0,.12-.08v-.1a2.68,2.68,0,0,0-.67-1.5,1,1,0,0,0-.15-.14,2.1,2.1,0,0,0-.5-.34,1.89,1.89,0,0,0-.21-.09,2.14,2.14,0,0,0-.85-.13,2,2,0,0,0-.74.22l-.19.13a2.25,2.25,0,0,0-.41.34l-.15.19a2.34,2.34,0,0,0-.27.49,1.3,1.3,0,0,0-.08.17,2.83,2.83,0,0,0-.14.76s0,0,0,.06a2,2,0,0,1,.36,1.26c0,.07.12.14.17.2a1.61,1.61,0,0,0,.24.28.31.31,0,0,0,.5-.35s0-.08,0-.12a1.67,1.67,0,0,1,.9-3c1.45,0,2,1.71,1.33,2.9,0,.06-.06.13-.1.18a.31.31,0,0,0,.29.48h0a.34.34,0,0,0,.21-.13A2.49,2.49,0,0,0,99,119Z"/><path d="M108,116.87c0-.05,0-.09,0-.14a3,3,0,0,0-.3-.59c0-.07-.1-.13-.15-.2a2.3,2.3,0,0,0-.43-.39l-.2-.14a2.19,2.19,0,0,0-.82-.26,1.79,1.79,0,0,0-.66,0l-.16,0a1.75,1.75,0,0,0-.5.23s0,0-.06,0a2.12,2.12,0,0,0-.44.41l-.1.13a2.38,2.38,0,0,0-.25.44l-.06.11a2.91,2.91,0,0,0-.15.58,1.37,1.37,0,0,0,0,.19,2.43,2.43,0,0,0,0,.27c0,.05.12.08.16.14a1.45,1.45,0,0,1,.3,1.24c0,.07.09.14.15.21a.24.24,0,0,0,.06.08c.18.19.4.07.49-.12a.29.29,0,0,0,0-.35c-1.11-1.15-.28-3.21,1.28-3s1.88,2.18.9,3.26c0,0,0,.08-.08.11-.31.29.13.77.43.48a3.25,3.25,0,0,0,.23-.29.32.32,0,0,1-.42-.4,1.69,1.69,0,0,1,1-1.21.43.43,0,0,0,0,0A3.06,3.06,0,0,0,108,116.87Z"/><path d="M107.81,119l0,.07Z"/><path d="M115.91,116.8l-.1-.21a3.41,3.41,0,0,0-.3-.44l-.17-.19a2.28,2.28,0,0,0-.44-.3,1.43,1.43,0,0,0-.21-.12,2.29,2.29,0,0,0-.81-.16,1.81,1.81,0,0,0-.63.11,1.76,1.76,0,0,0-.2.09,2.59,2.59,0,0,0-.33.19,1.68,1.68,0,0,0-.21.18,2.29,2.29,0,0,0-.21.23l-.18.24-.06.14a3.08,3.08,0,0,1-.19.93.37.37,0,0,1,.23.3l.14,1.33.11.13c.06.06.1.14.16.2a.34.34,0,0,0,.55-.26.23.23,0,0,0-.1-.21,1.65,1.65,0,0,1,.91-2.92,1.75,1.75,0,0,1,1.64,2.08,1.29,1.29,0,0,1,.58-.62h0l0-.13A3,3,0,0,0,115.91,116.8Z"/><path d="M115,119.32c-.26.32.17.81.44.48.07-.09.11-.19.17-.28a1.17,1.17,0,0,1-.28-.78,2.34,2.34,0,0,1-.27.49A.47.47,0,0,1,115,119.32Z"/><path d="M123.55,116.8a1.91,1.91,0,0,0-.32-.16l-.29-.08a1.84,1.84,0,0,0-.41,0h-.24a1.79,1.79,0,0,0-.65.25,2,2,0,0,0-.53.55,2.4,2.4,0,0,0-.17.4c0,.1-.09.19-.11.29,0,.38.11.76.16,1.14a.38.38,0,0,1-.06.26,1.29,1.29,0,0,0,.07.21c.19.39.73,0,.54-.33a1.29,1.29,0,0,1-.06-.21,1.52,1.52,0,0,1,.47-1.72,1.3,1.3,0,0,1,1.76.38l0,0c.23.35.78,0,.54-.34a2,2,0,0,0-.38-.39.27.27,0,0,0-.07-.08A2.68,2.68,0,0,0,123.55,116.8Z"/><path d="M95.22,119.33v-.39a2,2,0,0,0-.36-1.26,1.1,1.1,0,0,0-.21-.22,1.86,1.86,0,0,0-.25-.1.3.3,0,0,1-.59-.12,16.13,16.13,0,0,0-1.62.09l-.91,0c.23.27,0,.75-.36.52a2,2,0,0,1-.4-.42l-.06,0a2.76,2.76,0,0,0-.81.28l0,0a1.07,1.07,0,0,0-.39,1.42s0,.05.07.08a.3.3,0,0,0,.52,0,.28.28,0,0,0,0-.22c-.42-1.18,2.56-1,2.92-1.05,1,0,1.92-.16,1.83,1.33,0,0,0,0,0,.05A.31.31,0,0,0,95.22,119.33Z"/><path d="M102.18,117.42a2.64,2.64,0,0,0,.15-.29c-.25,0-.5,0-.74,0l-1,0c0,.2-.23.36-.43.22a1,1,0,0,1-.15-.14l-.13,0a1.79,1.79,0,0,0-.53.22l-.14.08s-.09,0-.12.08A1.06,1.06,0,0,0,99,119l.08.13c.2.26.51,0,.52-.24a.35.35,0,0,0-.07-.23c-.52-.64,1-.74,1.13-.75l1-.1c.15,0,.4,0,.67,0A.28.28,0,0,1,102.18,117.42Z"/><path d="M104,119.45a1.67,1.67,0,0,0,.08-.2,2.34,2.34,0,0,0,.09-.24,1.45,1.45,0,0,0-.3-1.24c0-.06-.11-.09-.16-.14l-.13-.12a1.77,1.77,0,0,0-.47-.25l-.1,0a2.69,2.69,0,0,1-.26.54.27.27,0,0,1-.16.1c.69.1,1.36.41.88,1.23a.28.28,0,0,0,0,.29A.3.3,0,0,0,104,119.45Z"/><path d="M112.29,119.58l0-.32,0-.14-.14-1.33a.37.37,0,0,0-.23-.3,2,2,0,0,1-.08.22c-.15.32-.53.13-.55-.17a12,12,0,0,1-1.7,0c0,.24-.1.52-.36.41a2,2,0,0,1-.53-.35h-.07l-.24.07-.2.07a1.69,1.69,0,0,0-1,1.21.32.32,0,0,0,.42.4.28.28,0,0,0,.18-.21h0s0,0,0-.08l0-.07c.53-1.29,2.5-.69,3.71-.85,0,.43.09.85.13,1.27l0,.13C111.71,120,112.34,120,112.29,119.58Z"/><path d="M120.93,119.43a.38.38,0,0,0,.06-.26c0-.38-.11-.76-.16-1.14l0-.16a.32.32,0,0,0-.3-.25h0l0,0a.3.3,0,0,1-.09.27l-.2.18c-.3.28-.71-.17-.43-.49a.56.56,0,0,0,0-.08c-.58-.07-1.16-.15-1.74-.19h-.17c.1.28-.15.63-.41.42a2,2,0,0,1-.4-.44,2.63,2.63,0,0,0-.49.05,1.12,1.12,0,0,0-.26.08,1.29,1.29,0,0,0-.21.07h0a1.29,1.29,0,0,0-.58.62,1.15,1.15,0,0,0-.14.6,1.17,1.17,0,0,0,.28.78h0c.21.22.49,0,.53-.21a.32.32,0,0,0-.08-.27c0-.7.23-1,.7-1a1.82,1.82,0,0,1,.52,0c.36,0,.71,0,1.07,0,.61,0,1.23.12,1.84.21l.15,1.07h0C120.43,119.67,120.79,119.64,120.93,119.43Z"/><path d="M94.45,117.13a3,3,0,0,0,.08-.51,1.09,1.09,0,0,0,0-.18,3.08,3.08,0,0,0,0-.53c0-.06,0-.12,0-.18a3.36,3.36,0,0,0-.14-.48c0-.07-.07-.12-.1-.18a4,4,0,0,0-.22-.41c0-.06-.11-.11-.17-.17a2,2,0,0,0-.28-.3,2.07,2.07,0,0,0-.25-.15,1.28,1.28,0,0,0-.74-.29,1.16,1.16,0,0,0-.18,0,2.1,2.1,0,0,0-.7.06,2,2,0,0,0-.58.24l-.16.13a1.87,1.87,0,0,0-.3.26.85.85,0,0,0-.14.19,1.81,1.81,0,0,0-.19.29,1.86,1.86,0,0,0-.1.25,2.81,2.81,0,0,0-.1.31c0,.09,0,.18,0,.28s0,.2,0,.3a1.51,1.51,0,0,0,0,.3,2.33,2.33,0,0,0,0,.28,2.8,2.8,0,0,0,.09.31c0,.09.09.17.14.26a2,2,0,0,0,.16.28l0,0a2,2,0,0,0,.4.42c.31.23.59-.25.36-.52,0,0,0-.05,0-.06a1.65,1.65,0,0,1,.86-2.93c1.39-.08,2.09,1.49,1.71,2.79,0,0,0,0,0,.07a.3.3,0,0,0,.59.12,0,0,0,0,0,0,0C94.43,117.28,94.43,117.2,94.45,117.13Z"/><path d="M120.62,117.25a2.76,2.76,0,0,0,.08-.27,1.84,1.84,0,0,0,0-.33,1.43,1.43,0,0,0,0-.29c0-.11,0-.21,0-.32a2.46,2.46,0,0,0-.07-.29,2.31,2.31,0,0,0-.1-.28,2,2,0,0,0-.15-.29l-.14-.22a2.83,2.83,0,0,0-.24-.25c-.06,0-.11-.11-.18-.16a2,2,0,0,0-.35-.19l-.18-.08a1.91,1.91,0,0,0-.64-.11,2.28,2.28,0,0,0-.59.11l-.17.08a2.11,2.11,0,0,0-.33.18l-.16.15-.23.24-.14.21a1.71,1.71,0,0,0-.14.27,2.25,2.25,0,0,0-.08.24,1.5,1.5,0,0,0-.06.29,1.24,1.24,0,0,0,0,.27,1.33,1.33,0,0,0,0,.28,2.7,2.7,0,0,0,0,.28c0,.09.08.18.12.27s.07.17.12.26l0,0a2,2,0,0,0,.4.44c.26.21.51-.14.41-.42a.29.29,0,0,0-.09-.16,1.34,1.34,0,0,1,1.1-2.31,1.66,1.66,0,0,1,.9,2.67.56.56,0,0,1,0,.08c-.28.32.13.77.43.49l.2-.18a.3.3,0,0,0,.09-.27l0,0s0,0,0,0A3.21,3.21,0,0,0,120.62,117.25Z"/><path d="M112.07,116.41c0-.1,0-.2,0-.3l-.06-.33a2.86,2.86,0,0,0-.07-.28l-.15-.35c0-.06-.06-.13-.1-.19a2.25,2.25,0,0,0-.35-.45l-.14-.11a2.54,2.54,0,0,0-.34-.23l-.18-.08a1.8,1.8,0,0,0-.4-.1,1.08,1.08,0,0,0-.19,0,2.1,2.1,0,0,0-.65.06,1.77,1.77,0,0,0-.57.27.87.87,0,0,0-.15.13,1.72,1.72,0,0,0-.27.27,1,1,0,0,0-.12.19,2.48,2.48,0,0,0-.17.32c0,.07,0,.15-.07.23a1.86,1.86,0,0,0-.06.34,1.94,1.94,0,0,0,0,.24,2.07,2.07,0,0,0,0,.35,2,2,0,0,0,0,.24,2,2,0,0,0,.12.34,1.21,1.21,0,0,0,.09.2,1.82,1.82,0,0,0,.29.38l.07.09h0a2,2,0,0,0,.53.35c.26.11.41-.17.36-.41a.29.29,0,0,0-.19-.24,1.44,1.44,0,0,1,.37-2.68c1.42-.21,2.14,1.49,1.54,2.72a.3.3,0,0,0,0,.18c0,.3.4.49.55.17a2,2,0,0,0,.08-.22,3.08,3.08,0,0,0,.19-.93S112.07,116.46,112.07,116.41Z"/><path d="M103,117.23a.05.05,0,0,0,0,0,3,3,0,0,0,.09-.32,2.84,2.84,0,0,0,.06-.31c0-.11,0-.22,0-.32s0-.21,0-.32,0-.2-.05-.3,0-.21-.08-.31a2,2,0,0,0-.11-.26,2.69,2.69,0,0,0-.16-.29l-.16-.21a1.9,1.9,0,0,0-.25-.24l-.18-.15a2.32,2.32,0,0,0-.36-.16,1.07,1.07,0,0,0-.19-.07,2,2,0,0,0-.65-.05,1.72,1.72,0,0,0-.56.15.91.91,0,0,0-.16.11,1.19,1.19,0,0,0-.29.21,1.3,1.3,0,0,0-.15.18,2.27,2.27,0,0,0-.18.25,1.36,1.36,0,0,0-.11.25,1.25,1.25,0,0,0-.1.27,2.54,2.54,0,0,0,0,.29,2.42,2.42,0,0,0,0,.25c0,.11,0,.21,0,.32s0,.16,0,.23a1.34,1.34,0,0,0,.12.3,1.39,1.39,0,0,0,.11.21,1.71,1.71,0,0,0,.21.26l.15.13a1,1,0,0,0,.15.14c.2.14.38,0,.43-.22a.29.29,0,0,0-.11-.36,1.27,1.27,0,0,1,.76-2.3c1.26.09,1.58,1.54,1.09,2.58a2.64,2.64,0,0,1-.15.29.28.28,0,0,0,.07.41.31.31,0,0,0,.31,0,.27.27,0,0,0,.16-.1A2.69,2.69,0,0,0,103,117.23Z"/><path d="M112.26,119.26h.06l-.07-.07Z"/><path d="M128.32,107.82c0-.49,0-1,0-1.48,0,0,0,0,0,0l-.45-.19-.78-.32-.3-.12h0c-.08.45-.11.88-.15,1.32s-.1.67-.12,1c0,.78-.06,1.56-.06,2.36a.32.32,0,0,1-.4.32,76.08,76.08,0,0,0-8.53-.73c-6.46-.3-12.94-.33-19.41-.26-4.6,0-9.25,0-13.83.47-.17,0-.31-.17-.31-.34q.08-2.94.14-5.86h0l-.39.38-.47.44a25.83,25.83,0,0,1-2,1.75h0c0,.14,0,.28-.07.41a5.69,5.69,0,0,0-.07.71,4,4,0,0,0,0,.49h0c.54.8,1,1.61,1.49,2.44.13.23.25.46.37.69.33.64.64,1.28.91,1.94.1.22.2.45.29.68a23.32,23.32,0,0,1,.86,2.56s0,0,0,.06a22.84,22.84,0,0,1,.56,2.83l0,.15.6-.06-.12-.23c-.07-.13-.14-.25-.2-.38l-.2-.48c0-.11-.09-.23-.13-.35a2.63,2.63,0,0,1-.1-.56,1.57,1.57,0,0,1,0-.3,2.78,2.78,0,0,1,.11-.9,2,2,0,0,1,.75-1,1.89,1.89,0,0,1,1.17-.33,2.34,2.34,0,0,1,2,1.63,3.24,3.24,0,0,1,.18.73,2.44,2.44,0,0,1,0,.27c0,.1,0,.19,0,.28a0,0,0,0,1,0,0,2.76,2.76,0,0,1,.81-.28l0,0s0,0,0,0a2,2,0,0,1-.16-.28c0-.09-.1-.17-.14-.26a2.8,2.8,0,0,1-.09-.31,2.33,2.33,0,0,1,0-.28,1.51,1.51,0,0,1,0-.3c0-.1,0-.2,0-.3s0-.19,0-.28a2.81,2.81,0,0,1,.1-.31,1.86,1.86,0,0,1,.1-.25,1.81,1.81,0,0,1,.19-.29.85.85,0,0,1,.14-.19,1.87,1.87,0,0,1,.3-.26l.16-.13a2,2,0,0,1,.58-.24,2.1,2.1,0,0,1,.7-.06,1.16,1.16,0,0,1,.18,0,1.28,1.28,0,0,1,.74.29,2.07,2.07,0,0,1,.25.15,2,2,0,0,1,.28.3c.06.06.12.11.17.17a4,4,0,0,1,.22.41c0,.06.07.11.1.18a3.36,3.36,0,0,1,.14.48c0,.06,0,.12,0,.18a3.08,3.08,0,0,1,0,.53,1.09,1.09,0,0,1,0,.18,3,3,0,0,1-.08.51c0,.07,0,.14,0,.21a1.08,1.08,0,0,1,.24.12,1.12,1.12,0,0,1,.2.17h0a2.83,2.83,0,0,1,.14-.76,1.3,1.3,0,0,1,.08-.17,2.34,2.34,0,0,1,.27-.49l.15-.19a2.25,2.25,0,0,1,.41-.34l.19-.13a2,2,0,0,1,.74-.22,2.14,2.14,0,0,1,.85.13,1.89,1.89,0,0,1,.21.09,2.1,2.1,0,0,1,.5.34.66.66,0,0,1,.15.14,2.68,2.68,0,0,1,.67,1.5s0,0,0,.07l.12,0a1.79,1.79,0,0,1,.53-.22l.09,0s-.07-.08-.11-.12a1.71,1.71,0,0,1-.21-.26,1,1,0,0,1-.11-.21,1.34,1.34,0,0,1-.12-.3c0-.07,0-.15,0-.23s0-.21,0-.32a2.42,2.42,0,0,1,0-.25,2.54,2.54,0,0,1,0-.29,1.25,1.25,0,0,1,.1-.27,1.36,1.36,0,0,1,.11-.25,2.27,2.27,0,0,1,.18-.25,1.3,1.3,0,0,1,.15-.18,1.19,1.19,0,0,1,.29-.21.91.91,0,0,1,.16-.11,1.65,1.65,0,0,1,.56-.15,2,2,0,0,1,.65.05,1.07,1.07,0,0,1,.19.07,2.32,2.32,0,0,1,.36.16l.18.15a1.9,1.9,0,0,1,.25.24l.16.21a2.69,2.69,0,0,1,.16.29,2,2,0,0,1,.11.26,2.81,2.81,0,0,1,.08.31c0,.1,0,.2.05.3s0,.21,0,.32,0,.21,0,.32a2.84,2.84,0,0,1-.06.31,3,3,0,0,1-.09.32v0l.08,0a1.77,1.77,0,0,1,.47.25s.08,0,.11.06a1.49,1.49,0,0,1,0-.21,1.37,1.37,0,0,1,0-.19,2.91,2.91,0,0,1,.15-.58l.06-.11a2.38,2.38,0,0,1,.25-.44l.1-.13a2.12,2.12,0,0,1,.44-.41s0,0,.06,0a1.75,1.75,0,0,1,.5-.23l.16,0a1.79,1.79,0,0,1,.66,0,2.19,2.19,0,0,1,.82.26l.2.14a2.3,2.3,0,0,1,.43.39c0,.07.11.13.15.2a3,3,0,0,1,.3.59s0,.09,0,.14a3.06,3.06,0,0,1,.12.85v0a.59.59,0,0,1,.19,0l.24-.07.06,0h0l-.07-.09a1.82,1.82,0,0,1-.29-.38,1.21,1.21,0,0,1-.09-.2,2,2,0,0,1-.12-.34,2,2,0,0,1,0-.24,2.07,2.07,0,0,1,0-.35,1.94,1.94,0,0,1,0-.24,1.86,1.86,0,0,1,.06-.34c0-.08.05-.16.07-.23a2.48,2.48,0,0,1,.17-.32,1,1,0,0,1,.12-.19,1.72,1.72,0,0,1,.27-.27.87.87,0,0,1,.15-.13,1.77,1.77,0,0,1,.57-.27,2.1,2.1,0,0,1,.65-.06,1.08,1.08,0,0,1,.19,0,1.8,1.8,0,0,1,.4.1l.18.08a2.54,2.54,0,0,1,.34.23l.14.11a2.25,2.25,0,0,1,.35.45c0,.06.06.13.1.19l.15.35a2.86,2.86,0,0,1,.07.28l.06.33c0,.1,0,.2,0,.3a.22.22,0,0,1,0,.08.18.18,0,0,0,.05-.07l.18-.24a2.29,2.29,0,0,1,.21-.23,1.68,1.68,0,0,1,.21-.18,2.59,2.59,0,0,1,.33-.19,1.76,1.76,0,0,1,.2-.09,1.81,1.81,0,0,1,.63-.11,2.29,2.29,0,0,1,.81.16,1.43,1.43,0,0,1,.21.12,2.28,2.28,0,0,1,.44.3l.17.19a3.41,3.41,0,0,1,.3.44l.1.21a3,3,0,0,1,.16.59l0,.12a1.17,1.17,0,0,1,.2-.06,1.12,1.12,0,0,1,.26-.08,2.52,2.52,0,0,1,.48-.05v0c-.05-.09-.08-.18-.12-.26a1.59,1.59,0,0,1-.12-.27,2.7,2.7,0,0,1,0-.28,1.41,1.41,0,0,1,0-.28,1.24,1.24,0,0,1,0-.27,1.5,1.5,0,0,1,.06-.29,2.25,2.25,0,0,1,.08-.24,1.71,1.71,0,0,1,.14-.27l.14-.21a2.61,2.61,0,0,1,.23-.24l.16-.15a2.11,2.11,0,0,1,.33-.18l.17-.08a2.28,2.28,0,0,1,.59-.11,1.91,1.91,0,0,1,.64.11l.18.08a2.37,2.37,0,0,1,.35.19c.07,0,.12.11.18.16a2.83,2.83,0,0,1,.24.25l.14.22a2,2,0,0,1,.15.29,2.31,2.31,0,0,1,.1.28,2.46,2.46,0,0,1,.07.29c0,.11,0,.21,0,.32a1.43,1.43,0,0,1,0,.29,1.84,1.84,0,0,1,0,.33,2.76,2.76,0,0,1-.08.27,3.21,3.21,0,0,1-.12.33,0,0,0,0,0,0,0h0a.32.32,0,0,1,.3.25.77.77,0,0,1,0,.15c0-.1.09-.18.12-.28a2.4,2.4,0,0,1,.17-.4,2,2,0,0,1,.53-.55,1.79,1.79,0,0,1,.65-.25h.24a1.89,1.89,0,0,1,.41,0l.29.08a1.91,1.91,0,0,1,.32.16,2.68,2.68,0,0,1,.28.18l.07,0,.06-.18c.17-.54.36-1.07.56-1.6.09-.25.18-.51.28-.76.21-.52.45-1,.69-1.54.12-.25.23-.5.36-.75.25-.5.53-1,.81-1.48.14-.25.28-.5.43-.74.29-.49.61-1,.94-1.44l.35-.54A.43.43,0,0,1,128.32,107.82Z"/><path d="M104.08,119.23l.19,0-.14-.16A1.21,1.21,0,0,1,104.08,119.23Z"/><path d="M95.23,119a1.48,1.48,0,0,1,0,.21h0l.06,0h0A2.14,2.14,0,0,1,95.23,119Z"/><path d="M105.08,84.47a6.22,6.22,0,0,1-4.94,0,2,2,0,0,1-.27.1,22,22,0,0,1-4.2.31l0,.13c-.06.14-.16.38-.27.67s-.28.73-.38,1.07l-.11.33c5,.46,16.16-.25,18.06-.38l.3,0-.75-2.54h-.07l-.26.06c-1.18.25-5.33,1-6.36-.15-.07,0-.15.08-.23.13h0A3.25,3.25,0,0,1,105.08,84.47Z"/><path d="M78,106.28s0,0,0,0c.33-.35.64-.72,1-1.08a93.36,93.36,0,0,0,6.28-20,1.89,1.89,0,0,1,0-.23c.06-.32-.39-.46-.45-.14,0,.15-.07.3-.1.45A92.82,92.82,0,0,1,78,106.13Z"/><path d="M90.52,85.42a.49.49,0,0,0,0-.11.24.24,0,1,0-.45-.14,2.09,2.09,0,0,1-.08.23,54.2,54.2,0,0,1-11.11,19.81c-.32.36-.63.73-1,1.08-.08.08-.15.17-.22.25a.22.22,0,0,0-.06.2.23.23,0,0,0,.32.19s0,0,.07,0l.08-.1c.22-.23.42-.47.64-.71A54.76,54.76,0,0,0,90.52,85.42Z"/><path d="M130.38,105.62l.39.34c.24.19.46-.21.26-.41l0,0-.06,0c-6.44-5.12-11.17-12.8-13.94-20.84,0,0,0,0-.05-.06a.23.23,0,0,0-.41.19s0,0,0,0C119.34,92.81,124,100.42,130.38,105.62Z"/><path d="M122.31,84.59A71.47,71.47,0,0,0,131,103l.07.11a.24.24,0,0,0,.41-.26c-.17-.24-.31-.5-.47-.75a70.76,70.76,0,0,1-8.24-17.62.22.22,0,0,0-.26-.16l-.07,0A.2.2,0,0,0,122.31,84.59Z"/><path d="M79.12,108.59s0,.07,0,.11A37.22,37.22,0,0,1,83,126.51a.23.23,0,1,0,.46,0,37.57,37.57,0,0,0-3.89-17.93l-.06-.13C79.41,108.2,79.11,108.36,79.12,108.59Z"/><path d="M78.39,108.51a.36.36,0,0,1,0,.1,47.31,47.31,0,0,1,1.17,17.54c0,.32.43.32.47,0a47.79,47.79,0,0,0-1.16-17.55,2.07,2.07,0,0,1,0-.22A.24.24,0,1,0,78.39,108.51Z"/><path d="M130.52,107.78l0,0a.21.21,0,0,0-.3.08c-.05.08-.09.18-.15.26a29.46,29.46,0,0,0-3.76,18.84c0,.32.49.19.45-.13a28.89,28.89,0,0,1,3.42-17.91C130.31,108.53,130.41,108.15,130.52,107.78Z"/><path d="M131,107.92a.23.23,0,0,0-.43-.16l0,0c-.11.37-.21.75-.32,1.12a46.75,46.75,0,0,0-1.53,18.17c0,.32.51.33.47,0a46.34,46.34,0,0,1,1.78-19v-.05A.83.83,0,0,0,131,107.92Z"/></g><g class="cls-6"><path class="cls-1" d="M173,109c.87-1.32,1.77-2.62,2.64-3.94l-.74-.46-6.34,1.56Z"/><path class="cls-1" d="M167.76,90.11l-3.45-5.72-4.61-.88L163,89.09Z"/><path class="cls-1" d="M150.57,88.23,149.49,88l25.87,16c-.08-.15-.16-.3-.23-.45C166.79,98.71,158.91,93.09,150.57,88.23Z"/><path class="cls-1" d="M150.72,87.5l.11.06c4.61,1,9.21,2,13.81,3.06,2.75.62,5.51,1.22,8.28,1.76,1.43.28,2.87.54,4.31.79.92.15,1.18.36,1.53,0-10.6-2.29-21.22-4.46-31.82-6.75l.76.47,2.75.59A.27.27,0,0,1,150.72,87.5Z"/><path class="cls-1" d="M139.64,91.09,138,93.49v1l5.73-8.34C142.4,86.06,140.14,90.34,139.64,91.09Z"/><path class="cls-1" d="M160,88.47l-3.34-5.54-2.4-.46L151.7,82l3,5.31Z"/><path class="cls-1" d="M145.75,85.44l6.4,1.36-3.25-5.26-.18,0c-.5-.08-2-.6-2.39-.38s-.49,1.45-.58,1.73c-.25.79-.5,1.57-.76,2.35l.49.3A.27.27,0,0,1,145.75,85.44Z"/><path class="cls-1" d="M140.4,110.23c1.32-1.94,2.63-3.89,3.94-5.83-2-1.3-4-2.55-5.91-3.88l-.4.65v8l2.4,1.37A.25.25,0,0,1,140.4,110.23Z"/><path class="cls-1" d="M153.65,110.4a52.75,52.75,0,0,1-3.42,5.63.2.2,0,0,1-.12.08l11.13,6.37c1.2-1.76,2.37-3.54,3.57-5.3C161.05,115,157.34,112.71,153.65,110.4Z"/><path class="cls-1" d="M157.94,123.29a11.38,11.38,0,0,0,2.32,1.35,3,3,0,0,0,2.69-1.06c.55-.64,1-1.37,1.51-2q2-2.75,3.87-5.54c1.46-2.13,2.88-4.28,4.31-6.43h0L142,90l-.25.34q-1.85,2.72-3.71,5.41v4.41l.1-.17c.11-.18.3-.11.4,0a.27.27,0,0,1,.17,0q13,8.86,26.62,16.81a.29.29,0,0,1,0,.51s0,.05,0,.07c-1.25,1.84-2.48,3.71-3.74,5.55,0,0,0,0-.05,0a.21.21,0,0,1-.1.06h-.08s-.05,0-.08,0L138,109.79v1.9l2.57,1.5Zm-6-25,17.83,11.58c.29.19,0,.6-.33.42L151.58,98.76C151.29,98.57,151.62,98.16,151.91,98.34Zm-2-2.14a.27.27,0,0,1-.33.42A.27.27,0,0,1,149.92,96.2Zm-.54.8c.27.22-.07.64-.33.42A.27.27,0,0,1,149.38,97Zm-.91,2h-.1a.27.27,0,0,1-.06-.53h.1A.27.27,0,0,1,148.47,99.05Zm-5.55-6.35A43.36,43.36,0,0,1,148.29,96c.28.2,0,.62-.33.42a43.3,43.3,0,0,0-5.24-3.22C142.41,93,142.62,92.54,142.92,92.7Zm4.52,7.34-.05-.05a.27.27,0,0,1,.33-.42l.06.05C148.05,99.83,147.71,100.25,147.44,100Zm-3.12,1.69q-2.62-1.26-5.16-2.72c-.29-.17-.09-.66.21-.49,1.69,1,3.4,1.88,5.16,2.72C144.84,101.38,144.63,101.88,144.32,101.73Zm1.9-2.9-5-2.93c-.29-.17-.08-.66.21-.49l5,2.93C146.73,98.51,146.52,99,146.22,98.83Zm6.93,8.84c-2-1.38-4.09-2.68-6.22-3.88-.3-.17-.09-.67.21-.5q3.26,1.84,6.34,4C153.76,107.45,153.43,107.86,153.15,107.67Zm11.47,7.64a37,37,0,0,1-6.91-4.54c-.27-.22.06-.64.33-.42a36.25,36.25,0,0,0,6.78,4.46C165.13,115,164.92,115.46,164.62,115.31ZM150.07,101.5c-.29-.18,0-.6.33-.42l18.13,11.13c.29.18,0,.6-.33.42Z"/><path class="cls-1" d="M153.19,110.13c-2.83-1.77-5.62-3.61-8.41-5.44l-4,5.88a.23.23,0,0,1-.19.1l9.14,5.24a.28.28,0,0,1,0-.21A52.52,52.52,0,0,0,153.19,110.13Z"/><path class="cls-1" d="M150.94,94.87l6-1.45-5.15-3.19-5.22,1.83Z"/><path class="cls-1" d="M144.63,85.87c0,.06.06.16-.07.37-.64,1.1-1.41,2.14-2.16,3.18l1.46.93,5.66-1.5-.91-.56-2.52-1.56c-.3-.19-1.06-.87-1.42-.88h0S144.63,85.86,144.63,85.87Z"/><path class="cls-1" d="M158.12,99.47l6.25-1.42L160,95.34l-6.09,1.43Z"/><path class="cls-1" d="M144.24,85.24,145.6,81c-1,.07-1.75,3.68-1.9,4.32a1.82,1.82,0,0,1,.51.15l0-.07A.31.31,0,0,1,144.24,85.24Z"/><path class="cls-1" d="M179.18,92.53s0,0,0,0c.43-1.1,1.65-4,.42-4.73a10.28,10.28,0,0,0-2.77-.73c-3.25-.76-6.53-1.44-9.81-2.1l3.41,5.76C173.35,91.29,176.27,91.9,179.18,92.53Z"/><path class="cls-1" d="M165.61,104.25l6.23-1.57-4.15-2.57-6.36,1.4Z"/><path d="M142,90l-.26-.17c-.39-.24.06-.8.44-.56l.23.15c.75-1,1.52-2.08,2.16-3.18.13-.21.11-.31.07-.37a.39.39,0,0,1-.58.31c-.09-.06-.19,0-.29,0L138,94.49v1.26q1.86-2.7,3.71-5.41Z"/><path d="M158.27,124.3c2.08,1.21,3.35,2.14,5,0,1.31-1.66,2.51-3.41,3.72-5.15,3.19-4.57,6.28-9.21,9.35-13.87a.37.37,0,0,1-.47-.17l-.54-1.08L149.49,88c-.63-.13-1.26-.28-1.9-.4-.45-.09-.35-.8.1-.71h0l-.76-.47-1.29-.27a.38.38,0,0,1-.17-.64l-.49-.3-.09.31a.29.29,0,0,1-.35.19s.08.08.09.13h0c.36,0,1.12.69,1.42.88l2.52,1.56.91.56.2,0,2.37,1.31-.34.12,5.15,3.19.43-.1,3.13,1.91-.47.11,4.38,2.71.47-.1,3.41,2-.56.12,4.15,2.57.31-.08,3,1.93-.24.06.74.46c-.87,1.32-1.77,2.62-2.64,3.94h0c.38.24,0,.76-.41.56-1.43,2.15-2.85,4.3-4.31,6.43q-1.91,2.79-3.87,5.54c-.49.68-1,1.41-1.51,2a3,3,0,0,1-2.69,1.06,11.38,11.38,0,0,1-2.32-1.35l-17.34-10.1-2.57-1.5v.82l1.38.8Z"/><path d="M144.21,85.5l0,0a.27.27,0,0,1,0-.09Z"/><path d="M145.75,81c-.05,0-.1,0-.15,0l-1.36,4.21a.31.31,0,0,0,0,.19.27.27,0,0,0,0,.09,2.29,2.29,0,0,1,.23.1s0,.06.06.09a.29.29,0,0,0,.35-.19l.09-.31c.26-.78.51-1.56.76-2.35.09-.28.29-1.56.58-1.73s1.89.3,2.39.38l.18,0-.31-.51,3,.84.08.15,2.6.45,2.4.46-.18-.31,2.9.41.28.48,4.61.88-.17-.27,2.64.39.24.41c3.28.66,6.56,1.34,9.81,2.1a10.28,10.28,0,0,1,2.77.73c1.23.76,0,3.63-.42,4.73,0,0,0,0,0,0l.25.06a.32.32,0,0,1,.27.3.27.27,0,0,0,.14-.14c.48-1.22,1.58-3.79.81-5.08-.3-.51-.76-.58-1.29-.74-2.77-.8-5.62-1.34-8.44-1.94-8.22-1.73-16.49-3.38-24.8-4.61h-.05C146.42,80.58,146.16,81.15,145.75,81Z"/><path d="M168.33,106.22l-3.17-1.86.45-.11-4.28-2.74-.09,0-3.56-2,.44-.1-4.22-2.7-.09,0-3.07-1.87.2,0-4.41-2.81-.08,0-2.73-1.7.14,0-1.46-.93-.23-.15c-.38-.24-.83.32-.44.56L142,90l30.62,19.56h0c.37.2.79-.32.41-.56h0l-4.44-2.84Z"/><path d="M154.65,87.33l-3-5.31-.08-.15-3-.84.31.51,3.25,5.26Z"/><polygon points="143.72 90.39 146.45 92.08 146.53 92.06 151.75 90.23 152.09 90.11 149.72 88.8 149.52 88.85 143.86 90.35 143.72 90.39"/><polygon points="150.75 94.92 153.81 96.79 153.9 96.77 159.99 95.34 160.46 95.23 157.33 93.31 156.9 93.42 150.94 94.87 150.75 94.92"/><polygon points="157.68 99.57 161.24 101.53 161.33 101.51 167.69 100.11 168.25 99.99 164.84 97.95 164.38 98.05 158.13 99.47 157.68 99.57"/><polygon points="165.16 104.36 168.33 106.22 168.59 106.15 174.93 104.59 175.17 104.53 172.15 102.6 171.84 102.68 165.61 104.25 165.16 104.36"/><path d="M163,89.09l-3.28-5.58-.28-.48-2.9-.41.18.31L160,88.47Z"/><path d="M170.43,90.68,167,84.92l-.24-.41-2.64-.39.17.27,3.45,5.72Z"/><path d="M148,96.41c.28.2.61-.22.33-.42a43.36,43.36,0,0,0-5.37-3.29c-.3-.16-.51.33-.2.49A43.3,43.3,0,0,1,148,96.41Z"/><path d="M149.92,96.2a.27.27,0,0,0-.33.42A.27.27,0,0,0,149.92,96.2Z"/><path d="M149.38,97a.27.27,0,0,0-.33.42C149.31,97.64,149.65,97.22,149.38,97Z"/><path d="M169.41,110.34c.29.18.62-.23.33-.42L151.91,98.34c-.29-.18-.62.23-.33.42Z"/><path d="M141.45,95.41c-.29-.17-.5.32-.21.49l5,2.93c.3.18.51-.32.21-.49Z"/><path d="M148.37,99.06h.1a.27.27,0,0,0-.06-.53h-.1A.27.27,0,0,0,148.37,99.06Z"/><path d="M147.39,100l.05.05c.27.21.61-.21.34-.42l-.06-.05A.27.27,0,0,0,147.39,100Z"/><path d="M168.53,112.21,150.4,101.08c-.29-.18-.62.24-.33.42l18.13,11.13C168.49,112.81,168.82,112.39,168.53,112.21Z"/><path d="M139.37,98.52c-.3-.17-.5.32-.21.49q2.53,1.45,5.16,2.72c.31.15.52-.35.21-.49C142.77,100.4,141.06,99.49,139.37,98.52Z"/><path d="M147.14,103.29c-.3-.17-.51.33-.21.5,2.13,1.2,4.2,2.5,6.22,3.88.28.19.61-.22.33-.42Q150.39,105.14,147.14,103.29Z"/><path d="M158,110.35c-.27-.22-.6.2-.33.42a37,37,0,0,0,6.91,4.54c.3.15.51-.34.2-.5A36.25,36.25,0,0,1,158,110.35Z"/><path d="M138.55,100.32l-.12.2c1.95,1.33,3.94,2.58,5.91,3.88l.11-.16c.19-.29.61.05.41.33l-.08.12c2.79,1.83,5.58,3.67,8.41,5.44l.07-.12c.16-.31.65-.1.49.21l-.1.18c3.69,2.31,7.4,4.59,11.16,6.78l.05-.06c.18-.27.52,0,.43.26a.29.29,0,0,0,0-.51q-13.6-7.94-26.62-16.81a.27.27,0,0,0-.17,0A.25.25,0,0,1,138.55,100.32Z"/><path d="M138.55,100.32a.25.25,0,0,0,0-.3c-.1-.14-.29-.21-.4,0l-.1.17v1l.4-.65Z"/><path d="M140.82,110.57l4-5.88.08-.12c.2-.28-.22-.62-.41-.33l-.11.16c-1.31,1.94-2.62,3.89-3.94,5.83a.25.25,0,0,0,0,.32l.2.12A.23.23,0,0,0,140.82,110.57Z"/><path d="M153.65,110.4l.1-.18c.16-.31-.33-.52-.49-.21l-.07.12a52.52,52.52,0,0,1-3.37,5.57.28.28,0,0,0,0,.21,3.79,3.79,0,0,1,.34.2.2.2,0,0,0,.12-.08A52.75,52.75,0,0,0,153.65,110.4Z"/><path d="M161.38,123.1h0Z"/><path d="M164.86,117.12l-.05.06c-1.2,1.76-2.37,3.54-3.57,5.3l.19.11a.28.28,0,0,1,0,.45s0,0,.05,0c1.26-1.84,2.49-3.71,3.74-5.55,0,0,0,0,0-.07C165.38,117.12,165,116.85,164.86,117.12Z"/><path d="M161.3,123.09h.08a.21.21,0,0,0,.1-.06.28.28,0,0,0,0-.45l-.19-.11-11.13-6.37a3.79,3.79,0,0,0-.34-.2l-9.14-5.24-.2-.12-2.4-1.37v.61l23.19,13.29S161.27,123.09,161.3,123.09Z"/><path d="M143.76,86.15c.1,0,.2,0,.29,0a.39.39,0,0,0,.58-.31s0,0,0,0-.06-.09-.09-.13,0-.07-.06-.09a2.29,2.29,0,0,0-.23-.1l0,0a1.82,1.82,0,0,0-.51-.15l0,.06a.35.35,0,0,1-.67,0c-.83.37-1.44,1.47-2,2.27l-3,4.48v1.28l1.61-2.4C140.14,90.34,142.4,86.06,143.76,86.15Z"/><path d="M143.68,85.41l0-.06c.15-.64.94-4.25,1.9-4.32.05,0,.1,0,.15,0,.41.14.67-.43.32-.62,0,0,0,0,0,0a1.37,1.37,0,0,0-1.72.86,16.81,16.81,0,0,0-1.33,4.1c0,.07,0,.1,0,.15A.35.35,0,0,0,143.68,85.41Z"/><path d="M150.44,88.15a.39.39,0,0,1,0-.67l-2.75-.59h0c-.45-.09-.55.62-.1.71.64.12,1.27.27,1.9.4l1.08.23Z"/><path d="M179.43,92.59l-.25-.06c-2.91-.63-5.83-1.24-8.75-1.85l-2.67-.57-4.78-1L160,88.47l-5.39-1.14-2.5-.53-6.4-1.36a.27.27,0,0,0-.27.07.38.38,0,0,0,.17.64l1.29.27c10.6,2.29,21.22,4.46,31.82,6.75-.35.36-.61.15-1.53,0-1.44-.25-2.88-.51-4.31-.79-2.77-.54-5.53-1.14-8.28-1.76-4.6-1-9.2-2.08-13.81-3.06.62.36,1.22.75,1.83,1.12,8.7,1.89,17.34,4.06,26.14,5.47a.36.36,0,0,0,.33-.14l.53-.85a.37.37,0,0,0,0-.27A.32.32,0,0,0,179.43,92.59Z"/><path d="M150.72,87.5a.27.27,0,0,0-.27,0,.39.39,0,0,0,0,.67l.13.08c8.34,4.86,16.22,10.48,24.56,15.34l-.06-.12c-.18-.35.28-.57.54-.36a.3.3,0,0,0-.07-.1c-7.78-4.52-15.16-9.69-22.88-14.31-.61-.37-1.21-.76-1.83-1.12Z"/><path d="M175.07,103.45l.06.12c.07.15.15.3.23.45l.54,1.08a.37.37,0,0,0,.47.17.29.29,0,0,0,.19-.43c-.27-.55-.55-1.1-.83-1.65a.29.29,0,0,0-.12-.1C175.35,102.88,174.89,103.1,175.07,103.45Z"/></g></g></g></svg>