<svg xmlns="http://www.w3.org/2000/svg" viewBox="0 0 200 200"><defs><style>.cls-1{fill:#231f20;}.cls-2{fill:none;}</style></defs><title>logo</title><g id="Layer_2" data-name="Layer 2"><g id="Layer_1-2" data-name="Layer 1"><g id="Layer_2-2" data-name="Layer 2"><g id="Layer_1-2-2" data-name="Layer 1-2"><path class="cls-1" d="M69.69,32.11h9.55v28H94.4v8.6H69.69Z"/><path class="cls-1" d="M120.6,65.7H107.44l-1.33,3H95.84l16.65-37.3h3.06L132.2,68.7H121.93Zm-6.55-16.15L110.83,58h6.38Z"/><path d="M39.83,81a18.45,18.45,0,0,1,16.76,9.83l-7.27,4.94c-2.39-4-5.55-6-9.55-6-5.83,0-10,4.11-10,10.27a10.16,10.16,0,0,0,2.77,7.39,9.93,9.93,0,0,0,7.22,2.77c4,0,7.16-2,9.55-6l7.27,4.94A18.46,18.46,0,0,1,39.77,119c-10.77.17-20-8.38-19.76-19C19.84,89.51,29,80.79,39.83,81Z"/><path d="M62,81.68h9.55v36.64H62Z"/><path d="M111.38,81.68V119h-3L88.46,99.72v18.6H78.91V81h3l19.87,19V81.68Z"/><path d="M126.59,90.28h-11v-8.6h31.53v8.6h-11v28h-9.55Z"/><path d="M168.39,115.26H155.24l-1.34,3.06H143.63L160.29,81h3.05L180,118.32H169.73Zm-6.55-16.15-3.22,8.49H165Z"/><path class="cls-1" d="M29.36,130.58a18.44,18.44,0,0,1,16.77,9.82l-7.28,4.94c-2.38-4-5.55-6-9.54-6-5.83,0-10,4.11-10,10.27A10.13,10.13,0,0,0,22.09,157a9.9,9.9,0,0,0,7.22,2.78c4,0,7.16-2,9.54-6l7.28,4.94a18.46,18.46,0,0,1-16.82,9.83c-10.77.17-20-8.38-19.77-19C9.38,139.07,18.48,130.36,29.36,130.58Z"/><path class="cls-1" d="M69.11,130.58c10.66-.22,20,8.49,19.82,19,.22,10.61-9.16,19.16-19.82,19-10.72.17-19.93-8.38-19.71-19C49.18,139.07,58.39,130.36,69.11,130.58Zm0,8.77c-5.88,0-10,4.16-10,10.21A10.25,10.25,0,0,0,62,157a9.78,9.78,0,0,0,7.21,2.78c5.67,0,10-4.11,10-10.22a9.76,9.76,0,0,0-9.32-10.2,5.93,5.93,0,0,0-.73,0Z"/><path class="cls-1" d="M116.13,167.88l-8.27-11.38h-3.94v11.38H94.37V131.24h14.38c8.16,0,14.15,5,14.15,12.61a11.91,11.91,0,0,1-5.77,10.43l9.66,13.6Zm-12.21-19.7h4.88a4.31,4.31,0,0,0,.42-8.61h-5.3Z"/><path class="cls-1" d="M137.06,139.85h-11v-8.61H157.6v8.61h-11v28h-9.55Z"/><path class="cls-1" d="M178.86,164.83H165.7l-1.33,3H154.1l16.65-37.3h3.06l16.65,37.3H180.19Zm-6.55-16.15-3.22,8.49h6.38Z"/><rect class="cls-2" width="200" height="200"/></g></g></g></g></svg>