<?xml version="1.0" encoding="iso-8859-1"?>
<!-- Generator: Adobe Illustrator 19.0.0, SVG Export Plug-In . SVG Version: 6.00 Build 0)  -->
<svg version="1.1" id="Capa_1" xmlns="http://www.w3.org/2000/svg" xmlns:xlink="http://www.w3.org/1999/xlink" x="0px" y="0px"
	 viewBox="0 0 512 512" style="enable-background:new 0 0 512 512;" xml:space="preserve">
<path style="fill:#455A64;" d="M218.229,449.049h-58.754c-9.233,0-16.787-7.554-16.787-16.787l0,0
	c0-9.233,7.554-16.787,16.787-16.787h58.754c9.233,0,16.787,7.554,16.787,16.787l0,0
	C235.016,441.495,227.462,449.049,218.229,449.049z"/>
<path style="fill:#424242;" d="M218.229,453.246h-58.754c-11.566,0-20.984-9.409-20.984-20.984c0-11.575,9.417-20.984,20.984-20.984
	h58.754c11.566,0,20.984,9.409,20.984,20.984C239.213,443.837,229.796,453.246,218.229,453.246z M159.475,419.672
	c-6.941,0-12.59,5.649-12.59,12.59s5.649,12.59,12.59,12.59h58.754c6.941,0,12.59-5.649,12.59-12.59s-5.649-12.59-12.59-12.59
	H159.475z"/>
<path style="fill:#455A64;" d="M437.298,214.872l-114.151,32.734v58.754l114.151,32.734c2.518,0.839,4.197,0.839,6.715,0.839h55.397
	c5.036,0,8.393-3.357,8.393-8.393V222.426c0-5.036-3.357-8.393-8.393-8.393h-55.397
	C441.495,214.033,439.816,214.033,437.298,214.872z"/>
<path style="fill:#424242;" d="M499.41,344.131h-55.397c-2.719,0-4.877,0-8.041-1.049l-113.983-32.692
	c-1.805-0.512-3.038-2.157-3.038-4.029v-58.754c0-1.872,1.234-3.517,3.038-4.029l114.067-32.709
	c3.122-1.032,5.263-1.032,7.957-1.032h55.397c7.294,0,12.59,5.296,12.59,12.59v109.115C512,338.835,506.704,344.131,499.41,344.131z
	 M327.344,303.196l111.104,31.87c2.048,0.671,3.223,0.671,5.565,0.671h55.397c2.703,0,4.197-1.494,4.197-4.197V222.426
	c0-2.703-1.494-4.197-4.197-4.197h-55.397c-2.342,0-3.517,0-5.397,0.63c-0.059,0.017-0.118,0.034-0.176,0.05l-111.096,31.861
	V303.196z M437.298,214.872h0.084H437.298z"/>
<path style="fill:#455A64;" d="M297.967,381.902H29.377c-14.269,0-25.18-10.911-25.18-25.18V197.246
	c0-14.269,10.911-25.18,25.18-25.18h268.59c14.269,0,25.18,10.911,25.18,25.18v159.475
	C323.148,370.99,312.236,381.902,297.967,381.902z"/>
<path style="fill:#424242;" d="M297.967,386.098H29.377C12.909,386.098,0,373.198,0,356.721V197.246
	c0-16.468,12.909-29.377,29.377-29.377h268.59c16.476,0,29.377,12.909,29.377,29.377v159.475
	C327.344,373.198,314.444,386.098,297.967,386.098z M29.377,176.262c-11.961,0-20.984,9.023-20.984,20.984v159.475
	c0,11.961,9.023,20.984,20.984,20.984h268.59c11.961,0,20.984-9.023,20.984-20.984V197.246c0-11.961-9.023-20.984-20.984-20.984
	H29.377z"/>
<path style="fill:#546E7A;" d="M365.115,381.902H130.098c-14.269,0-25.18-10.911-25.18-25.18V197.246
	c0-14.269,10.911-25.18,25.18-25.18h235.016c14.269,0,25.18,10.911,25.18,25.18v159.475
	C390.295,370.99,379.384,381.902,365.115,381.902z"/>
<path style="fill:#424242;" d="M365.115,386.098H130.098c-16.468,0-29.377-12.901-29.377-29.377V197.246
	c0-16.468,12.909-29.377,29.377-29.377h235.016c16.476,0,29.377,12.909,29.377,29.377v159.475
	C394.492,373.198,381.591,386.098,365.115,386.098z M130.098,176.262c-11.961,0-20.984,9.023-20.984,20.984v159.475
	c0,11.961,9.023,20.984,20.984,20.984h235.016c11.961,0,20.984-9.023,20.984-20.984V197.246c0-11.961-9.023-20.984-20.984-20.984
	H130.098z"/>
<path style="fill:#78909C;" d="M121.705,360.918c-2.317,0-4.197-1.88-4.197-4.197V197.246c0-2.317,1.88-4.197,4.197-4.197
	s4.197,1.88,4.197,4.197v159.475C125.902,359.038,124.021,360.918,121.705,360.918z"/>
<path style="fill:#546E7A;" d="M20.984,360.918c-2.317,0-4.197-1.88-4.197-4.197V197.246c0-2.317,1.88-4.197,4.197-4.197
	s4.197,1.88,4.197,4.197v159.475C25.18,359.038,23.3,360.918,20.984,360.918z"/>
<path style="fill:#455A64;" d="M373.508,360.918c-2.317,0-4.197-1.88-4.197-4.197V197.246c0-2.317,1.88-4.197,4.197-4.197
	s4.197,1.88,4.197,4.197v159.475C377.705,359.038,375.825,360.918,373.508,360.918z"/>
<path style="fill:#546E7A;" d="M496.892,336.577l-106.597-30.216v-58.754l106.597-30.216c5.036-1.679,10.911,2.518,10.911,8.393
	v103.239C507.803,334.059,502.767,338.256,496.892,336.577z"/>
<path style="fill:#424242;" d="M499.519,341.151c-1.242,0-2.518-0.176-3.777-0.537l-106.588-30.208
	c-1.813-0.52-3.055-2.166-3.055-4.046v-58.754c0-1.88,1.242-3.525,3.047-4.037l106.597-30.216c3.441-1.15,7.537-0.453,10.802,1.897
	c3.425,2.459,5.456,6.396,5.456,10.534v103.239c0,3.71-1.813,7.294-4.843,9.594C504.941,340.279,502.28,341.151,499.519,341.151z
	 M394.492,303.188l103.55,29.343c0,0.008,0,0.008,0.008,0.008c2.023,0.554,3.399-0.151,4.046-0.63
	c0.948-0.713,1.511-1.788,1.511-2.887V225.784c0-2.09-1.377-3.299-1.964-3.727c-1.083-0.772-2.359-1.041-3.416-0.688
	l-103.735,29.411V303.188z"/>
<g>
	<path style="fill:#455A64;" d="M491.016,322.308c-2.317,0-4.197-1.88-4.197-4.197v-81.416c0-2.317,1.88-4.197,4.197-4.197
		c2.317,0,4.197,1.88,4.197,4.197v81.416C495.213,320.436,493.333,322.308,491.016,322.308z"/>
	<path style="fill:#455A64;" d="M306.361,4.197h-41.967c-46.164,0-83.934,37.77-83.934,83.934s37.77,83.934,83.934,83.934h41.967
		V4.197z"/>
</g>
<path style="fill:#424242;" d="M306.361,176.262h-41.967c-48.598,0-88.131-39.533-88.131-88.131S215.795,0,264.393,0h41.967
	c2.317,0,4.197,1.88,4.197,4.197v167.869C310.557,174.382,308.677,176.262,306.361,176.262z M264.393,8.393
	c-43.965,0-79.738,35.773-79.738,79.738s35.773,79.738,79.738,79.738h37.77V8.393H264.393z"/>
<circle style="fill:#FFA726;" cx="306.361" cy="88.131" r="83.934"/>
<path style="fill:#424242;" d="M306.361,176.262c-48.598,0-88.131-39.533-88.131-88.131S257.763,0,306.361,0
	s88.131,39.533,88.131,88.131S354.959,176.262,306.361,176.262z M306.361,8.393c-43.965,0-79.738,35.773-79.738,79.738
	s35.773,79.738,79.738,79.738s79.738-35.773,79.738-79.738S350.325,8.393,306.361,8.393z"/>
<ellipse style="fill:#455A64;" cx="306.358" cy="88.135" rx="52.039" ry="52.039"/>
<path style="fill:#424242;" d="M306.361,144.367c-15.024,0-29.15-5.85-39.768-16.468c-21.924-21.924-21.924-57.604,0-79.528l0,0
	c10.618-10.626,24.744-16.476,39.768-16.476c15.024,0,29.142,5.85,39.76,16.468c21.924,21.924,21.924,57.604,0,79.528
	C335.503,138.517,321.385,144.367,306.361,144.367z M272.527,54.306c-18.65,18.659-18.65,49.001,0,67.66
	c9.04,9.04,21.059,14.009,33.834,14.009s24.794-4.977,33.826-14.009c18.65-18.659,18.65-49.001,0-67.66
	c-9.031-9.04-21.051-14.017-33.826-14.017S281.566,45.266,272.527,54.306L272.527,54.306z"/>
<path style="fill:#FFA726;" d="M323.987,93.167l28.538-29.377c-2.518-5.036-5.036-9.233-9.233-13.43
	c-4.197-4.197-8.393-6.715-13.43-9.233l-29.377,29.377l-40.289-9.233c-5.875,9.233-7.554,20.144-7.554,31.056l38.61,9.233
	l9.233,38.61c10.911,0.839,20.984-1.679,31.056-7.554L323.987,93.167z"/>
<path style="fill:#424242;" d="M304.514,144.527c-1.444,0-2.896-0.059-4.356-0.168c-1.821-0.143-3.332-1.435-3.76-3.206l-8.628-36.1
	l-36.1-8.637c-1.888-0.453-3.223-2.149-3.223-4.088c0-13.732,2.686-24.635,8.209-33.314c0.957-1.494,2.745-2.241,4.474-1.838
	l38.022,8.712l27.74-27.732c1.267-1.276,3.231-1.586,4.843-0.789c5.414,2.703,9.955,5.439,14.521,10.022
	c4.583,4.574,7.319,9.115,10.013,14.521c0.797,1.595,0.504,3.517-0.747,4.801l-27.019,27.807l7.151,37.3
	c0.336,1.746-0.47,3.517-2.006,4.415C324.13,141.799,314.561,144.527,304.514,144.527z M303.826,136.125
	c8.2,0.269,15.469-1.771,23.015-5.708l-6.983-36.453c-0.252-1.351,0.159-2.736,1.116-3.718l26.431-27.203
	c-1.947-3.601-4.012-6.639-7.084-9.711c-3.055-3.055-6.094-5.112-9.669-7.059l-27.203,27.203c-1.024,1.016-2.51,1.452-3.903,1.125
	l-37.284-8.545c-3.307,6.22-5.044,13.648-5.363,22.981l35.328,8.452c1.544,0.369,2.736,1.57,3.106,3.106L303.826,136.125z"/>
<path style="fill:#78909C;" d="M331.541,318.951H214.033c-14.269,0-25.18-10.911-25.18-25.18v-33.574
	c0-14.269,10.911-25.18,25.18-25.18h117.508c14.269,0,25.18,10.911,25.18,25.18v33.574
	C356.721,308.039,345.81,318.951,331.541,318.951z"/>
<path style="fill:#424242;" d="M331.541,323.148H214.033c-16.468,0-29.377-12.901-29.377-29.377v-33.574
	c0-16.468,12.909-29.377,29.377-29.377h117.508c16.476,0,29.377,12.909,29.377,29.377v33.574
	C360.918,310.247,348.017,323.148,331.541,323.148z M214.033,239.213c-11.961,0-20.984,9.023-20.984,20.984v33.574
	c0,11.961,9.023,20.984,20.984,20.984h117.508c11.961,0,20.984-9.023,20.984-20.984v-33.574c0-11.961-9.023-20.984-20.984-20.984
	H214.033z"/>
<path style="fill:#F57F17;" d="M256,415.475H121.705c-9.233,0-16.787-7.554-16.787-16.787l0,0c0-9.233,7.554-16.787,16.787-16.787
	H256c9.233,0,16.787,7.554,16.787,16.787l0,0C272.787,407.921,265.233,415.475,256,415.475z"/>
<path style="fill:#424242;" d="M256,419.672H121.705c-11.566,0-20.984-9.409-20.984-20.984c0-11.575,9.417-20.984,20.984-20.984H256
	c11.575,0,20.984,9.409,20.984,20.984C276.984,410.263,267.575,419.672,256,419.672z M121.705,386.098
	c-6.941,0-12.59,5.649-12.59,12.59s5.649,12.59,12.59,12.59H256c6.941,0,12.59-5.649,12.59-12.59s-5.649-12.59-12.59-12.59H121.705z
	"/>
<path style="fill:#FFA726;" d="M281.18,415.475H146.885c-9.233,0-16.787-7.554-16.787-16.787l0,0
	c0-9.233,7.554-16.787,16.787-16.787H281.18c9.233,0,16.787,7.554,16.787,16.787l0,0
	C297.967,407.921,290.413,415.475,281.18,415.475z"/>
<path style="fill:#424242;" d="M281.18,419.672H146.885c-11.566,0-20.984-9.409-20.984-20.984c0-11.575,9.417-20.984,20.984-20.984
	H281.18c11.575,0,20.984,9.409,20.984,20.984C302.164,410.263,292.755,419.672,281.18,419.672z M146.885,386.098
	c-6.941,0-12.59,5.649-12.59,12.59s5.649,12.59,12.59,12.59H281.18c6.941,0,12.59-5.649,12.59-12.59s-5.649-12.59-12.59-12.59
	H146.885z"/>
<path style="fill:#546E7A;" d="M243.41,449.049h-58.754c-9.233,0-16.787-7.554-16.787-16.787l0,0
	c0-9.233,7.554-16.787,16.787-16.787h58.754c9.233,0,16.787,7.554,16.787,16.787l0,0
	C260.197,441.495,252.643,449.049,243.41,449.049z"/>
<path style="fill:#424242;" d="M243.41,453.246h-58.754c-11.566,0-20.984-9.409-20.984-20.984c0-11.575,9.417-20.984,20.984-20.984
	h58.754c11.566,0,20.984,9.409,20.984,20.984C264.393,443.837,254.976,453.246,243.41,453.246z M184.656,419.672
	c-6.941,0-12.59,5.649-12.59,12.59s5.649,12.59,12.59,12.59h58.754c6.941,0,12.59-5.649,12.59-12.59s-5.649-12.59-12.59-12.59
	H184.656z"/>
<path style="fill:#455A64;" d="M155.279,37.77h-33.574c-36.931,0-67.148,30.216-67.148,67.148s30.216,67.148,67.148,67.148h33.574
	V37.77z"/>
<path style="fill:#424242;" d="M155.279,176.262h-33.574c-39.34,0-71.344-32.004-71.344-71.344s32.004-71.344,71.344-71.344h33.574
	c2.317,0,4.197,1.88,4.197,4.197v134.295C159.475,174.382,157.595,176.262,155.279,176.262z M121.705,41.967
	c-34.715,0-62.951,28.236-62.951,62.951s28.236,62.951,62.951,62.951h29.377V41.967H121.705z"/>
<circle style="fill:#FFA726;" cx="155.279" cy="104.918" r="67.148"/>
<path style="fill:#424242;" d="M155.279,176.262c-39.34,0-71.344-32.004-71.344-71.344s32.004-71.344,71.344-71.344
	s71.344,32.004,71.344,71.344S194.619,176.262,155.279,176.262z M155.279,41.967c-34.715,0-62.951,28.236-62.951,62.951
	s28.236,62.951,62.951,62.951s62.951-28.236,62.951-62.951S189.994,41.967,155.279,41.967z"/>
<ellipse style="fill:#455A64;" cx="155.28" cy="104.913" rx="41.967" ry="41.967"/>
<path style="fill:#424242;" d="M155.279,151.065c-11.818,0-23.636-4.499-32.642-13.497c-18.004-18.004-18.004-47.289,0-65.284
	c18.004-18.004,47.289-17.996,65.284,0c18.004,18.004,18.004,47.289,0,65.284C178.915,146.558,167.097,151.065,155.279,151.065z
	 M155.279,67.164c-9.669,0-19.347,3.676-26.708,11.046c-14.722,14.73-14.722,38.685,0,53.416c14.722,14.722,38.677,14.73,53.416,0
	c14.722-14.73,14.722-38.685,0-53.416C174.617,70.841,164.948,67.164,155.279,67.164z"/>
<path style="fill:#FFA726;" d="M159.475,90.649l-23.502-23.502c-3.357,2.518-7.554,5.036-10.072,8.393
	c-2.518,3.357-5.875,6.715-7.554,10.072l23.502,23.502l-7.554,31.895c7.554,4.197,15.948,6.715,24.341,5.875l7.554-31.056
	l31.056-7.554c0.839-8.393-0.839-16.787-5.875-24.341L159.475,90.649z"/>
<path style="fill:#424242;" d="M155.329,151.25c-7.47,0-15.209-2.199-23.074-6.572c-1.645-0.915-2.476-2.803-2.048-4.633
	l7.009-29.612l-21.848-21.848c-1.276-1.276-1.595-3.223-0.789-4.843c1.335-2.678,3.391-5.145,5.38-7.529
	c0.89-1.066,1.771-2.124,2.577-3.19c2.342-3.131,5.682-5.498,8.637-7.588l2.283-1.645c1.67-1.251,4.004-1.091,5.481,0.394
	l21.89,21.89l29.671-6.245c1.662-0.361,3.408,0.353,4.356,1.779c5.271,7.907,7.546,17.274,6.564,27.086
	c-0.176,1.771-1.452,3.24-3.181,3.66l-28.571,6.95l-6.95,28.571c-0.42,1.729-1.889,3.005-3.66,3.181
	C157.822,151.183,156.58,151.25,155.329,151.25z M139.13,138.794c5.59,2.694,11.004,4.054,16.166,4.062l6.815-28.017
	c0.369-1.528,1.561-2.719,3.089-3.089l28.051-6.824c0.126-5.867-1.192-11.323-3.92-16.275l-28.991,6.102
	c-1.385,0.294-2.829-0.134-3.836-1.142l-20.975-20.975c-2.401,1.712-4.818,3.483-6.27,5.422c-0.881,1.175-1.855,2.35-2.837,3.525
	c-0.948,1.142-1.922,2.3-2.745,3.425l21.143,21.143c1.032,1.032,1.452,2.518,1.116,3.937L139.13,138.794z"/>
<rect x="181.298" y="449.049" style="fill:#CFD8DC;" width="50.361" height="58.754"/>
<path style="fill:#424242;" d="M231.659,512h-50.361c-2.317,0-4.197-1.88-4.197-4.197v-58.754c0-2.317,1.88-4.197,4.197-4.197
	h50.361c2.317,0,4.197,1.88,4.197,4.197v58.754C235.856,510.12,233.976,512,231.659,512z M185.495,503.607h41.967v-50.361h-41.967
	V503.607z"/>
<circle style="fill:#CFD8DC;" cx="155.279" cy="251.803" r="16.787"/>
<path style="fill:#424242;" d="M155.279,272.787c-11.566,0-20.984-9.409-20.984-20.984c0-11.566,9.417-20.984,20.984-20.984
	c11.566,0,20.984,9.417,20.984,20.984C176.262,263.378,166.845,272.787,155.279,272.787z M155.279,239.213
	c-6.941,0-12.59,5.649-12.59,12.59c0,6.941,5.649,12.59,12.59,12.59c6.941,0,12.59-5.649,12.59-12.59
	C167.869,244.862,162.22,239.213,155.279,239.213z"/>
<circle style="fill:#CFD8DC;" cx="155.279" cy="302.164" r="16.787"/>
<path style="fill:#424242;" d="M155.279,323.148c-11.566,0-20.984-9.409-20.984-20.984c0-11.575,9.417-20.984,20.984-20.984
	c11.566,0,20.984,9.409,20.984,20.984C176.262,313.738,166.845,323.148,155.279,323.148z M155.279,289.574
	c-6.941,0-12.59,5.649-12.59,12.59s5.649,12.59,12.59,12.59c6.941,0,12.59-5.649,12.59-12.59S162.22,289.574,155.279,289.574z"/>
<g>
</g>
<g>
</g>
<g>
</g>
<g>
</g>
<g>
</g>
<g>
</g>
<g>
</g>
<g>
</g>
<g>
</g>
<g>
</g>
<g>
</g>
<g>
</g>
<g>
</g>
<g>
</g>
<g>
</g>
</svg>
