<?xml version="1.0" encoding="iso-8859-1"?>
<!-- Generator: Adobe Illustrator 19.0.0, SVG Export Plug-In . SVG Version: 6.00 Build 0)  -->
<svg version="1.1" id="Capa_1" xmlns="http://www.w3.org/2000/svg" xmlns:xlink="http://www.w3.org/1999/xlink" x="0px" y="0px"
	 viewBox="0 0 512 512" style="enable-background:new 0 0 512 512;" xml:space="preserve">
<rect x="25.18" y="37.77" style="fill:#455A64;" width="411.279" height="335.738"/>
<path style="fill:#424242;" d="M436.459,377.705H25.18c-2.317,0-4.197-1.88-4.197-4.197V37.77c0-2.317,1.88-4.197,4.197-4.197
	h411.279c2.317,0,4.197,1.88,4.197,4.197v335.738C440.656,375.825,438.776,377.705,436.459,377.705z M29.377,369.311h402.885V41.967
	H29.377V369.311z"/>
<path style="fill:#546E7A;" d="M41.967,360.918c-2.317,0-4.197-1.88-4.197-4.197V54.557c0-2.317,1.88-4.197,4.197-4.197
	c2.317,0,4.197,1.88,4.197,4.197v302.164C46.164,359.038,44.284,360.918,41.967,360.918z"/>
<path style="fill:#455A64;" d="M440.656,37.77H20.984c-9.233,0-16.787-7.554-16.787-16.787l0,0c0-9.233,7.554-16.787,16.787-16.787
	h419.672c9.233,0,16.787,7.554,16.787,16.787l0,0C457.443,30.216,449.888,37.77,440.656,37.77z"/>
<path style="fill:#424242;" d="M440.656,41.967H20.984C9.417,41.967,0,32.55,0,20.984S9.417,0,20.984,0h419.672
	c11.575,0,20.984,9.417,20.984,20.984S452.23,41.967,440.656,41.967z M20.984,8.393c-6.941,0-12.59,5.649-12.59,12.59
	s5.649,12.59,12.59,12.59h419.672c6.941,0,12.59-5.649,12.59-12.59s-5.649-12.59-12.59-12.59H20.984z"/>
<rect id="SVGCleanerId_0" x="4.197" y="373.508" style="fill:#455A64;" width="453.246" height="58.754"/>
<path id="SVGCleanerId_1" style="fill:#424242;" d="M457.443,436.459H4.197c-2.317,0-4.197-1.88-4.197-4.197v-58.754
	c0-2.317,1.88-4.197,4.197-4.197h453.246c2.317,0,4.197,1.88,4.197,4.197v58.754C461.639,434.579,459.759,436.459,457.443,436.459z
	 M8.393,428.066h444.852v-50.361H8.393V428.066z"/>
<rect x="75.541" y="37.77" style="fill:#546E7A;" width="411.279" height="335.738"/>
<path style="fill:#424242;" d="M486.82,377.705H75.541c-2.317,0-4.197-1.88-4.197-4.197V37.77c0-2.317,1.88-4.197,4.197-4.197
	H486.82c2.317,0,4.197,1.88,4.197,4.197v335.738C491.016,375.825,489.136,377.705,486.82,377.705z M79.738,369.311h402.885V41.967
	H79.738V369.311z"/>
<path style="fill:#546E7A;" d="M491.016,37.77H71.344c-9.233,0-16.787-7.554-16.787-16.787l0,0c0-9.233,7.554-16.787,16.787-16.787
	h419.672c9.233,0,16.787,7.554,16.787,16.787l0,0C507.803,30.216,500.249,37.77,491.016,37.77z"/>
<path style="fill:#424242;" d="M491.016,41.967H71.344c-11.566,0-20.984-9.417-20.984-20.984S59.778,0,71.344,0h419.672
	C502.591,0,512,9.417,512,20.984S502.591,41.967,491.016,41.967z M71.344,8.393c-6.941,0-12.59,5.649-12.59,12.59
	s5.649,12.59,12.59,12.59h419.672c6.941,0,12.59-5.649,12.59-12.59s-5.649-12.59-12.59-12.59H71.344z"/>
<rect id="SVGCleanerId_2" x="54.557" y="373.508" style="fill:#546E7A;" width="453.246" height="58.754"/>
<path id="SVGCleanerId_3" style="fill:#424242;" d="M507.803,436.459H54.557c-2.317,0-4.197-1.88-4.197-4.197v-58.754
	c0-2.317,1.88-4.197,4.197-4.197h453.246c2.317,0,4.197,1.88,4.197,4.197v58.754C512,434.579,510.12,436.459,507.803,436.459z
	 M58.754,428.066h444.852v-50.361H58.754V428.066z"/>
<g>
	<rect id="SVGCleanerId_0_1_" x="4.197" y="373.508" style="fill:#455A64;" width="453.246" height="58.754"/>
</g>
<g>
	<path id="SVGCleanerId_1_1_" style="fill:#424242;" d="M457.443,436.459H4.197c-2.317,0-4.197-1.88-4.197-4.197v-58.754
		c0-2.317,1.88-4.197,4.197-4.197h453.246c2.317,0,4.197,1.88,4.197,4.197v58.754C461.639,434.579,459.759,436.459,457.443,436.459z
		 M8.393,428.066h444.852v-50.361H8.393V428.066z"/>
</g>
<g>
	<rect id="SVGCleanerId_2_1_" x="54.557" y="373.508" style="fill:#546E7A;" width="453.246" height="58.754"/>
</g>
<g>
	<path id="SVGCleanerId_3_1_" style="fill:#424242;" d="M507.803,436.459H54.557c-2.317,0-4.197-1.88-4.197-4.197v-58.754
		c0-2.317,1.88-4.197,4.197-4.197h453.246c2.317,0,4.197,1.88,4.197,4.197v58.754C512,434.579,510.12,436.459,507.803,436.459z
		 M58.754,428.066h444.852v-50.361H58.754V428.066z"/>
</g>
<rect x="176.262" y="4.197" style="fill:#546E7A;" width="209.836" height="33.574"/>
<path style="fill:#424242;" d="M386.098,41.967H176.262c-2.317,0-4.197-1.88-4.197-4.197V4.197c0-2.317,1.88-4.197,4.197-4.197
	h209.836c2.317,0,4.197,1.88,4.197,4.197V37.77C390.295,40.087,388.415,41.967,386.098,41.967z M180.459,33.574h201.443V8.393
	H180.459V33.574z"/>
<path style="fill:#78909C;" d="M92.328,360.918c-2.317,0-4.197-1.88-4.197-4.197V54.557c0-2.317,1.88-4.197,4.197-4.197
	s4.197,1.88,4.197,4.197v302.164C96.525,359.038,94.644,360.918,92.328,360.918z"/>
<path style="fill:#455A64;" d="M470.033,360.918c-2.317,0-4.197-1.88-4.197-4.197V54.557c0-2.317,1.88-4.197,4.197-4.197
	c2.317,0,4.197,1.88,4.197,4.197v302.164C474.229,359.038,472.349,360.918,470.033,360.918z"/>
<polygon style="fill:#FFA726;" points="440.656,373.508 121.705,373.508 218.229,37.77 344.131,37.77 "/>
<path style="fill:#424242;" d="M440.656,377.705H121.705c-1.318,0-2.56-0.621-3.349-1.67c-0.789-1.049-1.049-2.417-0.68-3.676
	l96.525-335.738c0.512-1.813,2.157-3.047,4.029-3.047h125.902c1.872,0,3.517,1.234,4.029,3.038l96.525,335.738
	c0.369,1.259,0.117,2.627-0.68,3.676C443.207,377.075,441.974,377.705,440.656,377.705z M127.278,369.311h307.804L340.967,41.967
	H221.385L127.278,369.311z"/>
<path style="fill:#FFCC80;" d="M144.367,360.918c-0.386,0-0.772-0.05-1.167-0.168c-2.233-0.646-3.508-2.971-2.871-5.196
	l87.292-302.164c0.646-2.233,2.963-3.5,5.196-2.871c2.233,0.646,3.508,2.971,2.871,5.196L148.396,357.88
	C147.867,359.718,146.189,360.918,144.367,360.918z"/>
<rect x="272.787" y="205.639" style="fill:#CFD8DC;" width="16.787" height="167.869"/>
<path style="fill:#424242;" d="M289.574,377.705h-16.787c-2.317,0-4.197-1.88-4.197-4.197V205.639c0-2.317,1.88-4.197,4.197-4.197
	h16.787c2.317,0,4.197,1.88,4.197,4.197v167.869C293.77,375.825,291.89,377.705,289.574,377.705z M276.984,369.311h8.393V209.836
	h-8.393V369.311z"/>
<path style="fill:#FFA726;" d="M250.125,221.587v16.787c0,14.269-10.911,25.18-25.18,25.18h-4.197
	c-11.751,0-20.984,9.233-20.984,20.984l0,0c0,11.751,9.233,20.984,20.984,20.984l0,0c11.751,0,20.984,9.233,20.984,20.984l0,0
	c0,11.751-9.233,20.984-20.984,20.984h-16.787c-14.269,0-25.18,10.911-25.18,25.18l0,0"/>
<path style="fill:#424242;" d="M178.78,376.866c-2.317,0-4.197-1.88-4.197-4.197c0-16.476,12.909-29.377,29.377-29.377h16.787
	c9.417,0,16.787-7.378,16.787-16.787s-7.369-16.787-16.787-16.787c-14.118,0-25.18-11.054-25.18-25.18
	c0-14.126,11.063-25.18,25.18-25.18h4.197c11.961,0,20.984-9.023,20.984-20.984v-16.787c0-2.317,1.88-4.197,4.197-4.197
	c2.317,0,4.197,1.88,4.197,4.197v16.787c0,16.476-12.909,29.377-29.377,29.377h-4.197c-9.417,0-16.787,7.378-16.787,16.787
	c0,9.409,7.369,16.787,16.787,16.787c14.118,0,25.18,11.054,25.18,25.18s-11.063,25.18-25.18,25.18h-16.787
	c-11.961,0-20.984,9.023-20.984,20.984C182.977,374.994,181.097,376.866,178.78,376.866z"/>
<path style="fill:#CFD8DC;" d="M315.593,192.21l-62.111,26.02c-4.197,1.679-9.233,0-10.911-4.197l0,0
	c-1.679-4.197,0-9.233,4.197-10.911l62.111-26.02c4.197-1.679,9.233,0,10.911,4.197l0,0
	C321.469,185.495,319.79,190.531,315.593,192.21z"/>
<path style="fill:#424242;" d="M250.108,223.073c-4.969,0-9.569-2.812-11.432-7.479c-2.61-6.547,0.319-13.883,6.538-16.367
	l62.044-25.994c3.29-1.326,6.941-1.284,10.089,0.067c2.938,1.259,5.187,3.55,6.345,6.446c1.209,3.022,1.259,6.371,0.143,9.409
	c-1.192,3.231-3.55,5.691-6.648,6.941l-62.078,26.011C253.457,222.762,251.761,223.073,250.108,223.073z M312.228,180.652
	c-0.604,0-1.225,0.117-1.796,0.344l-62.044,25.994c-1.192,0.478-1.729,1.402-1.981,2.09c-0.395,1.066-0.369,2.308,0.059,3.391
	c0.453,1.125,1.377,1.662,2.065,1.922c1.083,0.395,2.317,0.369,3.391-0.067l62.044-25.994c0.025-0.008,0.042-0.017,0.067-0.025
	c1.125-0.453,1.662-1.368,1.922-2.065c0.403-1.066,0.378-2.308-0.059-3.391c-0.42-1.049-1.242-1.578-1.863-1.847
	C313.478,180.778,312.849,180.652,312.228,180.652z"/>
<ellipse style="fill:#CFD8DC;" cx="318.856" cy="181.327" rx="25.181" ry="25.181"/>
<g>
	<path style="fill:#424242;" d="M318.842,210.709c-3.811,0-7.613-0.747-11.247-2.258c-7.244-2.996-12.892-8.645-15.897-15.897
		c-3.005-7.252-3.005-15.234,0-22.486c2.996-7.252,8.645-12.901,15.897-15.897c7.244-3.005,15.226-3.005,22.494,0
		c7.244,2.996,12.892,8.645,15.897,15.897s3.005,15.234,0,22.486c-2.996,7.252-8.645,12.901-15.897,15.897
		C326.471,209.962,322.652,210.709,318.842,210.709z M318.842,160.323c-2.719,0-5.439,0.537-8.033,1.612l0,0
		c-5.179,2.14-9.216,6.178-11.356,11.356c-2.149,5.179-2.149,10.878,0,16.057s6.178,9.216,11.356,11.356
		c5.179,2.149,10.886,2.149,16.065,0c5.179-2.14,9.216-6.178,11.356-11.356c2.149-5.179,2.149-10.878,0-16.057
		c-2.149-5.179-6.178-9.216-11.356-11.356C324.289,160.86,321.57,160.323,318.842,160.323z M309.206,158.057h0.084H309.206z"/>
	<path style="fill:#424242;" d="M328.184,208.997c-1.662,0-3.24-0.999-3.895-2.636l-18.457-46.164
		c-0.865-2.149,0.176-4.591,2.333-5.456c2.14-0.865,4.591,0.185,5.447,2.342l18.457,46.164c0.865,2.149-0.176,4.591-2.333,5.456
		C329.233,208.904,328.696,208.997,328.184,208.997z"/>
</g>
<rect x="79.738" y="465.836" style="fill:#546E7A;" width="352.525" height="41.967"/>
<path style="fill:#424242;" d="M432.262,512H79.738c-2.317,0-4.197-1.88-4.197-4.197v-41.967c0-2.317,1.88-4.197,4.197-4.197
	h352.525c2.317,0,4.197,1.88,4.197,4.197v41.967C436.459,510.12,434.579,512,432.262,512z M83.934,503.607h344.131v-33.574H83.934
	V503.607z"/>
<circle style="fill:#546E7A;" cx="117.508" cy="390.295" r="41.967"/>
<path style="fill:#424242;" d="M117.508,436.459c-25.457,0-46.164-20.715-46.164-46.164c0-25.449,20.707-46.164,46.164-46.164
	s46.164,20.715,46.164,46.164C163.672,415.744,142.966,436.459,117.508,436.459z M117.508,352.525
	c-20.824,0-37.77,16.946-37.77,37.771c0,20.824,16.946,37.77,37.77,37.77c20.824,0,37.77-16.946,37.77-37.77
	C155.279,369.471,138.332,352.525,117.508,352.525z"/>
<path style="fill:#546E7A;" d="M117.508,432.262L117.508,432.262c-23.502,0-41.967,18.466-41.967,41.967v33.574h83.934v-33.574
	C159.475,450.728,141.01,432.262,117.508,432.262z"/>
<path style="fill:#424242;" d="M159.475,512H75.541c-2.317,0-4.197-1.88-4.197-4.197v-33.574c0-25.885,20.279-46.164,46.164-46.164
	s46.164,20.279,46.164,46.164v33.574C163.672,510.12,161.792,512,159.475,512z M79.738,503.607h75.541v-29.377
	c0-21.177-16.594-37.771-37.77-37.771s-37.77,16.594-37.77,37.771V503.607z"/>
<circle style="fill:#546E7A;" cx="256" cy="390.295" r="41.967"/>
<path style="fill:#424242;" d="M256,436.459c-25.457,0-46.164-20.715-46.164-46.164c0-25.449,20.707-46.164,46.164-46.164
	c25.449,0,46.164,20.715,46.164,46.164C302.164,415.744,281.449,436.459,256,436.459z M256,352.525
	c-20.824,0-37.77,16.946-37.77,37.771c0,20.824,16.946,37.77,37.77,37.77s37.77-16.946,37.77-37.77
	C293.77,369.471,276.824,352.525,256,352.525z"/>
<path style="fill:#546E7A;" d="M256,432.262L256,432.262c-23.502,0-41.967,18.466-41.967,41.967v33.574h83.934v-33.574
	C297.967,450.728,279.502,432.262,256,432.262z"/>
<path style="fill:#424242;" d="M297.967,512h-83.934c-2.317,0-4.197-1.88-4.197-4.197v-33.574c0-25.885,20.279-46.164,46.164-46.164
	s46.164,20.279,46.164,46.164v33.574C302.164,510.12,300.284,512,297.967,512z M218.229,503.607h75.541v-29.377
	c0-21.177-16.594-37.771-37.77-37.771s-37.77,16.594-37.77,37.771V503.607z"/>
<circle style="fill:#546E7A;" cx="394.492" cy="390.295" r="41.967"/>
<path style="fill:#424242;" d="M394.492,436.459c-25.449,0-46.164-20.715-46.164-46.164c0-25.449,20.715-46.164,46.164-46.164
	c25.449,0,46.164,20.715,46.164,46.164C440.656,415.744,419.941,436.459,394.492,436.459z M394.492,352.525
	c-20.824,0-37.771,16.946-37.771,37.771c0,20.824,16.946,37.77,37.771,37.77s37.77-16.946,37.77-37.77
	C432.262,369.471,415.316,352.525,394.492,352.525z"/>
<path style="fill:#546E7A;" d="M394.492,432.262L394.492,432.262c-23.502,0-41.967,18.466-41.967,41.967v33.574h83.934v-33.574
	C436.459,450.728,417.993,432.262,394.492,432.262z"/>
<path style="fill:#424242;" d="M436.459,512h-83.934c-2.317,0-4.197-1.88-4.197-4.197v-33.574c0-25.885,20.279-46.164,46.164-46.164
	s46.164,20.279,46.164,46.164v33.574C440.656,510.12,438.776,512,436.459,512z M356.721,503.607h75.541v-29.377
	c0-21.177-16.594-37.771-37.77-37.771c-21.177,0-37.771,16.594-37.771,37.771V503.607z"/>
<g>
</g>
<g>
</g>
<g>
</g>
<g>
</g>
<g>
</g>
<g>
</g>
<g>
</g>
<g>
</g>
<g>
</g>
<g>
</g>
<g>
</g>
<g>
</g>
<g>
</g>
<g>
</g>
<g>
</g>
</svg>
